<?xml version="1.0" encoding="utf-8"?>
<!-- Generator: Adobe Illustrator 24.2.1, SVG Export Plug-In . SVG Version: 6.00 Build 0)  -->
<svg version="1.1" id="Layer_1" xmlns="http://www.w3.org/2000/svg" xmlns:xlink="http://www.w3.org/1999/xlink" x="0px" y="0px"
	 viewBox="0 0 120 120" style="enable-background:new 0 0 120 120;" xml:space="preserve">
<style type="text/css">
	.st0{fill:#0E1116;}
	.st1{fill:#0E1116;stroke:#7D7E81;stroke-width:2;stroke-miterlimit:10;}
	.st2{fill:#B4C466;}
	.st3{fill:#7D7E81;}
	.st4{fill:#292B30;}
	.st5{fill:#7D7E81;stroke:#7D7E81;stroke-width:2;stroke-miterlimit:10;}
	.st6{fill:none;stroke:#7D7E81;stroke-width:2;stroke-miterlimit:10;}
	.st7{fill:#B4C466;stroke:#0E1116;stroke-width:2;stroke-miterlimit:10;}
	.st8{fill:#7D7E81;stroke:#0E1116;stroke-width:2;stroke-miterlimit:10;}
</style>
<rect class="st0" width="120" height="120"/>
<circle class="st4" cx="19.5" cy="25" r="2.5"/>
<circle class="st4" cx="29.5" cy="26" r="1.5"/>
<circle class="st4" cx="24.5" cy="19" r="1.5"/>
<circle class="st4" cx="71" cy="106.5" r="3"/>
<circle class="st4" cx="67.5" cy="99" r="1.5"/>
<circle class="st4" cx="99.5" cy="29" r="1.5"/>
<circle class="st4" cx="56.5" cy="105" r="1.5"/>
<g>
	<g>
		<circle class="st7" cx="32.5" cy="44.1" r="11.9"/>
		<path class="st8" d="M52.1,93.4V78.2c0-10.5-8.5-19-19-19s-19,8.5-19,19v15.2H52.1z"/>
	</g>
	<g>
		<circle class="st7" cx="86.5" cy="44.1" r="11.9"/>
		<path class="st8" d="M106,93.4V78.2c0-10.5-8.5-19-19-19s-19,8.5-19,19v15.2H106z"/>
	</g>
	<g>
		<circle class="st7" cx="59.4" cy="36.4" r="13.8"/>
		<path class="st8" d="M82,93.4V75.8c0-12.2-9.9-22-22-22s-22,9.9-22,22v17.5H82z"/>
	</g>
</g>
</svg>
