<?xml version="1.0" encoding="utf-8"?>
<!-- Generator: Adobe Illustrator 24.2.1, SVG Export Plug-In . SVG Version: 6.00 Build 0)  -->
<svg version="1.1" id="Layer_1" xmlns="http://www.w3.org/2000/svg" xmlns:xlink="http://www.w3.org/1999/xlink" x="0px" y="0px"
	 viewBox="0 0 120 120" style="enable-background:new 0 0 120 120;" xml:space="preserve">
<style type="text/css">
	.st0{fill:#0E1116;}
	.st1{fill:#0E1116;stroke:#7D7E81;stroke-width:2;stroke-miterlimit:10;}
	.st2{fill:#B4C466;}
	.st3{fill:#7D7E81;}
	.st4{fill:#292B30;}
	.st5{fill:#7D7E81;stroke:#7D7E81;stroke-width:2;stroke-miterlimit:10;}
	.st6{fill:none;stroke:#7D7E81;stroke-width:2;stroke-miterlimit:10;}
	.st7{fill:#B4C466;stroke:#0E1116;stroke-width:2;stroke-miterlimit:10;}
	.st8{fill:#7D7E81;stroke:#0E1116;stroke-width:2;stroke-miterlimit:10;}
</style>
<rect class="st0" width="120" height="120"/>
<circle class="st4" cx="19.5" cy="25" r="2.5"/>
<circle class="st4" cx="29.5" cy="26" r="1.5"/>
<circle class="st4" cx="24.5" cy="19" r="1.5"/>
<circle class="st4" cx="101" cy="101.5" r="3"/>
<circle class="st4" cx="105.5" cy="88" r="1.5"/>
<circle class="st4" cx="99.5" cy="29" r="1.5"/>
<circle class="st4" cx="94.5" cy="94" r="1.5"/>
<line class="st6" x1="31" y1="48.5" x2="68" y2="61.5"/>
<line class="st6" x1="75" y1="24.5" x2="68" y2="58.5"/>
<line class="st6" x1="96" y1="55.5" x2="69" y2="59.5"/>
<line class="st6" x1="74" y1="90.5" x2="68" y2="63.5"/>
<line class="st6" x1="42" y1="87.5" x2="66.8" y2="60.8"/>
<line class="st6" x1="38" y1="45.5" x2="75" y2="26.5"/>
<line class="st6" x1="42.5" y1="87.2" x2="35" y2="54.5"/>
<line class="st6" x1="76" y1="90.5" x2="46" y2="87.5"/>
<path class="st6" d="M80,86.5c0,0,16-31,16-32"/>
<line class="st6" x1="77" y1="24.5" x2="97" y2="52.5"/>
<circle class="st2" cx="33.5" cy="51" r="15.5"/>
<circle class="st2" cx="67.5" cy="60" r="6.5"/>
<circle class="st2" cx="74.5" cy="89" r="11.5"/>
<circle class="st2" cx="74.5" cy="25" r="8.5"/>
<circle class="st2" cx="43.5" cy="86" r="4.5"/>
<circle class="st2" cx="96.5" cy="54" r="5.5"/>
</svg>
