<?xml version="1.0" encoding="utf-8"?>
<!-- Generator: Adobe Illustrator 24.2.1, SVG Export Plug-In . SVG Version: 6.00 Build 0)  -->
<svg version="1.1" id="Layer_1" xmlns="http://www.w3.org/2000/svg" xmlns:xlink="http://www.w3.org/1999/xlink" x="0px" y="0px"
	 viewBox="0 0 120 120" style="enable-background:new 0 0 120 120;" xml:space="preserve">
<style type="text/css">
	.st0{fill:#0E1116;}
	.st1{fill:#0E1116;stroke:#7D7E81;stroke-width:2;stroke-miterlimit:10;}
	.st2{fill:#B4C466;}
	.st3{fill:#7D7E81;}
	.st4{fill:#292B30;}
	.st5{fill:#7D7E81;stroke:#7D7E81;stroke-width:2;stroke-miterlimit:10;}
	.st6{fill:none;stroke:#7D7E81;stroke-width:2;stroke-miterlimit:10;}
	.st7{fill:#B4C466;stroke:#0E1116;stroke-width:2;stroke-miterlimit:10;}
	.st8{fill:#7D7E81;stroke:#0E1116;stroke-width:2;stroke-miterlimit:10;}
</style>
<rect class="st0" width="120" height="120"/>
<circle class="st4" cx="19.5" cy="25" r="2.5"/>
<circle class="st4" cx="29.5" cy="26" r="1.5"/>
<circle class="st4" cx="24.5" cy="19" r="1.5"/>
<circle class="st4" cx="95" cy="99.5" r="3"/>
<circle class="st4" cx="100.5" cy="92" r="1.5"/>
<circle class="st4" cx="84.5" cy="100" r="1.5"/>
<g>
	<path class="st1" d="M7.1,83.3C7,82.5,7,81.8,7,81.1c0-29.3,23.7-53,53-53s53,23.7,53,53c0,0.7,0,1.4-0.1,2.2H7.1z"/>
	<path class="st1" d="M7.1,83.3C7,82.5,7,81.8,7,81.1c0-29.3,23.7-53,53-53s53,23.7,53,53c0,0.7,0,1.4-0.1,2.2H7.1z"/>
	<path class="st2" d="M61.1,61.5c9.6,0,17.7,6.2,20.6,14.8h24.1c-2.4-23.1-22-41.2-45.7-41.2S16.7,53.2,14.3,76.3h26.2
		C43.4,67.7,51.5,61.5,61.1,61.5z"/>
	<g>
		<polygon class="st5" points="60,81.1 60.4,80.9 104.3,61.6 64.3,86.5 		"/>
		<circle class="st5" cx="61.1" cy="83.3" r="8.7"/>
	</g>
</g>
</svg>
