<?xml version="1.0" encoding="utf-8"?>
<!-- Generator: Adobe Illustrator 24.2.1, SVG Export Plug-In . SVG Version: 6.00 Build 0)  -->
<svg version="1.1" id="Layer_1" xmlns="http://www.w3.org/2000/svg" xmlns:xlink="http://www.w3.org/1999/xlink" x="0px" y="0px"
	 viewBox="0 0 120 120" style="enable-background:new 0 0 120 120;" xml:space="preserve">
<style type="text/css">
	.st0{fill:#0E1116;}
	.st1{fill:#0E1116;stroke:#7D7E81;stroke-width:2;stroke-miterlimit:10;}
	.st2{fill:#B4C466;}
	.st3{fill:#7D7E81;}
	.st4{fill:#292B30;}
	.st5{fill:#7D7E81;stroke:#7D7E81;stroke-width:2;stroke-miterlimit:10;}
	.st6{fill:none;stroke:#7D7E81;stroke-width:2;stroke-miterlimit:10;}
	.st7{fill:#B4C466;stroke:#0E1116;stroke-width:2;stroke-miterlimit:10;}
	.st8{fill:#7D7E81;stroke:#0E1116;stroke-width:2;stroke-miterlimit:10;}
</style>
<rect class="st0" width="120" height="120"/>
<g>
	<g>
		
			<rect x="51.8" y="60.7" transform="matrix(-1.836970e-16 1 -1 -1.836970e-16 149.3082 9.2295)" class="st1" width="36.5" height="37"/>
		<line class="st1" x1="100.1" y1="97.5" x2="38.8" y2="97.5"/>
	</g>
	<path class="st1" d="M27.5,67.9V25.8c0-3.9,3.1-7,7-7H105c3.9,0,7,3.1,7,7v42.1c0,3.9-3.1,7-7,7H34.5
		C30.6,74.9,27.5,71.8,27.5,67.9z"/>
	<path class="st2" d="M33.9,64.8V28.9c0-1.8,1.4-3.2,3.2-3.2h65.4c1.8,0,3.2,1.4,3.2,3.2v35.9c0,1.8-1.4,3.2-3.2,3.2H37.1
		C35.3,68,33.9,66.6,33.9,64.8z"/>
</g>
<g>
	<path class="st1" d="M9.8,93.8V50.1c0-2,1.7-3.7,3.7-3.7h24.9c2,0,3.7,1.7,3.7,3.7v43.7c0,2-1.7,3.7-3.7,3.7H13.4
		C11.4,97.5,9.8,95.8,9.8,93.8z"/>
	<circle class="st3" cx="25.9" cy="90.4" r="3"/>
	<path class="st2" d="M37.2,85.4h-23c-0.9,0-1.6-0.7-1.6-1.6V52.1c0-0.9,0.7-1.6,1.6-1.6h23c0.9,0,1.6,0.7,1.6,1.6v31.8
		C38.8,84.7,38.1,85.4,37.2,85.4z"/>
</g>
<circle class="st4" cx="16.5" cy="18" r="2.5"/>
<circle class="st4" cx="23.5" cy="24" r="1.5"/>
<circle class="st4" cx="24.5" cy="17" r="1.5"/>
<circle class="st4" cx="106.5" cy="87" r="5.5"/>
<circle class="st4" cx="112.5" cy="80" r="1.5"/>
<circle class="st4" cx="96.5" cy="88" r="1.5"/>
</svg>
