<svg width="161" height="43" viewBox="0 0 161 43" fill="none" xmlns="http://www.w3.org/2000/svg">
<path d="M12.1656 8.56257C13.9843 7.45109 15.8638 6.44065 17.6825 5.34938C18.2686 5.00584 18.693 4.94521 19.3194 5.32918C21.2393 6.52149 23.2197 7.59255 25.18 8.72424C25.4225 8.8657 25.6448 9.04757 25.9681 8.84548C27.221 8.11797 28.474 7.39046 29.828 6.60232C27.5444 5.28876 25.382 4.05603 23.2399 2.80309C21.8051 1.95433 20.249 1.28744 18.9557 0.196167H18.0059C17.9857 0.418463 17.7836 0.479094 17.6219 0.580137C15.3181 1.91391 12.9941 3.24768 10.6701 4.58146C9.53843 5.22813 8.40675 5.89502 7.15381 6.64274C8.38654 7.35005 9.47781 7.9361 10.5287 8.58277C11.0945 8.8859 11.5593 8.92633 12.1656 8.56257Z" fill="#495124"/>
<path d="M10.6904 33.3789C8.75036 32.2876 6.85075 31.1357 4.8905 30.0646C4.36508 29.7817 4.20341 29.4382 4.22362 28.8521C4.26404 26.6291 4.24383 24.4062 4.22362 22.163C4.22362 21.8397 4.34487 21.4557 3.92049 21.2334C2.58671 20.5666 1.41461 19.6167 0 19.0913V32.0855C3.73861 34.2074 7.47722 36.3495 11.3371 38.5523C11.3371 37.0972 11.3169 35.8443 11.3573 34.5712C11.3977 34.0053 11.2158 33.6618 10.6904 33.3789Z" fill="#495124"/>
<path d="M4.20352 17.1108C4.1631 16.2621 4.28435 15.3729 4.1631 14.5443C4.02164 13.4329 4.50665 12.8872 5.43625 12.4022C6.38606 11.897 7.4167 11.4726 8.28567 10.6643C7.07315 9.95696 5.92126 9.33049 4.80978 8.64339C4.36519 8.38068 4.02164 8.4009 3.59726 8.66361C2.42515 9.37092 1.23284 10.0176 0.0405273 10.6845V15.6558C1.29347 16.0398 2.3039 16.9088 3.4558 17.515C4.00143 17.8181 4.22373 17.8586 4.20352 17.1108Z" fill="#495124"/>
<path d="M17.7233 37.5014C16.8341 36.9356 15.8843 36.4708 14.9951 35.9251C14.3888 35.5412 14.3282 35.7635 14.3282 36.3293C14.3484 37.3802 14.3888 38.431 14.308 39.4819C14.2676 40.169 14.5505 40.5125 15.0961 40.8359C16.0662 41.4017 17.1372 41.8261 17.9658 42.6344H18.7337C19.825 42.008 20.9162 41.3613 22.0075 40.7348C22.2702 40.5731 22.5936 40.4721 22.5936 40.0679V35.6018C21.3608 36.2889 20.2696 36.8547 19.2389 37.5216C18.6933 37.8854 18.2689 37.845 17.7233 37.5014Z" fill="#495124"/>
<path d="M29.8887 19.0105C29.8483 17.8586 29.8483 16.7067 29.8887 15.5751C29.9089 15.0698 29.7473 14.7667 29.2825 14.5242C28.272 13.9786 27.2818 13.4127 26.3118 12.8065C25.8672 12.5235 25.5237 12.564 25.0791 12.8267C23.1592 13.9584 21.2192 15.0496 19.2994 16.1813C18.774 16.5047 18.3698 16.5451 17.8241 16.2015C16.5914 15.4336 15.2172 14.8273 14.0451 13.9584C12.2668 12.6246 10.6096 12.3012 8.85148 13.9382C8.58877 14.1807 8.20481 14.3221 7.84105 14.4838C7.39646 14.7061 7.19437 15.0294 7.21458 15.5346C7.255 16.6259 7.27521 17.697 7.21458 18.7882C7.17416 19.4551 7.39646 19.8391 7.98251 20.1422C9.88213 21.1931 11.7211 22.3248 13.6207 23.3554C14.1866 23.6585 14.3685 24.0223 14.3483 24.6488C14.3078 25.7602 14.328 26.8717 14.328 27.9832C14.328 28.8724 14.4089 29.7818 14.3078 30.6507C14.2068 31.6612 14.4897 32.3078 15.4799 32.7322C16.2883 33.0758 17.036 33.581 17.7837 34.066C18.2687 34.3691 18.6729 34.4096 19.1781 34.0862C20.1077 33.48 21.0979 32.9343 22.068 32.4291C22.5934 32.1462 22.7349 31.7824 22.7349 31.2166C22.6944 28.9936 22.7349 26.7505 22.7146 24.5275C22.7146 24.0021 22.8561 23.6787 23.3411 23.3958C25.3216 22.2843 27.2414 21.1122 29.2218 20.021C29.6866 19.7785 29.9089 19.536 29.8887 19.0105Z" fill="#495124"/>
<path d="M61.1311 15.5346C60.7472 14.0795 59.6357 13.3924 58.3423 12.766C60.3228 11.0482 60.8684 9.49215 60.0601 7.59253C59.2517 5.67271 57.5542 5.00583 55.6748 4.92499C53.1083 4.82395 50.5216 4.90478 47.9348 4.88457C47.47 4.88457 47.2275 4.98562 47.2275 5.51104C47.2477 10.6036 47.2477 15.6962 47.2275 20.7888C47.2275 21.2334 47.369 21.3951 47.8338 21.3951C50.5418 21.3749 53.2497 21.3951 55.9577 21.3749C56.7863 21.3749 57.5946 21.1526 58.3827 20.8899C60.6865 20.0815 61.7778 17.8788 61.1311 15.5346ZM51.431 8.01692C51.9766 8.05734 52.5222 8.01692 53.1487 8.01692C53.856 8.03713 54.6441 7.93608 55.4323 8.17858C56.2406 8.4413 56.7458 8.8859 56.7256 9.8155C56.7054 10.7451 56.1598 11.2099 55.3514 11.412C53.9975 11.7151 52.6233 11.5737 51.2693 11.5939C50.8045 11.5939 50.7843 11.2907 50.7843 10.9472C50.7843 10.1792 50.8045 9.41132 50.7843 8.6636C50.7439 8.15838 50.9459 7.9765 51.431 8.01692ZM55.8567 18.1415C55.1089 18.2021 54.341 18.1617 53.5731 18.1617H53.3912C50.4407 18.1617 50.4609 18.1617 50.7843 15.191C50.8247 14.7868 50.9661 14.6252 51.3703 14.6252C52.8253 14.6454 54.3006 14.5847 55.7556 14.6454C56.8267 14.6858 57.534 15.2718 57.6552 16.06C57.8169 17.2523 57.15 18.0404 55.8567 18.1415Z" fill="#495124"/>
<path d="M111.471 21.193C112.057 21.7992 113.269 21.3142 114.219 21.4153C114.805 21.4759 115.007 21.2738 114.987 20.6675C114.947 19.5156 114.967 18.384 114.967 17.2321V11.028C115.209 11.3109 115.311 11.412 115.391 11.5332C117.493 14.2816 119.696 16.9694 121.676 19.8188C122.586 21.1121 123.556 21.5365 125.071 21.4355C125.96 21.3749 126.102 21.1323 126.082 20.3442C126.041 16.0802 126.062 11.8161 126.062 7.55211C126.062 4.82393 126.062 4.84414 123.293 4.88456C122.666 4.88456 122.464 5.06644 122.485 5.6929C122.505 8.4615 122.505 11.2301 122.485 13.9987C122.485 14.2614 122.606 14.5645 122.363 14.7868C122.303 14.7464 122.222 14.7262 122.202 14.6858C120.221 12.0789 118.221 9.49214 116.24 6.86501C114.745 4.88455 114.765 4.90476 112.279 4.86435C111.451 4.84414 111.289 5.14727 111.309 5.89499C111.35 10.1388 111.329 14.3624 111.329 18.6063C111.329 19.5157 111.026 20.7282 111.471 21.193Z" fill="#495124"/>
<path d="M74.0042 21.2133C74.4892 21.7791 75.6209 21.3143 76.4696 21.4153C77.278 21.5164 77.3992 21.1324 77.379 20.4453C77.3386 17.6161 77.3588 14.7869 77.379 11.9375C77.379 11.6748 77.2376 11.3716 77.5811 11.1291C79.7435 13.9786 81.9866 16.7269 84.0075 19.6572C84.9775 21.0516 86.0486 21.6377 87.7057 21.4356C88.3726 21.3547 88.5342 21.1931 88.5342 20.5464C88.514 15.9388 88.514 11.311 88.514 6.70343C88.514 4.90485 88.514 4.90485 86.7155 4.90485C84.9573 4.90485 84.9573 4.90485 84.9573 6.72364V14.989C84.7148 14.7465 84.6138 14.6454 84.5127 14.5242C82.5929 11.9981 80.6326 9.47202 78.733 6.92572C77.2174 4.88464 77.2578 4.88464 74.7317 4.88464C73.984 4.88464 73.8425 5.14736 73.8425 5.83445C73.8627 10.1591 73.8627 14.504 73.8627 18.8286C73.8627 19.637 73.6 20.708 74.0042 21.2133Z" fill="#495124"/>
<path d="M157.951 21.476C160.396 21.476 160.376 21.476 160.396 19.0711C160.396 18.3638 160.214 18.1618 159.487 18.1618C157.042 18.2022 154.576 18.1618 152.131 18.2022C151.545 18.2022 151.323 18.0405 151.383 17.4545C151.424 16.828 151.424 16.1813 151.383 15.5548C151.343 14.9284 151.545 14.7263 152.192 14.7465C153.727 14.7869 155.243 14.7667 156.779 14.7667C159.285 14.7667 159.265 14.7667 159.224 12.2608C159.204 11.6343 159.002 11.5131 158.436 11.5333C156.941 11.5737 155.445 11.5535 153.95 11.5535C151.343 11.5535 151.363 11.5535 151.383 8.9668C151.383 8.2595 151.646 8.11804 152.272 8.13825C154.152 8.17866 156.031 8.15846 157.911 8.15846C160.295 8.15846 160.275 8.15846 160.235 5.7132C160.214 5.12715 160.053 4.94527 159.467 4.96548C155.829 4.98569 152.192 4.98569 148.574 4.96548C147.948 4.96548 147.746 5.14736 147.746 5.77383C147.766 8.2595 147.766 10.7452 147.766 13.2308C147.766 15.6761 147.786 18.1415 147.746 20.5868C147.725 21.3143 147.907 21.577 148.695 21.5568C151.767 21.4356 154.859 21.476 157.951 21.476Z" fill="#495124"/>
<path d="M102.539 6.96604C101.529 4.64204 101.508 4.66225 98.8812 4.70267C98.3962 4.72287 98.1335 4.84413 97.9516 5.30893C97.5677 6.31936 97.1231 7.30958 96.6987 8.29981C94.9608 12.4224 93.2026 16.5652 91.4444 20.6877C91.2221 21.193 91.2019 21.4355 91.8688 21.4153C92.657 21.3748 93.4653 21.3748 94.2534 21.4153C94.7182 21.4355 94.9203 21.2334 95.082 20.8292C95.3851 20.0006 95.7691 19.1923 96.0722 18.3435C96.2541 17.8383 96.537 17.6766 97.0625 17.6969C98.8812 17.7373 100.7 17.7373 102.519 17.6969C103.125 17.6766 103.448 17.8585 103.65 18.4446C103.933 19.2529 104.317 20.0209 104.621 20.8292C104.782 21.2334 104.964 21.4557 105.449 21.4355C106.459 21.395 107.49 21.4153 108.622 21.4153C108.561 21.193 108.521 21.0515 108.48 20.9505C106.5 16.2822 104.519 11.614 102.539 6.96604ZM101.428 14.4635C100.356 14.4635 99.2652 14.4635 98.1941 14.4635C97.7698 14.4635 97.7091 14.2816 97.8708 13.938C98.4973 12.4224 99.1237 10.9067 99.8513 9.14857C100.579 10.9067 101.225 12.483 101.872 14.0593C102.014 14.4635 101.69 14.4635 101.428 14.4635Z" fill="#495124"/>
<path d="M141.4 17.3332C139.299 18.8084 136.489 18.667 134.812 16.9897C133.074 15.2517 132.852 11.9779 134.347 9.93683C135.782 7.97659 138.308 7.47138 140.693 8.60306C141.36 8.90619 141.825 9.91663 142.572 9.57308C143.219 9.24974 143.583 8.38076 144.169 7.83513C144.815 7.24908 144.533 6.90553 144.007 6.50135C142.633 5.47071 141.097 4.88466 139.379 4.66236C134.165 3.95506 129.598 7.87555 129.578 13.5542C129.639 16.5451 131.053 19.253 134.125 20.7687C137.278 22.3248 140.471 22.1429 143.421 20.0412C144.997 18.9095 144.977 18.8893 143.623 17.5353C142.572 16.5249 142.572 16.5249 141.4 17.3332Z" fill="#495124"/>
<path d="M37.0628 25.6188C37.0628 23.6787 37.0426 21.7387 37.0628 19.7987C37.0628 19.1924 36.9416 19.0509 36.3757 19.3945C35.4057 20.0007 34.3953 20.5666 33.3848 21.092C32.9402 21.3345 32.8796 21.6579 32.8796 22.1024C32.8998 24.3254 32.8594 26.5686 32.8998 28.7915C32.92 29.418 32.6977 29.7817 32.1723 30.0849C30.3131 31.1357 28.4943 32.227 26.6149 33.2576C25.9278 33.6416 25.5641 34.0458 25.6449 34.8743C25.7257 35.7837 25.7055 36.7133 25.6449 37.6429C25.6045 38.4917 25.847 38.5523 26.5341 38.1684C29.8079 36.2687 33.0817 34.3691 36.3757 32.4897C36.9011 32.1866 37.0628 31.843 37.0426 31.257C37.0628 29.3776 37.0628 27.4982 37.0628 25.6188Z" fill="#495124"/>
<path d="M68.1638 27.3163C68.1638 27.1142 68.2447 26.8717 68.0022 26.71C67.5576 26.4069 66.0015 26.7302 65.6984 27.195C64.789 28.5894 63.8796 29.9636 63.0106 31.3782C62.7075 31.8834 62.4852 31.9036 62.1821 31.3984C61.4141 30.1859 60.5452 29.034 59.8985 27.7608C59.3731 26.7706 58.6658 26.5483 57.6755 26.6292C57.1905 26.6696 57.0086 26.7908 57.0288 27.296C57.0491 30.6709 57.0288 34.0457 57.0491 37.4206C57.0491 37.6227 56.9884 37.8652 57.2511 38.0067C58.0595 38.431 58.9689 37.9056 58.9689 37.0164C58.9689 34.7531 58.9689 32.4695 58.9689 30.2061C59.0295 30.1859 59.0901 30.1657 59.1508 30.1657C60.2824 31.8228 61.3939 33.5001 62.566 35.2381C63.7381 33.5001 64.8496 31.8632 65.9409 30.2465C66.0217 30.2667 66.1026 30.2869 66.1834 30.3274V31.2569C66.1834 33.298 66.2238 35.3391 66.1632 37.3802C66.143 38.2694 66.7088 38.0471 67.1736 38.0471C67.6384 38.0471 68.184 38.2492 68.184 37.3802C68.1436 34.0053 68.1638 30.6507 68.1638 27.3163Z" fill="#495124"/>
<path d="M160.477 36.9962C160.498 33.884 160.457 30.7517 160.518 27.6395C160.538 26.8312 160.255 26.6493 159.487 26.6291C158.659 26.6089 158.436 26.912 158.497 27.68C158.558 28.3064 158.517 28.9531 158.517 29.5796V34.1063C158.436 34.1265 158.376 34.1467 158.295 34.1872C157.749 33.4596 157.183 32.7523 156.638 32.0248C155.365 30.3879 154.091 28.7712 152.839 27.1141C152.293 26.3866 151.545 26.6089 150.919 26.6897C150.272 26.7706 150.616 27.4375 150.616 27.8012C150.595 30.9538 150.636 34.1063 150.575 37.2589C150.555 38.047 150.939 38.0672 151.505 38.0268C152.01 37.9864 152.677 38.2895 152.657 37.2791C152.596 35.2178 152.636 33.1363 152.657 31.075C152.657 30.8123 152.515 30.5092 152.839 30.2869C152.94 30.4081 153.061 30.5294 153.142 30.6506C154.94 32.9544 156.739 35.2582 158.517 37.6024C159.022 38.2693 159.669 38.0672 160.255 37.9864C160.7 37.9056 160.477 37.3397 160.477 36.9962Z" fill="#495124"/>
<path d="M90.7368 33.3384C91.0601 33.2373 91.3633 32.9948 91.5856 32.7523C92.6566 31.6611 92.8587 30.3475 92.3939 28.9733C91.8483 27.3364 90.4943 26.7301 88.8978 26.6493C87.3417 26.5887 85.7857 26.6695 84.2094 26.6089C83.5021 26.5887 83.2798 26.7908 83.2798 27.5183C83.3202 30.691 83.3202 33.884 83.2798 37.0568C83.2798 37.7843 83.4617 38.0066 84.2296 38.047C85.1188 38.0672 85.4219 37.7843 85.3007 36.9355C85.2602 36.592 85.3007 36.2282 85.3007 35.8847C85.3007 33.9447 85.3007 33.9649 87.2205 34.0053C87.6651 34.0255 87.9278 34.1669 88.1501 34.5105C88.5947 35.1774 89.1807 35.7634 89.5041 36.4707C90.1709 37.9055 91.2622 38.2289 92.6768 37.9864C92.7172 37.9864 92.7375 37.9662 92.8991 37.9258C92.0504 36.7334 91.2824 35.6018 90.4539 34.5307C90.0699 33.9851 89.8678 33.6213 90.7368 33.3384ZM89.8476 31.8227C88.4936 32.6513 86.9982 32.1865 85.5634 32.2471C85.2804 32.2673 85.3209 31.9238 85.3209 31.7217C85.3209 31.2771 85.3209 30.8325 85.3209 30.3879C85.3209 28.4681 85.3209 28.4681 87.2609 28.4681C88.0086 28.4681 88.7968 28.3873 89.5243 28.6904C90.1305 28.9531 90.4741 29.3977 90.5347 30.0646C90.5751 30.7517 90.4943 31.4186 89.8476 31.8227Z" fill="#495124"/>
<path d="M68.7297 5.0665C68.1639 4.52087 67.0322 4.98567 66.143 4.88463C65.3953 4.80379 65.2538 5.10692 65.2538 5.79402C65.274 10.0581 65.2538 14.3221 65.274 18.5861C65.274 19.4955 64.8698 20.6878 65.4559 21.2335C66.0419 21.7589 67.214 21.3143 68.1234 21.3951C68.7499 21.4558 68.9318 21.2132 68.9318 20.607C68.8914 18.1213 68.9116 15.6356 68.9116 13.1702C68.9116 11.3312 68.9318 9.472 68.8914 7.63301C68.8914 6.76403 69.3157 5.61214 68.7297 5.0665Z" fill="#495124"/>
<path d="M130.649 32.3482C130.649 30.6911 130.609 29.034 130.669 27.3769C130.689 26.5483 130.184 26.6292 129.679 26.6494C129.174 26.6696 128.547 26.4473 128.588 27.3769C128.648 28.4277 128.567 29.4786 128.608 30.5295C128.628 31.1761 128.386 31.3378 127.779 31.3378C126.506 31.2974 125.233 31.2974 123.96 31.3378C123.394 31.358 123.172 31.1761 123.192 30.5901C123.232 29.4988 123.172 28.4277 123.212 27.3365C123.253 26.4675 122.646 26.6696 122.182 26.6696C121.717 26.6696 121.131 26.4675 121.151 27.3365C121.171 30.6911 121.191 34.0256 121.151 37.3802C121.151 38.2694 121.737 38.0269 122.182 38.0269C122.626 38.0269 123.253 38.2896 123.212 37.3802C123.172 36.2687 123.232 35.1572 123.192 34.0458C123.152 33.3587 123.414 33.1768 124.061 33.197C125.294 33.2374 126.547 33.2374 127.8 33.197C128.406 33.1768 128.648 33.3587 128.628 34.0053C128.588 35.1168 128.648 36.2283 128.608 37.36C128.567 38.33 129.234 38.0269 129.699 38.0471C130.184 38.0673 130.71 38.1885 130.689 37.3398C130.609 35.6625 130.649 34.0054 130.649 32.3482Z" fill="#495124"/>
<path d="M76.9548 27.195C76.7527 26.71 76.4698 26.5686 75.9443 26.5484C75.1562 26.5079 74.6106 26.6494 74.3681 27.5184C74.2266 28.0438 73.9437 28.5086 73.7214 29.0138C72.428 31.9845 71.1347 34.935 69.8413 37.9259C71.7813 38.229 71.7813 38.229 72.4482 36.6325C72.5493 36.39 72.6503 36.1677 72.7311 35.9252C72.8726 35.4604 73.1555 35.2987 73.6405 35.2987C74.8126 35.3391 76.005 35.3796 77.1771 35.2785C78.1269 35.1977 78.5715 35.521 78.915 36.4102C79.5617 38.1482 79.6223 38.1279 81.5623 37.9461C81.5421 37.8248 81.5624 37.6833 81.5017 37.5823C79.9861 34.1266 78.4502 30.6709 76.9548 27.195ZM74.3074 33.5001C73.8628 33.5001 73.8426 33.2981 73.9841 32.9545C74.5297 31.6814 75.0754 30.388 75.7018 28.8926C76.4091 30.5497 76.9952 31.9643 77.6621 33.4799C76.4496 33.5002 75.3785 33.4799 74.3074 33.5001Z" fill="#495124"/>
<path d="M139.319 27.0132C139.076 26.4271 138.612 26.5888 138.187 26.5888C137.722 26.5686 137.258 26.4878 136.995 27.094C136.247 28.8926 135.439 30.6507 134.651 32.4291C133.863 34.2479 133.074 36.0869 132.266 37.9461C134.166 38.1886 134.166 38.1886 134.833 36.6527C134.934 36.4102 135.075 36.2081 135.136 35.9656C135.277 35.4402 135.601 35.2987 136.126 35.3189C137.278 35.3594 138.43 35.42 139.561 35.2987C140.572 35.1977 141.016 35.5817 141.36 36.4911C142.007 38.1684 142.067 38.1482 143.947 37.9865C143.927 37.8652 143.927 37.7238 143.886 37.6227C142.391 34.0862 140.835 30.5497 139.319 27.0132ZM139.541 33.5002C138.47 33.48 137.399 33.5002 136.187 33.5002C136.853 31.9643 137.44 30.5699 138.147 28.9532C138.773 30.4284 139.339 31.7218 139.905 33.0152C140.046 33.3587 139.945 33.5002 139.541 33.5002Z" fill="#495124"/>
<path d="M52.6438 31.8227C51.6536 31.459 50.6229 31.2367 49.6327 30.8931C48.9658 30.6506 48.4404 30.2262 48.602 29.3977C48.7637 28.6095 49.37 28.3468 50.0773 28.2862C51.1685 28.1649 52.1588 28.5085 53.0682 29.0743C53.9371 29.6402 53.9169 28.65 54.2605 28.367C54.6849 28.0235 54.4424 27.7406 54.0584 27.4779C53.0075 26.811 51.8759 26.4674 50.6229 26.5078C50.441 26.5078 50.2389 26.5078 50.0571 26.5078C48.1574 26.5685 46.8843 27.6597 46.6216 29.4381C46.3791 31.0144 47.2076 32.1663 49.0668 32.7927C49.9762 33.0959 50.9058 33.298 51.8152 33.6011C52.5225 33.8436 53.0682 34.268 52.9065 35.1572C52.765 36.0059 52.1184 36.2686 51.3908 36.3495C50.0166 36.5111 48.8445 36.0463 47.7331 35.2582C46.9247 34.6721 46.8641 35.6826 46.4801 35.9655C46.0962 36.2282 46.2578 36.5111 46.6216 36.7536C47.8139 37.6024 49.1275 38.1278 50.6027 38.1885C51.9567 38.2491 53.2298 37.9662 54.1796 36.9355C55.7559 35.1774 55.0284 32.7119 52.6438 31.8227Z" fill="#495124"/>
<path d="M117.271 35.5614C115.856 36.6123 113.876 36.6325 112.663 35.6422C110.865 34.167 110.542 31.5399 111.916 29.7413C113.229 28.0236 115.452 27.7608 117.433 29.2361C118.403 29.9636 118.544 28.9734 118.969 28.6298C119.555 28.1448 118.969 27.8417 118.645 27.6194C116.624 26.225 114.422 26.0229 112.219 27.0535C110.016 28.0842 109.066 30.004 109.026 32.3886C109.046 32.6109 109.046 32.8332 109.087 33.0353C109.349 35.3593 110.582 37.0164 112.785 37.8248C115.028 38.6331 117.109 38.2694 118.928 36.6729C119.11 36.5112 119.454 36.39 119.231 35.9858C118.645 35.0764 118.12 34.9349 117.271 35.5614Z" fill="#495124"/>
<path d="M37.0828 11.2908C37.103 10.9472 37.002 10.6845 36.6786 10.5026C35.4055 9.79533 34.1525 8.64343 32.839 8.52218C31.7881 8.42114 30.6362 9.63366 29.5247 10.2197C28.7164 10.6441 28.9387 10.9068 29.5652 11.2301C30.4543 11.7152 31.3233 12.2406 32.2327 12.7256C32.6773 12.9681 32.8592 13.2712 32.839 13.7966C32.7986 14.8677 32.8592 15.959 32.8188 17.0502C32.7986 17.7171 32.94 17.9596 33.6069 17.5555C34.1121 17.2321 34.6173 16.8684 35.1832 16.6461C36.7595 15.9994 37.6486 15.0294 37.1232 13.5137C37.0626 12.5639 37.0626 11.9375 37.0828 11.2908Z" fill="#495124"/>
<path d="M102.539 26.6494C99.8312 26.6494 97.1232 26.6696 94.4152 26.6494C93.6675 26.6494 93.8292 27.1546 93.8292 27.579C93.8292 28.0236 93.7079 28.5086 94.4557 28.4884C95.1225 28.448 95.8096 28.549 96.4563 28.4682C97.3455 28.3672 97.5274 28.7309 97.487 29.5393C97.4263 30.772 97.4667 32.0249 97.4667 33.2577C97.4667 34.5308 97.5274 35.8039 97.4465 37.0771C97.4061 37.9057 97.7093 38.0875 98.4772 38.0673C99.1845 38.0471 99.5482 38.0067 99.528 37.1175C99.4674 34.5712 99.5482 32.0249 99.4876 29.4786C99.4674 28.5894 99.7503 28.3671 100.559 28.448C101.185 28.5086 101.832 28.4278 102.458 28.4682C103.085 28.5086 103.145 28.1449 103.085 27.6801C103.044 27.2759 103.388 26.6494 102.539 26.6494Z" fill="#495124"/>
<path d="M146.877 26.6494C146.392 26.6494 145.846 26.4877 145.846 27.3365C145.887 30.6709 145.887 34.0053 145.846 37.3398C145.826 38.2088 146.372 38.0269 146.857 38.0269C147.321 38.0067 147.908 38.2694 147.887 37.36C147.847 35.7029 147.867 34.066 147.867 32.4089C147.867 30.7315 147.827 29.034 147.887 27.3567C147.887 26.5079 147.362 26.6292 146.877 26.6494Z" fill="#495124"/>
<path d="M26.2307 30.0647C27.3018 29.4382 28.3728 28.8118 29.4439 28.2055C29.7672 28.0236 29.8683 27.8013 29.8683 27.4376C29.8481 26.0836 29.8683 24.7094 29.8683 23.1533C28.4941 23.9415 27.2613 24.669 26.0286 25.3763C25.7861 25.5177 25.6851 25.74 25.6851 26.0027C25.6851 27.2355 25.6851 28.4884 25.6851 29.7211C25.6851 30.1253 25.7861 30.3274 26.2307 30.0647Z" fill="#495124"/>
<path d="M18.0261 8.58274C16.9753 9.189 15.9446 9.81547 14.8938 10.4015C14.4694 10.644 14.4896 10.8259 14.8938 11.0482C15.9648 11.6747 17.0359 12.3011 18.1069 12.9276C18.3697 13.0893 18.6324 13.0893 18.9153 12.9276C20.1076 12.2203 21.3201 11.513 22.6943 10.7249C21.3403 9.95694 20.1278 9.26984 18.9355 8.56253C18.592 8.36045 18.3292 8.42107 18.0261 8.58274Z" fill="#495124"/>
<path d="M7.7805 28.2862C8.77072 28.8521 9.78116 29.3775 10.7512 29.9838C11.3372 30.3475 11.3776 30.0646 11.3574 29.5796C11.3372 29.0137 11.3574 28.4277 11.3574 27.8618C11.3574 27.2556 11.3574 26.6493 11.3574 26.0633C11.3574 25.7197 11.2968 25.457 10.9533 25.2751C9.90241 24.6891 8.85156 24.103 7.82091 23.4968C7.33591 23.2138 7.23486 23.3755 7.23486 23.8605C7.25507 25.0326 7.25507 26.2047 7.23486 27.3768C7.23486 27.8416 7.41674 28.0841 7.7805 28.2862Z" fill="#495124"/>
</svg>
