<svg width="204" height="59" viewBox="0 0 204 59" fill="none" xmlns="http://www.w3.org/2000/svg">
<path d="M203.309 28.4857C203.131 28.0541 203.207 27.5717 203.106 27.1401C202.979 26.5308 202.852 25.9469 202.141 25.7692C202.116 25.6422 202.065 25.5153 202.039 25.3884C201.049 24.2205 199.881 23.2811 198.511 22.5702C197.952 22.0878 197.317 21.8086 196.581 21.7578C195.54 21.6816 194.474 21.6816 193.433 21.7578C191.376 22.1386 189.625 23.078 188.228 24.6775C187.873 25.0583 187.568 25.4899 187.289 25.9215C186.527 27.3178 186.172 28.8157 186.273 30.4152C186.426 30.9737 186.35 31.6339 186.933 31.9893C186.959 32.0655 186.984 32.1416 187.01 32.2178C186.806 33.3095 187.568 34.0203 188.127 34.8074C188.355 35.0105 188.558 35.239 188.888 35.2644C189.015 35.3659 189.142 35.4421 189.269 35.5437C189.523 35.823 189.777 36.1022 190.005 36.3815C190.386 36.8131 190.869 37.0415 191.376 37.27C192.976 38.0317 194.677 37.9302 196.353 37.8794C196.809 37.8286 197.266 37.6763 197.698 37.5493C199.018 37.0924 200.262 36.5338 201.202 35.4675C202.141 34.4774 203.106 33.5126 203.08 31.9893C203.182 31.1515 203.258 30.2883 203.36 29.4505C203.36 29.095 203.334 28.7904 203.309 28.4857ZM199.856 30.9991C199.678 31.8877 199.221 32.624 198.612 33.2841C198.104 33.7919 197.47 34.1219 196.911 34.5789C195.743 35.0105 194.525 35.0613 193.433 34.8074C193.23 34.7312 193.052 34.6551 192.849 34.5535C192.671 34.0711 192.189 33.9188 191.859 33.6396C191.021 32.9541 190.335 32.1924 190.082 31.1007C189.65 28.2318 190.462 26.5816 192.874 25.3122C194.296 24.6267 195.794 25.1091 197.241 25.0583C197.266 25.0329 197.317 25.0329 197.343 25.0075C197.495 25.1345 197.622 25.236 197.774 25.3629C197.876 25.4137 197.952 25.4645 198.054 25.5406C198.206 25.5914 198.333 25.6422 198.485 25.6676C198.739 25.9469 198.993 26.2007 199.247 26.48C199.323 26.5562 199.374 26.6324 199.475 26.7085C199.475 26.7085 199.475 26.7085 199.501 26.7085C199.298 27.0894 199.475 27.4448 199.602 27.8002C200.008 28.8412 200.059 29.9074 199.856 30.9991Z" fill="#495124"/>
<path d="M2.74123 28.2318C2.00497 27.7494 1.31949 27.9779 0.684784 28.4349C0.4309 28.9426 0.278546 29.4758 0.405487 30.0597C1.54796 31.3037 2.18269 31.3037 3.37594 30.1105C3.45211 29.3996 3.42672 28.6887 2.74123 28.2318Z" fill="#495124"/>
<path d="M33.2072 3.70666C33.9434 3.50355 34.4766 3.02116 34.6035 2.23412C34.8066 1.14243 34.1719 0.507767 33.3087 0C31.3538 0.0253883 30.7953 0.583882 30.8206 2.48801C31.3538 3.35121 32.0647 3.98593 33.2072 3.70666Z" fill="#495124"/>
<path d="M15.8418 55.2958C15.8164 55.4735 15.8164 55.6258 15.791 55.8036C16.0703 56.7429 16.6288 57.3777 17.6697 57.1746C18.8376 56.9461 18.9646 56.0574 18.8376 55.0419C17.619 53.8233 16.8319 53.8994 15.8418 55.2958Z" fill="#495124"/>
<path d="M31.9885 55.1943C30.7952 55.6766 30.5921 56.6414 30.8714 57.7839C30.9222 57.8854 30.973 57.987 31.0237 58.0632C31.76 58.7233 32.547 59.104 33.5372 58.5963C34.4511 58.1139 34.6288 57.2761 34.5527 56.3367C33.9688 55.3974 33.2071 54.7373 31.9885 55.1943Z" fill="#495124"/>
<path d="M46.7646 55.2957C46.8916 56.6159 47.4501 57.2253 48.4403 57.1237C49.6843 56.9968 49.9382 56.1335 49.8112 55.0418C48.618 53.747 47.704 53.8232 46.7646 55.2957Z" fill="#495124"/>
<path d="M10.4845 27.1656C8.12343 27.3179 7.28561 28.4857 7.9711 30.6691C8.4027 30.9992 8.80891 31.3293 9.24051 31.6593C10.0783 31.6085 11.0177 31.9385 11.5508 30.923C11.627 30.8468 11.7032 30.7707 11.7793 30.6945C12.1348 30.6945 12.0332 30.2883 12.2871 30.1614C12.3379 30.1106 12.3887 30.0598 12.4394 30.0344C12.6425 29.6536 12.6172 29.2728 12.541 28.8919C12.1348 27.9526 11.7032 27.0894 10.4845 27.1656Z" fill="#495124"/>
<path d="M16.5273 4.46841C17.2381 4.84923 17.9236 4.7477 18.4568 4.11299C18.9646 3.52906 18.9646 2.86895 18.5076 2.25963C17.9998 1.59954 17.3143 1.52335 16.5781 1.8534C16.2988 1.98034 16.0703 2.28502 15.8418 2.51352C15.8418 2.94512 15.8164 3.35133 15.8164 3.78293C16.0449 4.01143 16.248 4.31608 16.5273 4.46841Z" fill="#495124"/>
<path d="M48.0848 4.59531C49.1004 4.56993 49.6589 4.06217 49.6843 3.14819C49.7097 2.23421 49.1257 1.62489 48.2118 1.62489C47.2978 1.5995 46.6885 2.13265 46.6631 3.07201C46.6631 4.03677 47.2216 4.51915 48.0848 4.59531Z" fill="#495124"/>
<path d="M9.21541 41.5099C8.32681 41.1037 7.53976 41.3576 6.98122 42.1192C6.44806 42.8301 6.42268 43.6171 6.98122 44.3534C7.53976 45.0897 8.32681 45.3689 9.21541 44.9881C9.54545 44.8358 9.8501 44.5819 10.1548 44.3534C10.5102 43.6171 10.5102 42.8809 10.1548 42.1446C9.8501 41.9161 9.54545 41.6623 9.21541 41.5099Z" fill="#495124"/>
<path d="M8.1235 17.5432C9.41831 17.7464 10.053 16.9847 10.4592 15.9184C10.6116 15.7915 10.6116 15.6645 10.4592 15.5376C10.3577 15.2837 10.2815 15.0044 10.18 14.7505C8.85976 13.5319 8.04734 13.5319 6.72714 14.7505C6.34632 16.35 6.8287 17.3401 8.1235 17.5432Z" fill="#495124"/>
<path d="M22.4171 46.6891C21.1985 46.5113 20.0306 46.5113 19.3959 47.8061C18.812 48.974 19.269 49.9134 20.1068 50.7258C20.2084 50.7766 20.3099 50.8528 20.4115 50.9035C21.4016 51.1828 22.3156 51.0558 23.1534 50.4211C24.1689 49.9641 24.0674 49.0756 23.9404 48.2631C23.7881 47.4507 23.4073 46.7398 22.4171 46.6891Z" fill="#495124"/>
<path d="M42.525 46.7907C41.484 47.6793 41.3571 48.9995 42.1949 49.9642C43.5405 51.2083 44.7845 51.3352 45.8001 50.3705C46.7648 49.4565 46.7394 48.314 45.6985 46.9431C44.8353 45.9529 43.5913 45.8767 42.525 46.7907Z" fill="#495124"/>
<path d="M20.3861 12.1864C21.7063 12.9735 22.7473 12.6688 23.2804 11.2979C23.255 11.2725 23.2296 11.2471 23.2042 11.2217H23.2296C23.2296 11.1963 23.2296 11.1963 23.2296 11.1709C23.255 11.1963 23.2804 11.1963 23.3058 11.2217C23.8897 10.917 23.9913 10.46 23.6866 9.90149C23.5089 8.96212 22.925 8.35277 22.1379 7.89578C19.726 7.79422 18.9898 8.53052 19.1167 10.917C19.4722 11.3994 19.853 11.8564 20.3861 12.1864Z" fill="#495124"/>
<path d="M33.7151 14.903C34.8068 14.6491 35.4923 13.8367 35.6446 12.6942C35.7716 11.6533 35.7208 10.6631 34.5783 10.1554C33.5374 9.46989 32.4457 9.41912 31.3032 9.90149C30.9732 10.2569 30.6431 10.6124 30.3131 10.9678C29.8561 12.1357 30.0846 13.1766 30.8462 14.1413C31.5317 15.3092 32.6742 15.1569 33.7151 14.903Z" fill="#495124"/>
<path d="M43.0072 11.9579C43.8705 12.3895 44.7844 12.4658 45.5461 11.6787C45.673 11.6279 45.8253 11.5771 45.9523 11.5264C46.4854 11.1963 46.8409 10.7647 46.5108 10.1046C46.4347 9.29216 46.0538 8.63206 45.4699 8.07352C43.7435 7.4642 43.058 7.64192 41.9409 9.08905C41.7886 10.2569 41.814 11.374 43.0072 11.9579Z" fill="#495124"/>
<path d="M16.0446 23.078C17.5679 24.3982 19.5228 23.7889 20.1321 21.8086C20.3098 20.5392 20.2336 19.3205 18.9642 18.5843C17.7456 17.8734 16.6031 18.1781 15.5622 18.9651C15.3337 19.3967 15.0798 19.8537 14.8513 20.2853C14.7751 21.4278 15.156 22.3417 16.0446 23.078Z" fill="#495124"/>
<path d="M18.7613 40.5198C20.0561 39.9359 20.64 39.1235 20.5638 37.9556C20.4877 36.7877 19.8022 35.9499 18.5582 35.5183C17.1364 35.2644 15.9432 35.5945 15.1054 36.8639C14.6484 38.4126 15.0546 39.6312 16.4002 40.5452C17.1872 40.6975 17.9742 40.7229 18.7613 40.5198Z" fill="#495124"/>
<path d="M33.6641 43.9218C32.674 43.6679 31.6838 43.6933 30.8206 44.3534C30.4398 44.7088 30.0082 45.0643 30.059 45.6736C29.8051 46.943 30.0844 48.0601 31.1253 48.9233C33.7657 49.8627 35.3651 48.7456 35.3144 45.9782C35.289 44.8612 34.705 44.1757 33.6641 43.9218Z" fill="#495124"/>
<path d="M179.774 22.0878C179.52 24.779 179.19 27.4701 179.368 30.1866C179.317 30.7452 179.419 31.2783 179.47 31.8115C179.266 31.3799 178.86 31.0245 178.632 30.6182C178.352 30.2628 178.048 29.9074 177.819 29.5265C176.804 28.2571 175.89 26.9115 174.849 25.6675C174.113 24.6774 173.351 23.6872 172.64 22.6971C171.625 21.5546 170.584 21.3769 169.111 22.0878C168.933 22.1386 168.908 22.2655 168.883 22.4178C168.654 22.8748 168.73 23.408 168.73 23.9157C168.73 24.4489 168.73 24.9567 168.73 25.4898C168.451 25.8706 168.451 26.3276 168.426 26.7846C168.426 28.0033 168.375 29.2219 168.451 30.4405C168.4 31.1514 168.4 31.8623 168.426 32.5731C168.476 33.4871 168.197 34.4519 168.68 35.3151C168.68 35.899 168.705 36.4576 168.832 37.0415C168.857 37.0923 168.883 37.1431 168.908 37.1684C168.933 37.27 168.984 37.3462 169.06 37.4477C169.213 37.4731 169.39 37.5239 169.543 37.5239C171.726 37.6 171.726 37.6 171.878 35.5182C171.878 33.8172 171.878 32.1416 171.878 30.4405C172.412 29.5773 172.209 28.6887 172.132 27.7748C172.31 28.1302 172.615 28.4349 172.792 28.7903C173.123 29.3488 173.579 29.7805 174.163 30.0851C175.763 32.1162 177.362 34.1726 178.962 36.2037C179.723 37.4223 180.764 37.8286 182.11 37.4985C182.592 37.3716 182.567 37.0669 182.567 36.7369C182.542 32.9286 182.516 29.1457 182.516 25.3375C182.542 25.1343 182.567 24.9313 182.567 24.7282C182.643 21.9101 182.643 21.8847 179.774 22.0878ZM169.822 30.2882C169.771 30.3136 169.72 30.3136 169.67 30.339C169.746 30.3136 169.771 30.2882 169.822 30.2882ZM179.495 32.7255C179.495 32.7255 179.47 32.7001 179.495 32.7255V32.7255ZM179.47 32.7001C179.47 32.6747 179.47 32.6747 179.47 32.6747C179.495 32.7001 179.495 32.7001 179.47 32.7001ZM182.288 25.3883C182.288 25.3629 182.288 25.3628 182.288 25.3375C182.313 25.3375 182.364 25.3375 182.389 25.3375C182.364 25.3628 182.313 25.3629 182.288 25.3883Z" fill="#495124"/>
<path d="M20.6399 33.5126C22.1632 33.9188 23.6865 34.1219 25.032 33.0048C25.2605 32.9033 25.4891 32.7763 25.6922 32.6748C26.7839 32.2686 26.8854 31.2022 27.2662 30.3136C27.5709 28.1556 26.7585 26.5308 24.9559 25.3629C23.5088 24.7028 22.087 24.2966 20.6399 25.3629C19.8275 25.9722 18.8627 26.4546 18.558 27.5463C17.8725 28.4095 18.1264 29.4504 18.0757 30.4152C18.558 31.7608 19.3705 32.8017 20.6399 33.5126ZM25.7683 30.3644C25.7683 30.3644 25.7937 30.3644 25.7937 30.3898C25.7683 30.4152 25.7429 30.4406 25.7176 30.466C25.7176 30.466 25.7176 30.466 25.6922 30.466C25.7176 30.4152 25.7429 30.3898 25.7683 30.3644Z" fill="#495124"/>
<path d="M56.4628 13.7097C56.0312 14.0651 55.4219 14.2174 55.3457 14.9029C55.3711 14.9283 55.3965 14.9537 55.4219 14.9537L55.3457 14.9029C55.041 15.2076 55.2187 15.6138 55.1172 15.9692C55.3965 16.3754 55.6504 16.7816 55.9296 17.1879C56.4882 17.6702 57.0467 18.1272 57.7322 17.391C57.656 17.3402 57.6052 17.2894 57.5291 17.2386C57.6052 17.2386 57.6814 17.264 57.7576 17.264C58.113 17.264 58.3415 17.0863 58.4685 16.7816V16.7563C58.5192 16.7817 58.5954 16.7816 58.7223 16.7816C59.4586 16.2739 59.3571 15.6392 58.9509 14.9791C58.3923 13.9889 57.5799 13.5573 56.4628 13.7097Z" fill="#495124"/>
<path d="M57.9353 41.3321C57.5545 41.3321 57.1737 41.256 56.7928 41.3068C55.7773 41.4591 55.2187 42.1192 55.1934 43.1093C55.1934 44.0487 55.7011 44.7088 56.6659 44.8865C57.0721 44.9627 57.5037 44.8865 57.9099 44.8865C59.4332 43.6425 59.4332 42.6015 57.9353 41.3321Z" fill="#495124"/>
<path d="M31.7853 40.0374C32.877 38.641 32.4454 37.2193 31.8361 35.8229C31.4806 35.112 30.9475 34.6043 30.2874 34.1726C28.8657 33.411 27.4693 32.8524 25.9714 33.9695C25.0574 34.4773 24.2704 35.1374 23.6611 36.0006C22.4932 37.2954 22.4932 38.9457 23.6611 40.2913C24.2704 41.1545 25.0828 41.8145 25.9968 42.2969C27.6216 42.7539 29.1195 42.5254 30.5159 41.586C30.9729 41.0783 31.3791 40.5705 31.7853 40.0374Z" fill="#495124"/>
<path d="M41.941 36.026C41.7633 35.239 41.2555 34.6804 40.6208 34.2234C39.2245 33.2587 37.7266 33.1826 36.1779 33.7665C35.137 34.1727 34.2991 34.8328 33.766 35.8229C33.1821 37.2447 32.7759 38.6918 33.8422 40.0882C34.4769 41.1037 35.3401 41.84 36.4064 42.3731C37.8027 42.7285 39.1483 42.5509 40.4431 41.8908C40.9509 41.3576 41.4333 40.8498 41.941 40.3166C42.5504 38.8441 42.5758 37.4478 41.941 36.026Z" fill="#495124"/>
<path d="M49.2273 35.5437C49.0496 35.5183 48.8972 35.4929 48.7195 35.4675C47.5517 35.2137 46.5361 35.4675 45.8252 36.4831C45.2159 37.3463 45.1398 38.2857 45.6221 39.225C46.2061 40.3167 47.1454 40.7229 48.3387 40.6214C48.5418 40.596 48.7449 40.596 48.9734 40.5706C51.2076 39.0219 51.2837 37.2701 49.2273 35.5437Z" fill="#495124"/>
<path d="M23.7374 23.0526C23.8897 23.3065 23.9659 23.7127 24.4229 23.5857C24.4229 23.6111 24.4229 23.6365 24.4229 23.6619C24.4737 24.1697 24.9053 24.322 25.2099 24.6013C25.3876 24.6774 25.54 24.779 25.7177 24.8552C26.1747 25.1598 26.6825 25.3376 27.241 25.1345C27.571 25.1345 27.9265 25.1345 28.2565 25.1345C29.1959 25.1852 30.0845 25.1344 30.5415 24.0935C30.7192 23.865 30.8969 23.6365 31.0746 23.408C31.0746 23.3573 31.0746 23.3319 31.0746 23.2811C31.1 23.3065 31.1508 23.3319 31.2016 23.3826C32.7756 22.3671 32.4964 20.9707 32.0394 19.5236C31.6332 18.8381 31.2016 18.1526 30.7954 17.4671C29.1705 16.1977 27.3933 15.9693 25.4892 16.7563C24.2959 17.5433 23.5089 18.6096 23.1535 20.006C22.8996 21.1231 23.0265 22.1386 23.7374 23.0526Z" fill="#495124"/>
<path d="M33.334 20.2853C33.4101 22.3418 34.2987 23.8904 36.1775 24.8298C36.3806 25.1344 36.6852 25.236 37.0153 25.3376C37.5992 25.4645 38.2085 25.4645 38.7925 25.3376C39.478 25.1344 40.138 24.8806 40.7474 24.5251C41.2297 24.1697 41.636 23.7635 41.966 23.2811C42.3722 22.3164 43.0577 21.4024 42.4738 20.2853C42.2199 19.1682 41.7121 18.1527 40.9251 17.3149C39.351 16.2486 37.6754 15.9693 35.8728 16.7055C34.6034 17.5941 33.4863 18.5843 33.334 20.2853Z" fill="#495124"/>
<path d="M46.0535 18.8127C45.7997 19.2951 45.5204 19.7775 45.2665 20.2853C44.9872 20.92 45.1903 21.5039 45.5458 22.037C45.6727 22.3671 45.9266 22.621 46.2059 22.8241C46.2566 22.9003 46.282 22.9764 46.3328 23.0526C48.1354 24.322 50.3949 23.535 50.6234 21.5547C50.725 20.3106 50.598 19.1936 49.3794 18.5081C48.1862 17.848 47.0945 18.1272 46.0535 18.8127Z" fill="#495124"/>
<path d="M92.8191 33.6903C92.5652 33.1318 92.1337 33.208 91.7021 33.5126C91.1689 33.5126 90.7881 33.868 90.3311 34.0711C89.1632 34.5789 87.9953 34.9089 86.7259 34.4773C83.8317 33.5126 82.4861 31.4308 83.0446 28.6888C83.0954 27.7748 84.111 27.1655 83.8571 26.15C83.8825 26.15 83.9078 26.15 83.9078 26.15C84.1871 25.9723 84.4918 25.7691 84.771 25.5914C84.9488 25.5152 85.1519 25.4391 85.1519 25.1852C85.2026 25.236 85.2788 25.2614 85.355 25.2868C86.9037 25.0075 88.427 24.652 89.9757 25.2868C90.7627 25.4899 91.2959 26.1246 91.956 26.5054C92.7684 26.5308 93.2508 26.1246 93.3777 25.3122C94.0886 24.6013 93.8347 24.0682 93.073 23.6112C92.5145 23.2811 91.9559 22.9257 91.3974 22.5956C90.8135 22.4179 90.2549 22.2402 89.671 22.0624C89.214 22.0371 88.757 22.0117 88.3 22.0117C86.3959 21.9609 84.5425 22.2402 83.0192 23.535C82.3845 23.7127 82.1053 24.322 81.5721 24.6267C81.4198 24.8044 81.2928 24.9821 81.1405 25.1598C81.0897 25.3121 81.0643 25.4391 81.0136 25.5914C80.4042 26.2261 80.0742 26.9624 79.998 27.8256C79.998 27.851 79.998 27.8764 80.0234 27.9018C79.9727 27.8764 79.9219 27.8764 79.8457 27.8764C78.9063 29.0442 79.668 30.2629 79.7949 31.4561C80.0996 32.4971 80.582 33.4618 81.1151 34.4012C81.7752 34.9597 82.2322 35.7467 83.07 36.0768C83.984 36.9908 85.228 37.1685 86.3959 37.5493C87.7923 37.5239 89.214 37.7779 90.5342 37.067C90.915 36.9654 91.3212 36.8638 91.7021 36.7623C92.1591 36.2799 92.8953 36.153 93.2761 35.569C93.4031 35.5436 93.53 35.4929 93.657 35.4675C94.3171 34.4266 93.0984 34.2742 92.8191 33.6903ZM84.0602 25.3629C84.0855 25.3629 84.0602 25.3629 84.0602 25.3629V25.3629Z" fill="#495124"/>
<path d="M109.702 30.8722C108.763 28.9427 108.23 26.8354 106.909 25.109C106.529 24.322 106.148 23.5349 105.767 22.7479C105.615 22.4179 105.513 22.0878 105.031 22.0117C103.431 21.7324 102.644 22.037 101.883 23.3826C101.756 24.0173 101.476 24.5759 101.121 25.109C100.156 26.2007 99.8007 27.5971 99.166 28.8665C99.0644 29.095 99.0898 29.3489 99.2676 29.5774C99.2676 29.6028 99.2676 29.6028 99.2676 29.6282C99.2422 29.6028 99.1914 29.6027 99.1406 29.6027C98.6582 29.8312 98.5567 30.3137 98.3028 30.7199C97.9728 31.9385 97.0588 32.9286 97.008 34.2488C96.881 34.8328 96.6272 35.3659 96.2971 35.8483C96.4749 36.4068 94.7738 37.4986 96.7541 37.5747C98.2774 37.8032 99.1152 37.0923 99.4707 35.6452C99.5215 35.4167 99.6992 35.2136 99.8007 34.9851C100.105 34.8581 100.283 34.6043 100.562 34.4519C102.771 34.2488 105.005 34.2996 107.24 34.4265C107.671 34.5789 107.823 35.0358 108.204 35.2389C108.534 35.8737 108.839 36.5084 109.169 37.1177C109.245 37.6001 109.626 37.4985 109.931 37.4985C110.616 37.5239 111.327 37.5239 112.013 37.5493L112.089 37.4985H112.19C112.419 37.3462 112.343 37.1685 112.266 36.9654C111.479 34.9089 110.692 32.8525 109.702 30.8722ZM102.035 30.466C102.086 30.2121 102.111 29.9836 102.035 29.7297C102.365 29.6027 102.492 29.2981 102.619 29.0188C103.025 27.9271 103.634 26.937 103.99 25.8199C104.269 27.394 105.259 28.7142 105.716 30.2375C105.792 30.5421 106.097 30.7706 106.021 31.1515C104.929 31.1261 103.863 31.1514 102.797 31.126C102.365 31.1007 101.883 31.1261 102.035 30.466ZM101.07 30.4406C101.07 30.4914 101.045 30.5422 101.045 30.5929C101.045 30.5422 101.019 30.4914 101.019 30.4406C101.045 30.4406 101.07 30.4406 101.07 30.4406Z" fill="#495124"/>
<path d="M162.941 30.3644C162.738 29.9836 162.637 29.5774 162.434 29.222C161.723 27.9526 161.52 26.4293 160.428 25.363C159.92 24.2713 159.412 23.1796 158.905 22.0879C155.376 22.0371 156.163 21.6562 155.274 23.8142C154.995 24.3474 154.69 24.8552 154.411 25.3884C153.522 26.3531 153.167 27.6225 152.634 28.765C152.481 29.3235 151.999 29.8059 152.126 30.4406C151.491 32.1924 150.704 33.8934 149.841 35.5183C149.79 35.7468 149.74 35.9753 149.689 36.2292C149.562 36.6354 148.851 37.0416 149.46 37.4478C150.222 37.9556 152.101 37.3208 152.583 36.5084C152.634 36.1022 152.786 35.7722 153.04 35.4675C153.294 35.2898 153.345 35.0613 153.294 34.7821C153.269 34.7313 153.269 34.6805 153.243 34.6297C153.548 34.1473 153.979 33.9696 154.614 34.0204C155.833 34.0712 157.051 33.9696 158.245 34.0458C159.209 34.0965 160.225 33.7665 161.164 34.2489C161.063 34.5789 161.215 34.8074 161.494 34.9598C162.154 35.7214 162.027 36.9655 162.992 37.5748C163.855 37.5748 164.693 37.5748 165.506 37.5748C165.683 36.9908 165.252 36.6862 165.277 36.2799C164.846 34.1473 163.729 32.3193 162.941 30.3644ZM160.225 30.5422C159.92 31.4561 159.235 31.8116 158.194 31.6846C158.016 31.6592 157.838 31.7608 157.686 31.9132C157.178 31.4816 156.544 31.6593 155.96 31.6085C154.741 31.5323 154.716 31.5069 155.122 30.3899C155.452 29.4759 155.934 28.6381 156.087 27.6733C156.061 27.521 156.036 27.394 156.036 27.2671C156.188 27.1148 156.264 26.937 156.239 26.7085C156.29 26.6578 156.366 26.607 156.467 26.5816C156.899 26.2516 157.102 25.8707 156.95 25.3375C157.28 25.2106 157.534 25.363 157.813 25.5153C157.762 25.6169 157.737 25.7184 157.762 25.82C158.245 27.394 158.829 28.9173 159.743 30.2883C159.844 30.4406 160.022 30.4914 160.2 30.4152H160.25C160.25 30.466 160.225 30.5168 160.225 30.5422Z" fill="#495124"/>
<path d="M45.4954 25.6676C44.1499 24.4998 42.6773 24.7536 41.154 25.2106C41.0271 25.2106 40.8747 25.2361 40.7478 25.2615C38.5644 26.5309 37.7774 28.5873 38.6913 30.6438C39.1737 31.7862 39.9354 32.7002 41.0017 33.3603C42.7281 33.8935 44.3783 34.0966 45.8508 32.7256C46.0793 32.5733 46.3078 32.3956 46.5617 32.2432C46.8918 31.6339 47.1965 31.0246 47.5265 30.4152C47.6027 29.1458 47.6281 27.8764 46.6379 26.8355C46.4348 26.2516 45.8255 26.0992 45.4954 25.6676Z" fill="#495124"/>
<path d="M127.22 30.9229C127.296 30.8467 127.347 30.7452 127.423 30.669C128.845 29.1457 129.073 26.81 127.956 25.1344C127.703 24.7282 127.449 24.322 127.195 23.9158C126.865 23.6873 126.56 23.4841 126.23 23.2556C125.9 22.7986 125.291 22.7732 124.91 22.4178C124.58 22.3924 124.275 22.3417 123.945 22.3163C123.793 22.2401 123.64 22.1386 123.488 22.1386C121.051 22.1132 118.588 22.0878 116.151 22.037C115.516 22.037 115.516 22.3925 115.516 22.8495C115.542 27.7494 115.567 32.6493 115.592 37.5239C116.075 37.5493 116.582 37.5747 117.065 37.5747C118.131 37.7016 118.487 37.2446 118.41 36.1529C118.36 35.112 118.106 34.0457 118.588 33.0301C119.654 33.6141 120.822 33.2841 121.939 33.3094C122.168 33.2841 122.396 33.2079 122.574 33.0809C122.599 33.0555 122.625 33.0302 122.625 33.0048C123.107 33.7664 123.59 34.5281 124.072 35.2897C124.123 35.4421 124.148 35.5944 124.199 35.7467C124.834 36.9653 125.671 37.854 127.195 37.5747C127.576 37.3462 128.16 37.8285 128.413 37.27C128.49 37.1177 128.261 36.813 127.982 36.7622C127.753 36.4322 127.55 36.1021 127.322 35.7721C127.296 35.6705 127.271 35.5944 127.22 35.4928C127.068 35.3913 127.042 35.2135 126.941 35.0612C126.865 34.9343 126.814 34.8327 126.738 34.7058C126.408 34.0711 125.9 33.5633 125.545 32.954C125.468 32.7763 125.418 32.5985 125.367 32.3954C126.306 32.2939 126.814 31.6846 127.22 30.9229ZM124.961 26.353C125.494 28.4602 124.834 29.5012 122.701 29.9582C121.736 30.1359 120.772 30.0089 119.807 30.0343C119.07 30.0597 118.715 29.7297 118.715 28.9934C118.715 27.9271 118.74 26.8862 118.715 25.8199C118.69 25.1598 118.969 24.9059 119.604 24.9313C120.365 24.9567 121.127 24.9313 121.889 24.9313C122.574 24.9059 123.26 24.8805 123.869 25.2867C123.97 25.3629 124.072 25.4136 124.199 25.4644C124.326 25.4898 124.453 25.4898 124.58 25.4391C124.656 25.5152 124.732 25.566 124.808 25.6168C124.757 25.8453 124.884 26.0991 124.961 26.353Z" fill="#495124"/>
<path d="M146.49 25.6168C145.373 24.0681 143.926 23.0018 142.149 22.3163C141.565 22.2147 140.981 22.1132 140.397 22.0116C138.315 22.0116 136.233 22.0116 134.151 22.037C133.77 22.037 133.313 21.7831 133.034 22.2909H133.06C133.009 22.3163 132.983 22.3416 132.933 22.4178C133.009 24.7281 132.425 27.0385 132.704 29.3488C133.009 31.7607 132.831 34.1472 132.907 36.5337C132.907 36.8638 132.78 37.2192 133.06 37.4985C134.481 37.5239 135.903 37.5239 137.325 37.5493C138.848 37.3716 140.448 37.727 141.92 37.0669C142.174 37.0415 142.402 37.0161 142.656 36.9907C143.037 36.7623 143.418 36.5337 143.773 36.2799C144.002 36.1021 144.205 35.9244 144.434 35.7213C144.764 35.8737 144.891 35.4674 145.144 35.442C145.322 35.1882 145.525 34.9343 145.703 34.6804C145.779 34.6042 145.83 34.5281 145.881 34.4519C145.931 34.3758 145.982 34.2995 146.033 34.2234C146.287 34.0457 146.465 33.8172 146.49 33.5126C147.099 32.9286 147.074 32.0654 147.455 31.3799C147.429 31.3037 147.429 31.2276 147.48 31.1514C147.886 29.9328 147.937 28.7141 147.556 27.4955C147.302 26.8608 147.328 25.9722 146.49 25.6168ZM143.443 33.0809C143.418 33.0809 143.418 33.0809 143.393 33.0809C142.885 33.1571 142.58 33.5887 142.174 33.8426C141.539 34.2995 140.803 34.4265 140.067 34.5789C139.28 34.7312 138.467 34.655 137.68 34.655C136.411 34.6296 136.233 34.4773 136.233 33.1571C136.208 30.6436 136.182 28.1048 136.182 25.5913C136.182 25.3375 136.182 25.109 136.106 24.8551L136.132 24.8297C136.462 24.982 136.868 24.9567 137.249 24.9821C138.29 25.0074 139.305 24.9313 140.346 25.0328C140.701 25.1598 141.082 25.2105 141.438 25.3629C141.869 25.5152 142.276 25.7691 142.606 26.0991C143.52 26.8862 144.129 27.8255 144.281 29.0442C144.56 30.1613 144.18 31.1514 143.773 32.1416C143.646 32.4208 143.291 32.7001 143.443 33.0809Z" fill="#495124"/>
<path d="M56.1585 31.6593C56.7678 31.3546 57.3009 30.9992 57.7071 30.4406C58.2403 28.1811 57.3517 27.1401 54.889 27.1401C54.2797 27.4448 53.7973 27.8764 53.4165 28.435C53.1119 29.0189 53.2134 29.6028 53.3657 30.1867C53.3911 30.2629 53.4419 30.339 53.4673 30.4152C54.1274 31.3292 55.016 31.7354 56.1585 31.6593Z" fill="#495124"/>
<path d="M63.1908 27.9272C62.1245 28.308 62.0737 29.1712 62.2768 30.1105C63.1654 31.0753 64.1048 31.1261 65.0441 30.1867C65.3234 29.4758 65.3234 28.7904 64.7141 28.2318C64.2825 27.8002 63.7239 27.7494 63.1908 27.9272Z" fill="#495124"/>
</svg>
