<svg width="24" height="24" viewBox="0 0 24 24" fill="none" xmlns="http://www.w3.org/2000/svg">
<path d="M23.5199 8.65697C21.7643 2.50087 15.3915 -1.1928 9.10645 0.350564C3.04963 1.8419 -0.882918 7.84192 0.170442 13.998C1.29403 20.5703 7.59663 25.1137 14.3908 23.7611C16.5853 23.3276 18.4989 22.3218 20.1316 20.8304C20.4652 20.5183 20.5881 20.1368 20.4652 19.7033C20.3423 19.2871 20.0614 19.0269 19.6576 18.9402C19.2012 18.8362 18.8676 19.0269 18.534 19.3217C15.4617 22.0616 11.0903 22.5992 7.43863 20.6917C6.40283 20.1541 5.48991 19.4431 4.71745 18.5587C6.40283 15.8882 8.07065 13.2524 9.75602 10.5992C9.82625 10.7206 9.82625 10.8246 9.82625 10.9113C9.82625 11.9865 9.80869 13.0616 9.8438 14.1368C9.86136 14.6396 9.91403 15.1772 10.072 15.6454C10.4583 16.842 11.7047 17.1715 12.6528 16.3564C13.0039 16.0443 13.3023 15.6628 13.5657 15.2813C14.0397 14.5876 14.461 13.8593 14.9175 13.131C15.4617 12.2639 16.006 11.3969 16.5502 10.5125C16.5853 10.5125 16.6029 10.5298 16.638 10.5298C16.638 10.9633 16.6204 11.3795 16.638 11.813C16.6731 12.5414 16.6555 13.287 16.8135 13.9807C17.27 16.0269 19.1134 17.1368 21.0621 16.6165C22.6421 16.2004 23.8535 14.6743 23.9764 12.9229C24.0642 11.4836 23.9062 10.0616 23.5199 8.65697ZM21.7643 12.6801C21.7117 13.287 21.4834 13.842 20.9743 14.2235C20.1843 14.8304 19.2714 14.5703 18.9554 13.6339C18.85 13.3217 18.8149 12.9922 18.8149 12.6628C18.7798 11.5876 18.7974 10.5298 18.7447 9.45465C18.7271 9.10783 18.5867 8.72633 18.4287 8.41419C17.9722 7.54713 17.0242 7.30436 16.164 7.77257C15.6197 8.06737 15.2159 8.51823 14.8824 9.02113C14.0221 10.3564 13.1794 11.7263 12.3192 13.0616C12.2314 13.2003 12.1436 13.3391 11.9856 13.4604V13.1483C11.9856 11.709 12.0032 10.2697 11.9856 8.83038C11.9856 8.44887 11.9154 8.05001 11.8276 7.66851C11.7047 7.13093 11.3712 6.74943 10.8094 6.61071C10.23 6.47198 9.73847 6.69741 9.35223 7.13094C9.15912 7.35637 8.98356 7.59914 8.82555 7.84192C7.0524 10.6512 5.26169 13.4605 3.48853 16.2871C3.43586 16.3564 3.38319 16.4431 3.27786 16.5819C3.04963 16.0269 2.8214 15.524 2.6634 15.0211C0.837573 9.54135 4.1381 3.73207 9.82625 2.37947C14.0572 1.37368 18.6218 3.48931 20.6407 7.37372C21.5185 9.07315 21.9048 10.8246 21.7643 12.6801Z" fill="#7D7E81"/>
</svg>
