<svg width="120" height="24" viewBox="0 0 120 24" fill="none" xmlns="http://www.w3.org/2000/svg">
<path d="M23.8822 10.5415C23.3854 5.90767 19.9632 1.82768 15.4738 0.498453C14.7378 0.276914 13.965 0.184615 13.2291 0H10.7452C10.0092 0.184615 9.23642 0.276914 8.50045 0.498453C3.99263 1.84614 0.607175 5.87074 0.0919963 10.5415C0.0919963 10.6154 0.0551944 10.6708 0.0367951 10.7446C0.0367951 10.5415 0.0367951 10.3385 0.0367951 10.1169C0.0183959 10.3015 0 10.4861 0 10.6523C0 10.7261 0 10.7815 0 10.8554V13.1261C0 13.1815 -4.49228e-06 13.2369 0.0183948 13.2923C0.036794 13.4215 0.0367963 13.5508 0.0551955 13.6985C0.0551955 13.5508 0.0551955 13.3846 0.0551955 13.2369C0.239188 14.2523 0.423182 15.2861 0.809566 16.2646C2.06072 19.44 4.23182 21.7292 7.3781 23.0584C8.55565 23.5569 9.8068 23.8154 11.0947 23.9261V23.9446C11.0947 23.9631 11.0947 23.9815 11.0947 24H12.8979C12.8979 23.9815 12.8979 23.9446 12.8979 23.9261C13.1187 23.9077 13.3579 23.8707 13.5786 23.8338C14.9586 23.6123 16.3017 23.2985 17.5161 22.6523C21.5823 20.4738 23.9558 16.4862 23.9558 11.9631C23.9558 11.5015 23.9374 11.0215 23.8822 10.5415ZM8.92364 9.3046C8.92364 8.45537 9.58601 7.77228 10.4324 7.77228C11.2603 7.77228 11.9411 8.43691 11.9595 9.26768C11.9779 10.1169 11.2971 10.8 10.4508 10.8C9.58601 10.8 8.94204 10.1354 8.92364 9.3046ZM4.23183 11.4646C4.12143 13.2369 3.99264 15.0277 3.47746 16.7631C3.33026 17.2615 3.18307 17.7415 2.90708 18.24C2.3735 17.52 1.98712 16.7631 1.69273 15.9692C-0.791171 9.37846 3.25667 2.21539 10.1748 1.07078C13.6154 0.498471 16.7249 1.36614 19.356 3.72922C22.1343 6.22153 23.3118 9.37844 23.0175 13.0892C22.6311 17.76 18.9696 21.8585 14.333 22.8369C13.9834 22.9108 13.9466 22.7815 13.9466 22.5046C13.8546 20.9723 14.4066 19.6431 15.161 18.3692C16.0625 16.8369 17.2585 15.5631 18.528 14.3077C19.0616 13.7908 19.6688 13.2923 20.0736 12.6646C19.6872 12.8677 19.356 13.1815 18.9328 13.3477C17.4977 14.1046 16.0073 14.64 14.3698 14.6215C13.597 14.6215 12.8795 14.3815 12.3091 13.8277C12.7691 13.9938 13.2291 14.16 13.7258 14.2154C15.4186 14.3815 17.0193 13.9939 18.5464 13.3477C18.6384 13.3108 18.7304 13.2738 18.8224 13.2369C19.3008 13.0154 19.7056 12.6461 20.2208 12.48C20.4416 12.2215 20.5888 11.9446 20.7176 11.6308C21.1407 10.5785 20.8463 9.67382 19.816 8.97228C19.1536 8.51074 18.3993 8.23385 17.6265 8.03077C16.8721 7.82769 16.1545 7.51386 15.4186 7.25539C15.2714 7.20001 15.1978 7.08924 15.1058 6.97847C14.885 6.49847 14.517 6.18461 14.0202 6.03691C13.4315 5.8523 12.8427 5.88922 12.2539 6.03691C11.9411 6.11076 11.6283 5.99999 11.3339 5.94461C9.99079 5.68614 8.77644 6.07382 7.54369 6.57228C5.33578 7.49536 4.36062 9.1569 4.23183 11.4646ZM17.6265 11.3908C17.6265 11.1138 17.8105 10.9477 18.0865 10.9477C18.3625 10.9477 18.5096 11.1139 18.5464 11.4092C18.5096 11.6677 18.3808 11.8708 18.0865 11.8708C17.7921 11.8708 17.6265 11.6861 17.6265 11.3908Z" fill="#7D7E81"/>
<path d="M119.89 13.4954C119.319 10.8738 116.964 9.50772 114.094 10.1169C111.959 10.56 110.616 12.4246 110.598 14.7323C110.598 14.88 110.598 15.0462 110.616 15.1939C110.745 16.8185 111.223 18.24 112.695 19.1446C115.529 20.9169 118.97 19.5508 119.89 16.32C119.908 16.2646 119.963 16.2092 120 16.1723V13.6246C119.963 13.5877 119.908 13.5508 119.89 13.4954ZM117.442 16.9846C116.927 17.8339 116.173 18.2584 115.161 18.2031C114.149 18.1292 113.487 17.5569 113.082 16.6708C112.585 15.5631 112.585 14.4185 113.027 13.2923C113.431 12.24 114.333 11.6308 115.382 11.6492C116.394 11.6677 117.24 12.2769 117.663 13.3108C117.884 13.8277 117.939 14.3815 117.958 14.9354C117.939 15.6554 117.81 16.3569 117.442 16.9846Z" fill="#7D7E81"/>
<path d="M78.7489 12.7754C77.4609 12.7938 76.173 12.7754 74.885 12.7754C73.7443 12.7569 73.7443 12.7569 73.7443 13.9569C73.7443 14.3815 73.8731 14.5477 74.2963 14.5107C75.0874 14.4738 75.897 14.5108 76.6882 14.4923C77.1298 14.4738 77.2034 14.64 77.1482 15.0461C76.9458 16.4492 76.2834 17.5015 74.8666 17.8708C73.3395 18.2769 71.886 18.0554 70.8188 16.7446C69.3285 14.9169 69.3653 11.2246 70.8924 9.43381C72.4195 7.64304 75.7498 7.88305 76.5962 9.95074C76.9274 10.763 77.3322 10.8923 78.0497 10.8184C78.2705 10.8 78.4913 10.8 78.7121 10.8184C79.0617 10.8369 79.1353 10.6892 79.0801 10.3754C78.9513 9.76613 78.7489 9.19382 78.3993 8.65843C76.6514 6.01843 72.2172 5.51996 69.7149 7.77227C67.6541 9.61842 67.1758 12.0185 67.5989 14.64C67.9117 16.5969 68.8869 18.1846 70.6716 19.1815C72.9715 20.4369 75.161 20.123 77.4977 18.203C77.5529 18.3877 77.6081 18.5169 77.6265 18.6461C77.8473 19.6615 77.8473 19.6431 78.8593 19.6061C79.2089 19.5877 79.3193 19.4769 79.3193 19.1446C79.3193 17.2061 79.3193 15.2677 79.3377 13.3292C79.2825 12.9046 79.1353 12.7754 78.7489 12.7754Z" fill="#7D7E81"/>
<path d="M39.5401 14.6585C39.4113 14.6585 39.2825 14.6769 39.1353 14.6585C38.5649 14.5477 38.3809 14.8246 38.2889 15.36C37.9945 16.7631 37.2034 17.7231 35.7314 18C34.3515 18.2585 32.9531 17.6492 32.162 16.4492C30.9476 14.6031 31.0028 11.4646 32.2908 9.67384C33.6707 7.75384 36.8722 7.69846 37.8657 9.72923C38.3809 10.7815 38.9881 10.9662 39.9448 10.8369C40.0184 10.8185 40.0736 10.8185 40.1472 10.8369C40.6624 10.9108 40.6992 10.6708 40.5888 10.2646C40.4232 9.50768 40.1288 8.82462 39.632 8.25231C38.4729 6.90462 36.9458 6.44308 35.4186 6.40616C33.4499 6.3877 31.8308 7.07079 30.7636 8.27079C28.4637 10.8369 28.3901 15.3231 30.6348 17.9261C32.2172 19.7538 34.2779 20.2708 36.5594 19.7908C38.6569 19.3292 39.9632 17.9631 40.4968 15.8769C40.7728 14.6585 40.7728 14.6585 39.5401 14.6585Z" fill="#7D7E81"/>
<path d="M109.476 10.1539C109.457 10.1908 109.42 10.2277 109.384 10.2462C109.457 10.2462 109.531 10.2462 109.605 10.2462C109.568 10.2277 109.531 10.1908 109.476 10.1539Z" fill="#7D7E81"/>
<path d="M106.532 14.1785C106.274 13.8092 106.329 13.6246 106.624 13.2923C107.562 12.2954 108.482 11.28 109.402 10.2462C109.126 10.2646 108.85 10.2646 108.574 10.2277C107.617 10.0984 106.881 10.3938 106.274 11.1877C105.869 11.7415 105.336 12.1846 104.821 12.6646C104.416 13.0523 104.122 13.5508 103.533 13.9016V8.14152C103.533 6.64613 103.533 6.66459 102.061 6.66459C101.619 6.66459 101.454 6.75692 101.454 7.23692C101.472 11.1877 101.472 15.12 101.454 19.0708C101.454 19.4585 101.527 19.6061 101.969 19.6061C103.551 19.6061 103.588 19.6246 103.533 18.0554C103.496 16.8739 103.514 15.7661 104.821 15.1754C105.391 16.08 106.109 17.0031 106.569 18.0184C107.176 19.3477 108.096 19.8461 109.494 19.6061C109.66 19.5877 109.899 19.68 109.991 19.5138C110.101 19.3292 109.88 19.2 109.807 19.0523C108.703 17.4277 107.636 15.7846 106.532 14.1785Z" fill="#7D7E81"/>
<path d="M89.4756 12.6646C88.7212 11.04 87.4884 10.0615 85.6669 10.0061C83.9006 9.93229 82.5022 10.6707 81.6559 12.2215C80.6991 13.9754 80.6807 15.8031 81.5455 17.5938C82.263 19.0892 83.5694 19.7723 85.2069 19.8461C86.8813 19.92 88.3164 19.44 89.2548 17.9446C89.4755 17.5754 89.8067 17.1508 89.6595 16.8C89.5307 16.4861 88.9788 16.7262 88.6108 16.6708C88.5004 16.6523 88.39 16.6707 88.2796 16.6523C87.9668 16.6338 87.7644 16.7262 87.5988 17.04C87.0652 18.0185 86.0717 18.4062 84.9309 18.1477C83.919 17.9262 83.1646 17.0215 83.0726 15.9692C83.0542 15.6185 83.1278 15.5077 83.4774 15.5077C84.471 15.5261 85.4829 15.5261 86.4765 15.5261C87.0469 15.5261 87.6172 15.5261 88.206 15.5261C90.0643 15.5261 90.2115 15.3046 89.7331 13.44C89.6595 13.1631 89.5859 12.9046 89.4756 12.6646ZM87.378 14.0862C86.7157 14.0862 86.0533 14.0862 85.3725 14.0862C84.7285 14.0862 84.0846 14.0677 83.4406 14.0862C83.183 14.0862 83.0358 14.0492 83.0726 13.7169C83.1646 12.6092 84.287 11.6307 85.4829 11.6492C86.5869 11.6677 87.6356 12.6646 87.7276 13.7538C87.7644 14.0677 87.5988 14.0862 87.378 14.0862Z" fill="#7D7E81"/>
<path d="M47.7643 10.0616C45.4644 9.63695 43.3485 10.5231 42.5021 12.3877C41.7293 14.0677 41.7477 15.8031 42.5205 17.4831C42.8333 18.1846 43.3485 18.7569 44.0108 19.1446C45.7036 20.1231 47.4515 20.1416 49.1626 19.2369C50.8554 18.3323 51.3521 16.7077 51.3705 14.8985C51.3705 14.6769 51.3889 14.4554 51.3705 14.2338C51.1866 12.0923 49.7514 10.4493 47.7643 10.0616ZM48.8866 16.7446C48.4083 17.6677 47.6907 18.2216 46.6051 18.1846C45.5196 18.1662 44.8204 17.5939 44.3972 16.6523C43.882 15.5077 43.882 14.3077 44.4156 13.1631C44.8204 12.24 45.5564 11.6862 46.5867 11.6492C47.6539 11.6308 48.4083 12.1477 48.8866 13.0708C49.1994 13.68 49.273 14.3446 49.2914 14.8431C49.2546 15.6185 49.1626 16.2092 48.8866 16.7446Z" fill="#7D7E81"/>
<path d="M65.6118 12.8861C65.5934 11.3723 64.6919 10.32 63.2567 10.0615C61.7296 9.80306 60.4232 10.1354 59.4113 11.5384C59.2825 10.2092 59.2825 10.2092 58.0865 10.2092C58.0681 10.2092 58.0497 10.2092 58.0129 10.2092C57.553 10.1538 57.4058 10.3384 57.4058 10.8C57.4242 13.2738 57.4058 15.7292 57.4058 18.203C57.4058 19.5877 57.4242 19.5507 58.8409 19.5877C59.3745 19.6061 59.5033 19.44 59.5033 18.9231C59.4665 17.2984 59.4849 15.6738 59.4849 14.0492C59.5033 12.6092 60.46 11.5938 61.7664 11.6123C62.9807 11.6307 63.4959 12.3138 63.4959 13.92C63.4959 15.2677 63.4959 16.6338 63.4959 17.9815C63.4959 19.6061 63.4959 19.6061 65.1334 19.5507C65.5198 19.5323 65.6118 19.4215 65.6118 19.0338C65.6118 17.0215 65.6302 14.9538 65.6118 12.8861Z" fill="#7D7E81"/>
<path d="M97.3873 12.6462C97.6817 13.3108 98.0128 13.5139 98.5464 13.3846C98.804 13.3846 98.9696 13.3662 99.1352 13.3846C99.7056 13.4585 99.8344 13.2369 99.6688 12.72C99.4848 12.1108 99.2088 11.5754 98.7488 11.1138C97.3505 9.63693 93.4314 9.3231 91.8307 11.7785C90.8923 13.2 90.7451 14.7693 91.0763 16.3939C91.4811 18.4985 93.1186 19.8277 95.2897 19.8646C97.6264 19.92 99.0432 18.8677 99.6504 16.7446C99.816 16.1354 99.6688 15.9877 99.0984 16.0615C98.8224 16.08 98.528 16.08 98.2336 16.0615C97.8288 16.0246 97.6817 16.1354 97.5713 16.5785C97.3505 17.4646 96.7801 18.0554 95.8233 18.2031C94.8482 18.3323 94.0202 17.9815 93.5786 17.1138C92.8058 15.6369 92.7874 14.1046 93.6706 12.6646C94.4802 11.2984 96.7985 11.28 97.3873 12.6462Z" fill="#7D7E81"/>
<path d="M55.2163 14.9354C55.2163 13.8646 55.2163 12.7938 55.2163 11.7231C55.2163 10.1908 55.2163 10.2277 53.6891 10.2277C53.2107 10.2277 53.1003 10.3939 53.1003 10.8554C53.1187 13.2554 53.1187 15.6738 53.1187 18.0738C53.1187 19.6061 53.1187 19.5877 54.6459 19.6061C55.1795 19.6246 55.2531 19.4215 55.2531 18.9415C55.2163 17.6123 55.2163 16.2646 55.2163 14.9354Z" fill="#7D7E81"/>
<path d="M54.4987 6.64615C53.0635 6.70153 53.0819 6.66462 53.1003 8.08616C53.1003 8.47385 53.2107 8.67691 53.6155 8.62152C53.7811 8.60306 53.9651 8.62152 54.1491 8.62152C55.2346 8.62152 55.2347 8.62152 55.2347 7.55075C55.2347 7.51382 55.2347 7.45845 55.2347 7.42152C55.3266 6.86768 55.1243 6.64615 54.4987 6.64615Z" fill="#7D7E81"/>
</svg>
