<svg width="140" height="24" viewBox="0 0 140 24" fill="none" xmlns="http://www.w3.org/2000/svg">
<path d="M23.2585 8.65697C21.5225 2.50087 15.2204 -1.1928 9.00525 0.350564C3.01574 1.8419 -0.873106 7.84192 0.168548 13.998C1.27965 20.5703 7.51221 25.1137 14.2309 23.7611C16.401 23.3276 18.2933 22.3218 19.9079 20.8304C20.2377 20.5183 20.3593 20.1368 20.2377 19.7033C20.1162 19.2871 19.8384 19.0269 19.4391 18.9402C18.9878 18.8362 18.6579 19.0269 18.328 19.3217C15.2899 22.0616 10.967 22.5992 7.35596 20.6917C6.33167 20.1541 5.4289 19.4431 4.66502 18.5587C6.33167 15.8882 7.98095 13.2524 9.6476 10.5992C9.71704 10.7206 9.71704 10.8246 9.71704 10.9113C9.71704 11.9865 9.69968 13.0616 9.7344 14.1368C9.75177 14.6396 9.80385 15.1772 9.9601 15.6454C10.342 16.842 11.5747 17.1715 12.5121 16.3564C12.8594 16.0443 13.1545 15.6628 13.4149 15.2813C13.8837 14.5876 14.3003 13.8593 14.7517 13.131C15.2899 12.2639 15.8281 11.3969 16.3663 10.5125C16.401 10.5125 16.4184 10.5298 16.4531 10.5298C16.4531 10.9633 16.4357 11.3795 16.4531 11.813C16.4878 12.5414 16.4704 13.287 16.6267 13.9807C17.0781 16.0269 18.901 17.1368 20.828 16.6165C22.3905 16.2004 23.5884 14.6743 23.7099 12.9229C23.7967 11.4836 23.6405 10.0616 23.2585 8.65697ZM21.5225 12.6801C21.4704 13.287 21.2447 13.842 20.7412 14.2235C19.96 14.8304 19.0572 14.5703 18.7447 13.6339C18.6405 13.3217 18.6058 12.9922 18.6058 12.6628C18.5711 11.5876 18.5885 10.5298 18.5364 9.45465C18.519 9.10783 18.3801 8.72633 18.2239 8.41419C17.7725 7.54713 16.835 7.30436 15.9843 7.77257C15.4461 8.06737 15.0468 8.51823 14.717 9.02113C13.8663 10.3564 13.033 11.7263 12.1823 13.0616C12.0955 13.2003 12.0087 13.3391 11.8524 13.4604V13.1483C11.8524 11.709 11.8698 10.2697 11.8524 8.83038C11.8524 8.44887 11.783 8.05001 11.6962 7.66851C11.5747 7.13093 11.2448 6.74943 10.6893 6.61071C10.1163 6.47198 9.63024 6.69741 9.2483 7.13094C9.05733 7.35637 8.88372 7.59914 8.72747 7.84192C6.97402 10.6512 5.20321 13.4605 3.44976 16.2871C3.39768 16.3564 3.34559 16.4431 3.24143 16.5819C3.01574 16.0269 2.79005 15.524 2.6338 15.0211C0.828264 9.54135 4.09211 3.73207 9.71704 2.37947C13.901 1.37368 18.4149 3.48931 20.4114 7.37372C21.2794 9.07315 21.6613 10.8246 21.5225 12.6801Z" fill="#7D7E81"/>
<path d="M74.2127 16.9634C74.1954 17.4142 73.9697 17.7437 73.553 17.9171C73.1537 18.0732 72.7544 18.0038 72.4419 17.709C72.1815 17.4836 72.0773 17.1888 72.0773 16.8593C72.0773 15.3853 72.0773 13.9287 72.0773 12.4547V12.0905C71.3482 12.8709 70.6711 13.5992 70.0114 14.3275C69.8899 14.4489 69.7684 14.5876 69.6642 14.709C69.2302 15.1772 68.883 15.1946 68.4489 14.7264C67.7198 13.9287 66.9906 13.1483 66.2441 12.3506C66.192 12.2986 66.1399 12.2293 66.0184 12.1079V12.4894C66.0184 13.9287 66.0184 15.3853 66.0184 16.8246C66.0184 17.4663 65.5844 17.9518 64.9767 17.9865C64.3518 18.0212 63.8656 17.5183 63.8656 16.8593C63.8656 15.3506 63.8656 13.8593 63.8656 12.368C63.8656 10.7899 63.8656 9.22923 63.8656 7.65119C63.8656 7.42575 63.8309 7.21766 64.1087 7.11362C64.3691 7.00957 64.5427 7.16563 64.699 7.3217C65.4108 8.10205 66.1052 8.89976 66.817 9.68011C67.4246 10.3564 68.0323 11.05 68.6399 11.7263C68.9871 12.1079 69.1086 12.1079 69.4559 11.7263C70.6885 10.3391 71.9211 8.96911 73.1537 7.58182C73.2579 7.46043 73.3621 7.30436 73.5009 7.235C73.6572 7.14829 73.8655 7.09627 74.0218 7.13095C74.2301 7.16564 74.2475 7.39107 74.2475 7.58182C74.2475 10.1483 74.2475 12.7148 74.2475 15.2813C74.2301 15.8535 74.2475 16.4085 74.2127 16.9634Z" fill="#7D7E81"/>
<path d="M139.629 12.4027C139.038 10.9807 137.719 10.1657 136.191 10.2177C135.323 10.2524 134.542 10.5472 133.9 11.1888C133.882 11.1194 133.865 11.0674 133.848 11.0154C133.691 10.4951 133.361 10.2524 132.91 10.3217C132.459 10.3911 132.198 10.7379 132.198 11.2581C132.198 14.2061 132.198 17.1715 132.198 20.1195C132.198 20.7784 132.667 21.264 133.275 21.2813C133.865 21.2813 134.351 20.7784 134.368 20.1368C134.368 19.79 134.368 19.4432 134.368 19.0963V17.501C134.49 17.5703 134.577 17.6223 134.646 17.657C136.556 18.5934 138.535 18.0559 139.507 16.1483C140.115 14.9345 140.167 13.6686 139.629 12.4027ZM137.354 15.5414C136.764 16.2871 135.757 16.3738 135.045 15.7495C134.229 15.0559 134.108 13.6859 134.785 12.8535C135.219 12.2986 135.966 12.0732 136.608 12.2813C137.268 12.4894 137.754 13.1136 137.823 13.8767C137.823 13.9634 137.841 14.0674 137.841 14.1541C137.823 14.657 137.684 15.1252 137.354 15.5414Z" fill="#7D7E81"/>
<path d="M121.504 16.6339C119.855 18.0039 117.997 18.5067 115.949 17.7611C113.935 17.0328 112.754 15.5241 112.355 13.4258C112.303 13.131 112.285 12.8189 112.268 12.6281C112.303 9.29862 114.924 6.78414 118.084 6.95755C119.091 7.00957 120.028 7.32172 120.862 7.87664C121.261 8.1541 121.469 8.51826 121.383 9.00381C121.261 9.68012 120.462 10.0096 119.89 9.64543C119.126 9.14253 118.292 8.88243 117.372 8.98648C116.244 9.1252 115.393 9.7148 114.872 10.7206C114.247 11.9518 114.23 13.2004 114.872 14.4142C115.844 16.2697 118.171 16.7206 119.907 15.4374C120.028 15.3507 120.133 15.2466 120.237 15.1599C120.653 14.8304 121.244 14.8824 121.574 15.264C121.938 15.6801 121.903 16.3044 121.504 16.6339Z" fill="#7D7E81"/>
<path d="M40.8624 16.6165C38.6922 18.5414 35.7409 18.5587 33.6576 16.842C32.2166 15.6628 31.5916 14.1021 31.609 12.1946C31.8347 9.88818 32.9805 8.17141 35.2201 7.28701C36.9388 6.62805 38.6228 6.85347 40.1679 7.84192C40.6193 8.11937 40.8103 8.55292 40.7235 8.98645C40.6367 9.38529 40.3068 9.73211 39.8728 9.7668C39.6471 9.78414 39.3867 9.71477 39.1783 9.59339C38.0499 8.91708 36.8867 8.69164 35.6541 9.28124C34.3867 9.87084 33.6055 11.3795 33.7617 12.8362C33.8833 14.1194 34.4041 15.1946 35.602 15.7842C36.9735 16.4605 38.2582 16.2003 39.4388 15.2986C39.6297 15.1425 39.8728 15.0212 40.1158 14.9691C40.5151 14.8824 40.8971 15.1252 41.0707 15.4894C41.2617 15.8882 41.1922 16.3391 40.8624 16.6165Z" fill="#7D7E81"/>
<path d="M83.31 11.1194C83.2753 10.6686 82.9107 10.3217 82.4767 10.3217C82.0426 10.3217 81.7128 10.6339 81.6607 11.0847C81.6433 11.1715 81.6433 11.2408 81.6086 11.3795C81.5044 11.2755 81.4524 11.2408 81.4003 11.1888C80.0809 9.92289 78.0496 9.90555 76.7128 11.1888C75.4455 12.4027 75.133 14.4836 75.9837 16.1483C76.6434 17.4316 77.685 18.1599 79.1781 18.1079C80.0982 18.0732 80.9489 17.7958 81.6086 16.9981C81.626 17.1541 81.6433 17.2582 81.6607 17.3449C81.7128 17.657 81.9732 17.9345 82.2857 18.0039C82.6329 18.0732 82.9454 17.9865 83.119 17.6917C83.2232 17.5183 83.2926 17.2755 83.2926 17.0501C83.31 15.1426 83.2926 13.2351 83.2926 11.3275C83.31 11.2408 83.31 11.1714 83.31 11.1194ZM80.7232 15.4547C79.9593 16.4952 78.5357 16.3911 77.9455 15.2466C77.7719 14.9171 77.7198 14.5356 77.5982 14.1715C77.6677 13.5298 77.8413 12.9576 78.3621 12.5587C79.2128 11.8998 80.4628 12.2119 80.9315 13.2177C81.2961 13.9807 81.2267 14.7611 80.7232 15.4547Z" fill="#7D7E81"/>
<path d="M130.237 11.2582C130.237 11.1715 130.237 11.1021 130.219 11.0154C130.15 10.6165 129.82 10.3217 129.403 10.3217C129.004 10.3217 128.674 10.5992 128.605 10.998C128.587 11.1194 128.57 11.2235 128.535 11.4489C128.431 11.3102 128.396 11.2408 128.344 11.1888C126.99 9.90555 124.959 9.9229 123.622 11.2408C122.198 12.6455 122.06 15.1079 123.31 16.7553C124.594 18.4721 127.077 18.6108 128.57 17.0154C128.605 17.1715 128.605 17.2755 128.639 17.3796C128.709 17.709 128.969 17.9518 129.282 18.0039C129.629 18.0559 129.924 17.9518 130.098 17.657C130.202 17.4836 130.254 17.2755 130.254 17.0848C130.254 15.1252 130.237 13.2004 130.237 11.2582ZM127.494 15.6455C126.712 16.4258 125.584 16.3044 124.976 15.4027C124.594 14.8304 124.49 14.1888 124.681 13.5298C124.907 12.6975 125.601 12.1599 126.348 12.1946C127.216 12.2466 127.91 12.8709 128.049 13.7553C128.066 13.894 128.084 14.0327 128.084 14.1194C128.066 14.7437 127.91 15.2466 127.494 15.6455Z" fill="#7D7E81"/>
<path d="M97.3203 17.6917C96.8862 18.0905 96.3307 18.1079 95.914 17.6743C95.3932 17.1194 94.8897 16.5298 94.3863 15.9402C94.0043 15.5067 93.6224 15.0558 93.1884 14.5529C93.1884 15.3333 93.1884 16.0269 93.1884 16.7206C93.1884 16.8593 93.1884 17.0154 93.1536 17.1541C93.0321 17.6917 92.546 18.0385 92.0252 17.9865C91.5044 17.9345 91.1051 17.5356 91.053 16.998C91.053 16.9287 91.053 16.8767 91.053 16.8073C91.053 13.9633 91.053 11.1194 91.053 8.27545C91.053 7.56446 91.5044 7.06159 92.1293 7.07893C92.7543 7.07893 93.2057 7.59916 93.2057 8.2928V13.4951C93.2231 13.5125 93.2578 13.5125 93.2752 13.5298C94.0391 12.6801 94.8203 11.8304 95.5842 10.9807C95.7231 10.8419 95.8446 10.6859 96.0008 10.5645C96.4175 10.2177 96.9557 10.2523 97.3203 10.6512C97.7022 11.05 97.7196 11.6396 97.3723 12.0211C96.7647 12.6801 96.1571 13.3391 95.5494 14.0154C95.9661 14.5183 96.3654 15.0038 96.7647 15.4894C96.9904 15.7668 97.2161 16.0269 97.4244 16.3044C97.7716 16.7206 97.7369 17.2928 97.3203 17.6917Z" fill="#7D7E81"/>
<path d="M104.438 14.8131C105.011 14.8131 105.376 14.4489 105.376 13.894C105.358 11.8825 104.16 10.4778 102.181 10.2524C100.497 10.0443 98.9521 10.6859 98.3098 12.4894C97.9625 13.4605 97.9278 14.4663 98.1709 15.4547C98.4486 16.5819 99.1431 17.3796 100.254 17.7958C101.035 18.0906 101.851 18.1426 102.685 18.0559C103.292 18.0039 103.848 17.8305 104.351 17.4836C104.594 17.3102 104.785 17.1021 104.803 16.79C104.855 16.0617 104.16 15.6455 103.449 15.9576C102.615 16.3391 101.747 16.4432 100.897 16.0097C100.428 15.7842 100.219 15.368 100.202 14.7958H100.549C101.834 14.8131 103.136 14.8305 104.438 14.8131ZM101.591 12.2466C102.355 12.2119 103.24 12.6108 103.258 13.4085H100.202C100.202 12.7669 100.792 12.2813 101.591 12.2466Z" fill="#7D7E81"/>
<path d="M45.7059 10.2177C43.5705 10.235 41.7823 12.0038 41.7997 14.1194C41.7997 16.2871 43.6226 18.0906 45.7927 18.0906C47.8586 18.0906 49.5947 16.2524 49.5774 14.1021C49.5774 11.9345 47.8413 10.2003 45.7059 10.2177ZM47.1295 15.2813C46.5392 16.3564 45.2024 16.4778 44.4385 15.5241C43.9004 14.8478 43.7962 14.0848 44.126 13.2871C44.4385 12.5414 45.2198 12.1252 46.001 12.2466C46.7649 12.368 47.3378 13.0096 47.4246 13.8593C47.4246 13.946 47.442 14.0501 47.442 14.1368C47.4593 14.1368 47.4941 14.1541 47.5114 14.1541C47.3899 14.5356 47.3204 14.9345 47.1295 15.2813Z" fill="#7D7E81"/>
<path d="M62.0775 16.9807C62.0775 17.553 61.574 18.0039 61.0185 18.0039C60.463 18.0039 59.9768 17.605 59.9595 17.0154C59.9248 16.0096 59.9421 15.0038 59.9421 13.998C59.9421 13.7726 59.9421 13.5298 59.9074 13.2871C59.838 12.7148 59.5255 12.368 59.0046 12.2639C58.2928 12.1079 57.7026 12.2639 57.4595 12.7668C57.2859 13.1137 57.1817 13.5125 57.1644 13.9113C57.1297 14.8824 57.1644 15.8362 57.147 16.8073C57.147 17.501 56.7477 17.9518 56.1574 18.0039C55.5325 18.0559 55.029 17.5877 55.0116 16.946C54.9943 16.3218 55.0116 15.7148 55.0116 15.0905V11.3275C55.0116 10.7379 55.2547 10.3911 55.7061 10.3217C56.1748 10.2524 56.4873 10.4951 56.6956 11.1021C57.2165 10.6512 57.772 10.3391 58.4491 10.2524C60.4109 9.95757 61.956 11.1368 62.0775 13.0963C62.1296 14.3796 62.0949 15.6801 62.0775 16.9807Z" fill="#7D7E81"/>
<path d="M111.435 17.2235C111.4 17.657 111.035 18.0732 110.601 18.0732C110.098 18.0905 109.577 18.0732 109.074 18.0038C108.275 17.8651 107.754 17.3622 107.563 16.5992C107.424 16.0443 107.355 15.4547 107.32 14.8651C107.285 14.1021 107.32 13.3217 107.32 12.5587V12.1946C107.112 12.1946 106.938 12.1946 106.782 12.1946C106.244 12.1772 105.827 11.761 105.827 11.2408C105.827 10.7032 106.226 10.2523 106.747 10.235C106.921 10.2177 107.112 10.235 107.338 10.235C107.338 9.55871 107.338 8.91707 107.338 8.27545C107.338 7.7899 107.529 7.39107 107.997 7.18298C108.692 6.87084 109.456 7.39106 109.49 8.15407C109.508 8.48356 109.49 8.83038 109.49 9.1772V10.235C109.82 10.235 110.081 10.235 110.358 10.235C110.931 10.2523 111.348 10.6685 111.331 11.2408C111.331 11.7957 110.914 12.1946 110.358 12.2119C110.081 12.2119 109.803 12.2119 109.542 12.2119C109.525 12.2639 109.49 12.2986 109.49 12.3159C109.508 13.3564 109.49 14.3969 109.542 15.42C109.56 16.0616 109.733 16.1657 110.358 16.183C111.053 16.183 111.487 16.5992 111.435 17.2235Z" fill="#7D7E81"/>
<path d="M90.2193 11.2061C90.2193 11.7437 89.7853 12.1772 89.2297 12.1772C89.1429 12.1772 89.0388 12.1772 88.9519 12.1946C87.8582 12.316 87.4068 12.8015 87.3895 13.894C87.3895 14.8651 87.3895 15.8189 87.3895 16.79C87.3895 17.4836 86.9728 17.9691 86.3478 17.9865C85.7228 18.0038 85.2541 17.5183 85.2367 16.8073C85.2367 15.3853 85.2367 13.9807 85.2367 12.5587C85.2367 12.0905 85.2194 11.6396 85.2367 11.1714C85.2541 10.7552 85.4971 10.4258 85.8444 10.3391C86.1742 10.2523 86.5388 10.3564 86.7298 10.6339C86.8166 10.7726 86.8686 10.9287 86.9381 11.0847C87.0943 10.9807 87.2332 10.8593 87.3895 10.7379C87.945 10.3391 88.57 10.183 89.2471 10.2177C89.8026 10.2524 90.2193 10.7032 90.2193 11.2061Z" fill="#7D7E81"/>
<path d="M53.0324 16.8593C53.0324 17.5183 52.5463 18.0038 51.9387 17.9865C51.331 17.9865 50.8796 17.5009 50.8796 16.8246C50.8796 15.9229 50.8796 15.0385 50.8796 14.1368C50.8796 13.235 50.8796 12.3506 50.8796 11.4489C50.8796 10.7726 51.331 10.287 51.9387 10.287C52.5463 10.287 53.0324 10.7726 53.0324 11.4142C53.0498 13.2524 53.0498 15.0558 53.0324 16.8593Z" fill="#7D7E81"/>
<path d="M53.2236 8.22345C53.241 8.91709 52.6681 9.48935 51.9563 9.50669C51.2618 9.50669 50.7063 8.95177 50.7063 8.24078C50.7063 7.5298 51.2445 6.95754 51.9389 6.95754C52.6334 6.9402 53.2063 7.51246 53.2236 8.22345Z" fill="#7D7E81"/>
</svg>
