<svg width="159" height="41" viewBox="0 0 159 41" fill="none" xmlns="http://www.w3.org/2000/svg">
<path d="M25.3665 19.6945C25.3665 19.6743 25.3665 19.6541 25.3665 19.6339C25.3665 19.4319 25.3059 19.25 25.2251 19.0681C25.0028 18.6639 24.7401 18.2799 24.538 17.8758C24.1338 17.2493 23.7498 16.6431 23.4063 15.9964C22.1129 13.8947 20.8398 11.7727 19.5464 9.67104C18.3541 7.73101 17.2224 5.75056 16.0099 3.81052C15.8482 3.5276 15.6866 3.24468 15.5047 2.98197C14.9793 2.29488 14.7772 1.38548 13.989 0.860058C13.9082 0.779224 13.8274 0.718602 13.7465 0.637768C13.6657 0.516515 13.6051 0.395253 13.5242 0.274001C13.504 -0.0089204 13.3221 0.031497 13.1201 0.0719144C12.7361 0.172958 12.6755 0.536729 12.5138 0.819651C11.9075 1.76946 11.3013 2.73947 10.695 3.68928C10.109 4.05303 9.94728 4.71992 9.5229 5.20493C9.19956 5.66973 9.01769 6.19515 8.69435 6.63974C7.46162 8.55956 6.37035 10.5602 5.11741 12.4801C4.57178 13.5309 3.84426 14.5009 3.44009 15.6326C3.44009 15.7943 3.39967 15.9155 3.25821 15.9964C2.69236 16.926 2.14673 17.8354 1.58089 18.765C1.39901 19.2702 0.934211 19.6541 0.812959 20.1796C0.812959 20.1796 0.812957 20.1796 0.792749 20.1796C0.711914 20.2402 0.651289 20.321 0.610872 20.4221C0.348159 20.806 0.732124 20.8465 0.914002 20.9677C1.92444 21.5942 2.95508 22.2004 3.98572 22.8269C4.24844 23.2917 4.71323 23.514 5.13762 23.7565C6.61285 24.6255 8.08809 25.4742 9.56332 26.3432C10.4323 26.8282 11.2811 27.3739 12.1702 27.8387C12.4127 27.9599 12.635 28.1418 12.918 28.0407C13.2615 28.546 13.6253 28.1216 13.9486 27.9599C15.444 27.1718 16.8789 26.2422 18.3339 25.3732C18.5562 25.2115 18.7987 25.0701 19.0614 24.9488C19.89 24.5244 20.6175 23.9384 21.446 23.514C22.4363 22.9077 23.4467 22.3419 24.4773 21.7761C24.5582 21.7356 24.639 21.675 24.7198 21.6346C24.8613 21.5538 25.0028 21.4527 25.1442 21.3719C26.1749 20.7656 26.2153 20.3816 25.3665 19.6945Z" fill="#495124"/>
<path d="M18.7783 27.2122C18.3742 27.5759 17.9094 27.8386 17.3839 28.0205C16.8585 28.1014 16.4139 28.3034 16.131 28.7884C15.3833 29.2532 14.6356 29.7383 13.8878 30.2031C13.6857 30.3041 13.4837 30.4254 13.2816 30.5264C13.0391 30.2031 12.7157 30.001 12.3924 29.7989C11.6447 29.4351 10.9576 28.9501 10.2301 28.5662C9.01754 27.9599 7.9869 27.0303 6.65312 26.6463C4.69288 25.6763 2.85389 24.5244 1.0149 23.3523C0.651144 23.6555 1.03511 23.7969 1.15636 23.9788C2.73264 26.2422 4.30892 28.5257 5.9054 30.7891C5.88519 31.1933 6.14791 31.456 6.34999 31.7591C6.87542 32.4866 7.42105 33.2142 7.92627 33.9619C9.32067 35.9423 10.7555 37.8824 12.1499 39.883C12.2913 40.0649 12.453 40.2468 12.5945 40.4287C12.7562 40.5701 12.8572 40.7722 13.0997 40.7116C13.1199 40.7318 13.1199 40.7722 13.1401 40.7722C13.1603 40.7924 13.2007 40.7924 13.2209 40.7722C13.5241 40.4084 13.8272 40.0447 14.1303 39.6809C14.191 39.6001 14.191 39.5193 14.191 39.4384C14.5749 38.9736 14.9387 38.529 15.3227 38.0642C15.6258 37.4378 16.0502 36.8921 16.515 36.3667C17.4041 35.7402 17.8083 34.7298 18.4752 33.9417C18.5358 33.8608 18.5763 33.8002 18.6369 33.7194C20.0515 31.8197 21.365 29.8393 22.7594 27.9397C23.3455 27.0909 23.972 26.2422 24.5782 25.3934C24.7197 25.2115 24.7399 24.969 24.8207 24.7669C25.1037 24.3223 25.3866 23.8777 25.7503 23.2715C25.2451 23.514 24.942 23.6554 24.6389 23.7969C22.7392 25.0094 20.7992 26.1815 18.7783 27.2122Z" fill="#495124"/>
<path d="M40.9675 30.6073C36.8652 30.6073 33.8743 27.5355 33.8743 23.3321C33.8743 19.0883 36.8652 16.0166 40.9675 16.0166C42.8873 16.0166 44.5445 16.6633 45.757 17.896C47.0908 19.25 47.7981 21.2911 47.7576 23.6353V24.0394H35.8143C36.1174 26.9091 38.1787 28.8087 41.0484 28.8087C42.8065 28.8087 44.3424 28.1822 45.3932 27.0505L45.6964 26.7272L46.8685 28.0408L46.626 28.3035C45.2113 29.7787 43.2107 30.6073 40.9675 30.6073ZM45.8984 22.2207C45.5549 19.4925 43.6957 17.8152 40.9675 17.8152C38.2596 17.8152 36.2387 19.5733 35.8345 22.2207H45.8984Z" fill="#495124"/>
<path d="M40.9676 16.4208C37.0876 16.4208 34.2786 19.2904 34.2786 23.3321C34.2786 27.3739 37.0876 30.2031 40.9676 30.2031C43.1502 30.2031 45.0296 29.3948 46.2825 28.0206L45.6561 27.3133C44.5446 28.5258 42.8875 29.2129 41.0283 29.2129C37.8353 29.2129 35.5315 26.9697 35.3698 23.6353H47.3536C47.4344 19.3712 45.0094 16.4208 40.9676 16.4208ZM35.39 22.6248C35.6528 19.5127 37.8959 17.411 40.9676 17.411C44.1 17.411 46.1411 19.5127 46.3432 22.6248H35.39Z" fill="#495124"/>
<path d="M54.7906 30.6072C52.5878 30.6072 51.3349 29.0714 51.3349 26.3836V18.1384H49.3342V16.3803H51.3349V12.9852H53.1941V16.3803H57.8623V18.1384H53.1941V26.2421C53.1941 28.7076 54.4874 28.7076 54.9118 28.7076H54.9522C55.6393 28.7076 56.3871 28.4449 57.054 28.0003L57.4379 27.7174L58.2058 29.3543L57.9229 29.5564C56.9327 30.2435 55.8818 30.6072 54.8108 30.6072H54.7906Z" fill="#495124"/>
<path d="M54.9926 29.1118C53.578 29.132 52.8101 28.1822 52.8101 26.2421V17.7343H57.4783V16.7845H52.8101V13.3894H51.7592V16.7845H49.7585V17.7343H51.7592V26.3836C51.7592 28.9703 52.9111 30.2232 54.8713 30.203C55.902 30.203 56.872 29.8393 57.741 29.233L57.3166 28.3438C56.5891 28.8288 55.7807 29.1118 54.9926 29.1118Z" fill="#495124"/>
<path d="M71.7656 30.5669V21.9984C71.7656 19.4117 70.2903 17.9163 67.6834 17.9163C64.5713 17.9971 62.7121 20.0584 62.7121 23.4332V30.5467H60.7922V10.1965H62.7121V18.4215C63.8437 16.8654 65.6221 16.0369 67.9461 15.9964C71.4826 15.9964 73.6854 18.2194 73.6854 21.7761V30.5669H71.7656Z" fill="#495124"/>
<path d="M67.9462 16.4207C65.1776 16.4813 63.2376 17.714 62.308 20.038V10.641H61.1965V30.1828H62.308V23.4735C62.308 19.8966 64.2885 17.6332 67.6835 17.5524C70.4925 17.5524 72.1699 19.2095 72.1699 22.0387V30.203H73.2813V21.8164C73.2611 18.4415 71.3009 16.4207 67.9462 16.4207Z" fill="#495124"/>
<path d="M83.5271 30.6073C79.4247 30.6073 76.4338 27.5355 76.4338 23.3321C76.4338 19.0883 79.4247 16.0166 83.5271 16.0166C85.4469 16.0166 87.104 16.6633 88.3165 17.896C89.6503 19.25 90.3576 21.2911 90.3172 23.6353V24.0394H78.3739C78.677 26.9091 80.7383 28.8087 83.6079 28.8087C85.3661 28.8087 86.9019 28.1822 87.9528 27.0505L88.2559 26.7272L89.428 28.0408L89.1855 28.3035C87.7507 29.7787 85.7702 30.6073 83.5271 30.6073ZM88.458 22.2207C88.1145 19.4925 86.2553 17.8152 83.5271 17.8152C80.8191 17.8152 78.7983 19.5733 78.3941 22.2207H88.458Z" fill="#495124"/>
<path d="M83.5272 16.4208C79.6471 16.4208 76.8381 19.2904 76.8381 23.3321C76.8381 27.3739 79.6471 30.2031 83.5272 30.2031C85.7097 30.2031 87.5892 29.3948 88.8421 28.0206L88.2156 27.3133C87.1041 28.5258 85.447 29.2129 83.5878 29.2129C80.3949 29.2129 78.0911 26.9697 77.9294 23.6353H89.9132C89.9738 19.3712 87.5487 16.4208 83.5272 16.4208ZM77.9294 22.6248C78.1921 19.5127 80.4353 17.411 83.507 17.411C86.6393 17.411 88.6804 19.5127 88.8825 22.6248H77.9294Z" fill="#495124"/>
<path d="M93.4094 30.5668V16.0367H95.3292V18.3001C96.3801 16.8451 98.017 16.0368 100.018 15.9963H100.422V17.9566H100.018C97.2491 17.9566 95.5515 19.7147 95.309 22.7662V30.587H93.4094V30.5668Z" fill="#495124"/>
<path d="M94.9247 19.8966V16.4409H93.8132V30.1626H94.9247V22.7258C95.1672 19.5328 97.0062 17.5322 100.038 17.5322V16.4005C97.5923 16.4611 95.7937 17.6736 94.9247 19.8966Z" fill="#495124"/>
<path d="M108.262 30.6073C104.16 30.6073 101.169 27.5355 101.169 23.3321C101.169 19.0883 104.16 16.0166 108.262 16.0166C110.182 16.0166 111.839 16.6633 113.052 17.896C114.386 19.25 115.093 21.2911 115.053 23.6353V24.0394H103.109C103.412 26.9091 105.474 28.8087 108.343 28.8087C110.101 28.8087 111.637 28.1822 112.688 27.0505L112.991 26.7272L114.163 28.0408L113.921 28.3035C112.506 29.7787 110.506 30.6073 108.262 30.6073ZM113.193 22.2207C112.85 19.4925 110.991 17.8152 108.262 17.8152C105.554 17.8152 103.534 19.5733 103.129 22.2207H113.193Z" fill="#495124"/>
<path d="M108.263 16.4208C104.382 16.4208 101.573 19.2904 101.573 23.3321C101.573 27.3739 104.382 30.2031 108.263 30.2031C110.445 30.2031 112.325 29.3948 113.577 28.0206L112.951 27.3133C111.839 28.5258 110.182 29.2129 108.323 29.2129C105.13 29.2129 102.826 26.9697 102.665 23.6353H114.648C114.709 19.3712 112.284 16.4208 108.263 16.4208ZM102.665 22.6248C102.927 19.5127 105.171 17.411 108.242 17.411C111.375 17.411 113.416 19.5127 113.618 22.6248H102.665Z" fill="#495124"/>
<path d="M123.359 30.6072C119.822 30.6072 117.72 28.4449 117.72 24.8275V16.0367H119.6V24.6052C119.6 27.1919 121.055 28.6874 123.601 28.6874C126.653 28.6065 128.471 26.5453 128.471 23.1704V16.0569H130.351V30.587H128.471V28.162C127.34 29.718 125.582 30.587 123.359 30.6072Z" fill="#495124"/>
<path d="M128.855 23.1704C128.855 26.7474 126.915 29.0107 123.581 29.0916C120.812 29.0916 119.175 27.4345 119.175 24.6052V16.4409H118.104V24.8275C118.104 28.2024 120.024 30.203 123.338 30.203C126.046 30.1828 127.966 28.8895 128.835 26.5049V30.1626H129.906V16.4409H128.835V23.1704H128.855Z" fill="#495124"/>
<path d="M156.46 30.5669V21.9984C156.46 19.4117 155.005 17.9162 152.459 17.9162C149.448 17.9971 147.649 20.0583 147.649 23.4332V30.5467H145.77V21.9782C145.77 19.3915 144.315 17.896 141.769 17.896C138.737 17.9769 136.939 20.0381 136.939 23.413V30.5265H135.059V15.9964H136.939V18.4012C138.05 16.8452 139.788 16.0166 142.052 15.9762C144.578 15.9762 146.376 17.1079 147.185 19.149C148.235 17.1281 150.135 16.0368 152.722 15.9762C156.258 15.9762 158.36 18.1385 158.36 21.7559V30.5467H156.46V30.5669Z" fill="#495124"/>
<path d="M152.722 16.4208C149.913 16.4814 147.952 17.8354 147.104 20.4019C146.639 17.896 144.82 16.4208 142.051 16.4208C139.343 16.4814 137.424 17.7141 136.514 20.0583V16.441H135.443V30.1627H136.514V23.4534C136.514 19.8765 138.454 17.6131 141.748 17.5323C144.497 17.5323 146.154 19.1894 146.154 22.0186V30.1829H147.225V23.4736C147.225 19.8967 149.145 17.6333 152.439 17.5525C155.207 17.5525 156.844 19.2096 156.844 22.0388V30.2031H157.915V21.8165C157.935 18.4416 156.016 16.4208 152.722 16.4208Z" fill="#495124"/>
</svg>
