<svg width="420" height="425" viewBox="0 0 420 425" fill="none" xmlns="http://www.w3.org/2000/svg">
<path d="M194.434 8.704H189.442V10.912C189.656 10.6773 189.954 10.4853 190.338 10.336C190.722 10.1867 191.138 10.112 191.586 10.112C192.386 10.112 193.048 10.2933 193.57 10.656C194.104 11.0187 194.493 11.488 194.738 12.064C194.984 12.64 195.106 13.264 195.106 13.936C195.106 15.184 194.754 16.176 194.05 16.912C193.346 17.6373 192.354 18 191.074 18C190.221 18 189.48 17.856 188.85 17.568C188.221 17.2693 187.736 16.8587 187.394 16.336C187.053 15.8133 186.866 15.2107 186.834 14.528H189.506C189.57 14.8587 189.725 15.136 189.97 15.36C190.216 15.5733 190.552 15.68 190.978 15.68C191.48 15.68 191.853 15.52 192.098 15.2C192.344 14.88 192.466 14.4533 192.466 13.92C192.466 13.3973 192.338 12.9973 192.082 12.72C191.826 12.4427 191.453 12.304 190.962 12.304C190.6 12.304 190.301 12.3947 190.066 12.576C189.832 12.7467 189.677 12.976 189.602 13.264H186.962V6.304H194.434V8.704ZM196.616 12C196.616 10.1653 196.968 8.72 197.672 7.664C198.387 6.608 199.534 6.08 201.112 6.08C202.691 6.08 203.832 6.608 204.536 7.664C205.251 8.72 205.608 10.1653 205.608 12C205.608 13.856 205.251 15.312 204.536 16.368C203.832 17.424 202.691 17.952 201.112 17.952C199.534 17.952 198.387 17.424 197.672 16.368C196.968 15.312 196.616 13.856 196.616 12ZM202.92 12C202.92 10.9227 202.803 10.096 202.568 9.52C202.334 8.93333 201.848 8.64 201.112 8.64C200.376 8.64 199.891 8.93333 199.656 9.52C199.422 10.096 199.304 10.9227 199.304 12C199.304 12.7253 199.347 13.328 199.432 13.808C199.518 14.2773 199.688 14.6613 199.944 14.96C200.211 15.248 200.6 15.392 201.112 15.392C201.624 15.392 202.008 15.248 202.264 14.96C202.531 14.6613 202.707 14.2773 202.792 13.808C202.878 13.328 202.92 12.7253 202.92 12ZM206.83 9.264C206.83 8.4 207.075 7.73333 207.566 7.264C208.067 6.79467 208.713 6.56 209.502 6.56C210.291 6.56 210.931 6.79467 211.422 7.264C211.913 7.73333 212.158 8.4 212.158 9.264C212.158 10.128 211.913 10.7947 211.422 11.264C210.931 11.7333 210.291 11.968 209.502 11.968C208.713 11.968 208.067 11.7333 207.566 11.264C207.075 10.7947 206.83 10.128 206.83 9.264ZM217.694 6.736L211.534 18H208.894L215.054 6.736H217.694ZM209.486 8.16C208.974 8.16 208.718 8.528 208.718 9.264C208.718 9.98933 208.974 10.352 209.486 10.352C209.731 10.352 209.923 10.2613 210.062 10.08C210.201 9.89867 210.27 9.62667 210.27 9.264C210.27 8.528 210.009 8.16 209.486 8.16ZM214.446 15.472C214.446 14.608 214.691 13.9413 215.182 13.472C215.673 13.0027 216.313 12.768 217.102 12.768C217.891 12.768 218.531 13.0027 219.022 13.472C219.513 13.9413 219.758 14.608 219.758 15.472C219.758 16.336 219.513 17.0027 219.022 17.472C218.531 17.9413 217.891 18.176 217.102 18.176C216.313 18.176 215.673 17.9413 215.182 17.472C214.691 17.0027 214.446 16.336 214.446 15.472ZM217.086 14.368C216.841 14.368 216.649 14.4587 216.51 14.64C216.382 14.8213 216.318 15.0987 216.318 15.472C216.318 16.1973 216.574 16.56 217.086 16.56C217.331 16.56 217.523 16.4693 217.662 16.288C217.801 16.1067 217.87 15.8347 217.87 15.472C217.87 15.1093 217.801 14.8373 217.662 14.656C217.523 14.464 217.331 14.368 217.086 14.368Z" fill="white"/>
<path d="M141.178 34.112C141.178 35.04 140.858 35.8133 140.218 36.432C139.589 37.04 138.624 37.344 137.322 37.344H135.178V42H133.722V30.848H137.322C138.581 30.848 139.536 31.152 140.186 31.76C140.848 32.368 141.178 33.152 141.178 34.112ZM137.322 36.144C138.133 36.144 138.73 35.968 139.114 35.616C139.498 35.264 139.69 34.7627 139.69 34.112C139.69 32.736 138.901 32.048 137.322 32.048H135.178V36.144H137.322ZM144.444 34.656C144.7 34.1547 145.063 33.7653 145.532 33.488C146.012 33.2107 146.593 33.072 147.276 33.072V34.576H146.892C145.26 34.576 144.444 35.4613 144.444 37.232V42H142.988V33.232H144.444V34.656ZM152.781 42.144C151.959 42.144 151.213 41.9573 150.541 41.584C149.879 41.2107 149.357 40.6827 148.973 40C148.599 39.3067 148.413 38.5067 148.413 37.6C148.413 36.704 148.605 35.9147 148.989 35.232C149.383 34.5387 149.917 34.0107 150.589 33.648C151.261 33.2747 152.013 33.088 152.845 33.088C153.677 33.088 154.429 33.2747 155.101 33.648C155.773 34.0107 156.301 34.5333 156.685 35.216C157.079 35.8987 157.277 36.6933 157.277 37.6C157.277 38.5067 157.074 39.3067 156.669 40C156.274 40.6827 155.735 41.2107 155.053 41.584C154.37 41.9573 153.613 42.144 152.781 42.144ZM152.781 40.864C153.303 40.864 153.794 40.7413 154.253 40.496C154.711 40.2507 155.079 39.8827 155.357 39.392C155.645 38.9013 155.789 38.304 155.789 37.6C155.789 36.896 155.65 36.2987 155.373 35.808C155.095 35.3173 154.733 34.9547 154.285 34.72C153.837 34.4747 153.351 34.352 152.829 34.352C152.295 34.352 151.805 34.4747 151.357 34.72C150.919 34.9547 150.567 35.3173 150.301 35.808C150.034 36.2987 149.901 36.896 149.901 37.6C149.901 38.3147 150.029 38.9173 150.285 39.408C150.551 39.8987 150.903 40.2667 151.341 40.512C151.778 40.7467 152.258 40.864 152.781 40.864ZM158.647 37.584C158.647 36.688 158.828 35.904 159.191 35.232C159.554 34.5493 160.05 34.0213 160.679 33.648C161.319 33.2747 162.034 33.088 162.823 33.088C163.506 33.088 164.14 33.248 164.727 33.568C165.314 33.8773 165.762 34.288 166.071 34.8V30.16H167.543V42H166.071V40.352C165.783 40.8747 165.356 41.3067 164.791 41.648C164.226 41.9787 163.564 42.144 162.807 42.144C162.028 42.144 161.319 41.952 160.679 41.568C160.05 41.184 159.554 40.6453 159.191 39.952C158.828 39.2587 158.647 38.4693 158.647 37.584ZM166.071 37.6C166.071 36.9387 165.938 36.3627 165.671 35.872C165.404 35.3813 165.042 35.008 164.583 34.752C164.135 34.4853 163.639 34.352 163.095 34.352C162.551 34.352 162.055 34.48 161.607 34.736C161.159 34.992 160.802 35.3653 160.535 35.856C160.268 36.3467 160.135 36.9227 160.135 37.584C160.135 38.256 160.268 38.8427 160.535 39.344C160.802 39.8347 161.159 40.2133 161.607 40.48C162.055 40.736 162.551 40.864 163.095 40.864C163.639 40.864 164.135 40.736 164.583 40.48C165.042 40.2133 165.404 39.8347 165.671 39.344C165.938 38.8427 166.071 38.2613 166.071 37.6ZM177.779 33.232V42H176.323V40.704C176.046 41.152 175.657 41.504 175.155 41.76C174.665 42.0053 174.121 42.128 173.523 42.128C172.841 42.128 172.227 41.9893 171.683 41.712C171.139 41.424 170.707 40.9973 170.387 40.432C170.078 39.8667 169.923 39.1787 169.923 38.368V33.232H171.363V38.176C171.363 39.04 171.582 39.7067 172.019 40.176C172.457 40.6347 173.054 40.864 173.811 40.864C174.59 40.864 175.203 40.624 175.651 40.144C176.099 39.664 176.323 38.9653 176.323 38.048V33.232H177.779ZM179.694 37.6C179.694 36.6933 179.875 35.904 180.238 35.232C180.601 34.5493 181.102 34.0213 181.742 33.648C182.393 33.2747 183.134 33.088 183.966 33.088C185.043 33.088 185.929 33.3493 186.622 33.872C187.326 34.3947 187.79 35.12 188.014 36.048H186.446C186.297 35.5147 186.003 35.0933 185.566 34.784C185.139 34.4747 184.606 34.32 183.966 34.32C183.134 34.32 182.462 34.608 181.95 35.184C181.438 35.7493 181.182 36.5547 181.182 37.6C181.182 38.656 181.438 39.472 181.95 40.048C182.462 40.624 183.134 40.912 183.966 40.912C184.606 40.912 185.139 40.7627 185.566 40.464C185.993 40.1653 186.286 39.7387 186.446 39.184H188.014C187.779 40.08 187.31 40.8 186.606 41.344C185.902 41.8773 185.022 42.144 183.966 42.144C183.134 42.144 182.393 41.9573 181.742 41.584C181.102 41.2107 180.601 40.6827 180.238 40C179.875 39.3173 179.694 38.5173 179.694 37.6ZM191.733 34.432V39.6C191.733 40.0267 191.823 40.3307 192.005 40.512C192.186 40.6827 192.501 40.768 192.949 40.768H194.021V42H192.709C191.898 42 191.29 41.8133 190.885 41.44C190.479 41.0667 190.277 40.4533 190.277 39.6V34.432H189.141V33.232H190.277V31.024H191.733V33.232H194.021V34.432H191.733ZM205.922 42L203.266 37.44H201.506V42H200.05V30.848H203.65C204.493 30.848 205.202 30.992 205.778 31.28C206.365 31.568 206.802 31.9573 207.09 32.448C207.378 32.9387 207.522 33.4987 207.522 34.128C207.522 34.896 207.298 35.5733 206.85 36.16C206.413 36.7467 205.752 37.136 204.866 37.328L207.666 42H205.922ZM201.506 36.272H203.65C204.44 36.272 205.032 36.08 205.426 35.696C205.821 35.3013 206.018 34.7787 206.018 34.128C206.018 33.4667 205.821 32.9547 205.426 32.592C205.042 32.2293 204.45 32.048 203.65 32.048H201.506V36.272ZM217.785 37.28C217.785 37.5573 217.769 37.8507 217.737 38.16H210.729C210.782 39.024 211.075 39.7013 211.609 40.192C212.153 40.672 212.809 40.912 213.577 40.912C214.206 40.912 214.729 40.768 215.145 40.48C215.571 40.1813 215.87 39.7867 216.041 39.296H217.609C217.374 40.1387 216.905 40.8267 216.201 41.36C215.497 41.8827 214.622 42.144 213.577 42.144C212.745 42.144 211.998 41.9573 211.337 41.584C210.686 41.2107 210.174 40.6827 209.801 40C209.427 39.3067 209.241 38.5067 209.241 37.6C209.241 36.6933 209.422 35.8987 209.785 35.216C210.147 34.5333 210.654 34.0107 211.305 33.648C211.966 33.2747 212.723 33.088 213.577 33.088C214.409 33.088 215.145 33.2693 215.785 33.632C216.425 33.9947 216.915 34.496 217.257 35.136C217.609 35.7653 217.785 36.48 217.785 37.28ZM216.281 36.976C216.281 36.4213 216.158 35.9467 215.913 35.552C215.667 35.1467 215.331 34.8427 214.905 34.64C214.489 34.4267 214.025 34.32 213.513 34.32C212.777 34.32 212.147 34.5547 211.625 35.024C211.113 35.4933 210.819 36.144 210.745 36.976H216.281ZM222.811 42.144C222.139 42.144 221.536 42.032 221.003 41.808C220.469 41.5733 220.048 41.2533 219.739 40.848C219.429 40.432 219.259 39.9573 219.227 39.424H220.731C220.773 39.8613 220.976 40.2187 221.339 40.496C221.712 40.7733 222.197 40.912 222.795 40.912C223.349 40.912 223.787 40.7893 224.107 40.544C224.427 40.2987 224.587 39.9893 224.587 39.616C224.587 39.232 224.416 38.9493 224.075 38.768C223.733 38.576 223.205 38.3893 222.491 38.208C221.84 38.0373 221.307 37.8667 220.891 37.696C220.485 37.5147 220.133 37.2533 219.835 36.912C219.547 36.56 219.403 36.1013 219.403 35.536C219.403 35.088 219.536 34.6773 219.803 34.304C220.069 33.9307 220.448 33.6373 220.939 33.424C221.429 33.2 221.989 33.088 222.619 33.088C223.589 33.088 224.373 33.3333 224.971 33.824C225.568 34.3147 225.888 34.9867 225.931 35.84H224.475C224.443 35.3813 224.256 35.0133 223.915 34.736C223.584 34.4587 223.136 34.32 222.571 34.32C222.048 34.32 221.632 34.432 221.323 34.656C221.013 34.88 220.859 35.1733 220.859 35.536C220.859 35.824 220.949 36.064 221.131 36.256C221.323 36.4373 221.557 36.5867 221.835 36.704C222.123 36.8107 222.517 36.9333 223.019 37.072C223.648 37.2427 224.16 37.4133 224.555 37.584C224.949 37.744 225.285 37.9893 225.563 38.32C225.851 38.6507 226 39.0827 226.011 39.616C226.011 40.096 225.877 40.528 225.611 40.912C225.344 41.296 224.965 41.6 224.475 41.824C223.995 42.0373 223.44 42.144 222.811 42.144ZM236.066 37.28C236.066 37.5573 236.05 37.8507 236.018 38.16H229.01C229.063 39.024 229.357 39.7013 229.89 40.192C230.434 40.672 231.09 40.912 231.858 40.912C232.487 40.912 233.01 40.768 233.426 40.48C233.853 40.1813 234.151 39.7867 234.322 39.296H235.89C235.655 40.1387 235.186 40.8267 234.482 41.36C233.778 41.8827 232.903 42.144 231.858 42.144C231.026 42.144 230.279 41.9573 229.618 41.584C228.967 41.2107 228.455 40.6827 228.082 40C227.709 39.3067 227.522 38.5067 227.522 37.6C227.522 36.6933 227.703 35.8987 228.066 35.216C228.429 34.5333 228.935 34.0107 229.586 33.648C230.247 33.2747 231.005 33.088 231.858 33.088C232.69 33.088 233.426 33.2693 234.066 33.632C234.706 33.9947 235.197 34.496 235.538 35.136C235.89 35.7653 236.066 36.48 236.066 37.28ZM234.562 36.976C234.562 36.4213 234.439 35.9467 234.194 35.552C233.949 35.1467 233.613 34.8427 233.186 34.64C232.77 34.4267 232.306 34.32 231.794 34.32C231.058 34.32 230.429 34.5547 229.906 35.024C229.394 35.4933 229.101 36.144 229.026 36.976H234.562ZM237.444 37.584C237.444 36.688 237.625 35.904 237.988 35.232C238.351 34.5493 238.847 34.0213 239.476 33.648C240.116 33.2747 240.825 33.088 241.604 33.088C242.372 33.088 243.039 33.2533 243.604 33.584C244.169 33.9147 244.591 34.3307 244.868 34.832V33.232H246.34V42H244.868V40.368C244.58 40.88 244.148 41.3067 243.572 41.648C243.007 41.9787 242.345 42.144 241.588 42.144C240.809 42.144 240.105 41.952 239.476 41.568C238.847 41.184 238.351 40.6453 237.988 39.952C237.625 39.2587 237.444 38.4693 237.444 37.584ZM244.868 37.6C244.868 36.9387 244.735 36.3627 244.468 35.872C244.201 35.3813 243.839 35.008 243.38 34.752C242.932 34.4853 242.436 34.352 241.892 34.352C241.348 34.352 240.852 34.48 240.404 34.736C239.956 34.992 239.599 35.3653 239.332 35.856C239.065 36.3467 238.932 36.9227 238.932 37.584C238.932 38.256 239.065 38.8427 239.332 39.344C239.599 39.8347 239.956 40.2133 240.404 40.48C240.852 40.736 241.348 40.864 241.892 40.864C242.436 40.864 242.932 40.736 243.38 40.48C243.839 40.2133 244.201 39.8347 244.468 39.344C244.735 38.8427 244.868 38.2613 244.868 37.6ZM250.256 34.656C250.512 34.1547 250.875 33.7653 251.344 33.488C251.824 33.2107 252.406 33.072 253.088 33.072V34.576H252.704C251.072 34.576 250.256 35.4613 250.256 37.232V42H248.8V33.232H250.256V34.656ZM254.225 37.6C254.225 36.6933 254.406 35.904 254.769 35.232C255.132 34.5493 255.633 34.0213 256.273 33.648C256.924 33.2747 257.665 33.088 258.497 33.088C259.574 33.088 260.46 33.3493 261.153 33.872C261.857 34.3947 262.321 35.12 262.545 36.048H260.977C260.828 35.5147 260.534 35.0933 260.097 34.784C259.67 34.4747 259.137 34.32 258.497 34.32C257.665 34.32 256.993 34.608 256.481 35.184C255.969 35.7493 255.713 36.5547 255.713 37.6C255.713 38.656 255.969 39.472 256.481 40.048C256.993 40.624 257.665 40.912 258.497 40.912C259.137 40.912 259.67 40.7627 260.097 40.464C260.524 40.1653 260.817 39.7387 260.977 39.184H262.545C262.31 40.08 261.841 40.8 261.137 41.344C260.433 41.8773 259.553 42.144 258.497 42.144C257.665 42.144 256.924 41.9573 256.273 41.584C255.633 41.2107 255.132 40.6827 254.769 40C254.406 39.3173 254.225 38.5173 254.225 37.6ZM268.84 33.072C269.501 33.072 270.099 33.216 270.632 33.504C271.165 33.7813 271.581 34.2027 271.88 34.768C272.189 35.3333 272.344 36.0213 272.344 36.832V42H270.904V37.04C270.904 36.1653 270.685 35.4987 270.248 35.04C269.811 34.5707 269.213 34.336 268.456 34.336C267.688 34.336 267.075 34.576 266.616 35.056C266.168 35.536 265.944 36.2347 265.944 37.152V42H264.488V30.16H265.944V34.48C266.232 34.032 266.627 33.6853 267.128 33.44C267.64 33.1947 268.211 33.072 268.84 33.072ZM150.946 66L149.49 64.528C148.946 65.0933 148.365 65.5147 147.746 65.792C147.128 66.0587 146.429 66.192 145.65 66.192C144.882 66.192 144.2 66.0533 143.602 65.776C143.016 65.4987 142.557 65.104 142.226 64.592C141.906 64.08 141.746 63.4827 141.746 62.8C141.746 62.0213 141.965 61.3387 142.402 60.752C142.85 60.1547 143.506 59.6853 144.37 59.344C144.029 58.9387 143.784 58.5653 143.634 58.224C143.485 57.8827 143.41 57.5093 143.41 57.104C143.41 56.6347 143.528 56.2133 143.762 55.84C144.008 55.456 144.354 55.1573 144.802 54.944C145.25 54.7307 145.768 54.624 146.354 54.624C146.93 54.624 147.432 54.736 147.858 54.96C148.285 55.184 148.605 55.4987 148.818 55.904C149.032 56.2987 149.128 56.7413 149.106 57.232H147.65C147.661 56.7947 147.538 56.4533 147.282 56.208C147.026 55.952 146.696 55.824 146.29 55.824C145.864 55.824 145.517 55.9467 145.25 56.192C144.994 56.4267 144.866 56.7307 144.866 57.104C144.866 57.424 144.952 57.7333 145.122 58.032C145.304 58.3307 145.602 58.6987 146.018 59.136L149.346 62.48L149.634 62.032L150.722 60.208H152.29L150.978 62.48C150.797 62.8 150.584 63.136 150.338 63.488L152.85 66H150.946ZM145.65 64.944C146.226 64.944 146.744 64.832 147.202 64.608C147.672 64.384 148.114 64.0373 148.53 63.568L145.25 60.272C143.885 60.7947 143.202 61.6213 143.202 62.752C143.202 63.3813 143.426 63.904 143.874 64.32C144.333 64.736 144.925 64.944 145.65 64.944ZM161.952 54.848C163.168 54.848 164.219 55.0773 165.104 55.536C166 55.984 166.683 56.6293 167.152 57.472C167.632 58.3147 167.872 59.3067 167.872 60.448C167.872 61.5893 167.632 62.5813 167.152 63.424C166.683 64.256 166 64.896 165.104 65.344C164.219 65.7813 163.168 66 161.952 66H158.48V54.848H161.952ZM161.952 64.8C163.392 64.8 164.491 64.4213 165.248 63.664C166.005 62.896 166.384 61.824 166.384 60.448C166.384 59.0613 166 57.9787 165.232 57.2C164.475 56.4213 163.381 56.032 161.952 56.032H159.936V64.8H161.952ZM177.793 61.28C177.793 61.5573 177.777 61.8507 177.745 62.16H170.737C170.79 63.024 171.083 63.7013 171.617 64.192C172.161 64.672 172.817 64.912 173.585 64.912C174.214 64.912 174.737 64.768 175.153 64.48C175.579 64.1813 175.878 63.7867 176.049 63.296H177.617C177.382 64.1387 176.913 64.8267 176.209 65.36C175.505 65.8827 174.63 66.144 173.585 66.144C172.753 66.144 172.006 65.9573 171.345 65.584C170.694 65.2107 170.182 64.6827 169.809 64C169.435 63.3067 169.249 62.5067 169.249 61.6C169.249 60.6933 169.43 59.8987 169.793 59.216C170.155 58.5333 170.662 58.0107 171.313 57.648C171.974 57.2747 172.731 57.088 173.585 57.088C174.417 57.088 175.153 57.2693 175.793 57.632C176.433 57.9947 176.923 58.496 177.265 59.136C177.617 59.7653 177.793 60.48 177.793 61.28ZM176.289 60.976C176.289 60.4213 176.166 59.9467 175.921 59.552C175.675 59.1467 175.339 58.8427 174.913 58.64C174.497 58.4267 174.033 58.32 173.521 58.32C172.785 58.32 172.155 58.5547 171.633 59.024C171.121 59.4933 170.827 60.144 170.753 60.976H176.289ZM182.978 64.656L185.698 57.232H187.25L183.81 66H182.114L178.674 57.232H180.242L182.978 64.656ZM196.683 61.28C196.683 61.5573 196.667 61.8507 196.635 62.16H189.627C189.681 63.024 189.974 63.7013 190.507 64.192C191.051 64.672 191.707 64.912 192.475 64.912C193.105 64.912 193.627 64.768 194.043 64.48C194.47 64.1813 194.769 63.7867 194.939 63.296H196.507C196.273 64.1387 195.803 64.8267 195.099 65.36C194.395 65.8827 193.521 66.144 192.475 66.144C191.643 66.144 190.897 65.9573 190.235 65.584C189.585 65.2107 189.073 64.6827 188.699 64C188.326 63.3067 188.139 62.5067 188.139 61.6C188.139 60.6933 188.321 59.8987 188.683 59.216C189.046 58.5333 189.553 58.0107 190.203 57.648C190.865 57.2747 191.622 57.088 192.475 57.088C193.307 57.088 194.043 57.2693 194.683 57.632C195.323 57.9947 195.814 58.496 196.155 59.136C196.507 59.7653 196.683 60.48 196.683 61.28ZM195.179 60.976C195.179 60.4213 195.057 59.9467 194.811 59.552C194.566 59.1467 194.23 58.8427 193.803 58.64C193.387 58.4267 192.923 58.32 192.411 58.32C191.675 58.32 191.046 58.5547 190.523 59.024C190.011 59.4933 189.718 60.144 189.643 60.976H195.179ZM200.061 54.16V66H198.605V54.16H200.061ZM206.367 66.144C205.545 66.144 204.799 65.9573 204.127 65.584C203.465 65.2107 202.943 64.6827 202.559 64C202.185 63.3067 201.999 62.5067 201.999 61.6C201.999 60.704 202.191 59.9147 202.575 59.232C202.969 58.5387 203.503 58.0107 204.175 57.648C204.847 57.2747 205.599 57.088 206.431 57.088C207.263 57.088 208.015 57.2747 208.687 57.648C209.359 58.0107 209.887 58.5333 210.271 59.216C210.665 59.8987 210.863 60.6933 210.863 61.6C210.863 62.5067 210.66 63.3067 210.255 64C209.86 64.6827 209.321 65.2107 208.639 65.584C207.956 65.9573 207.199 66.144 206.367 66.144ZM206.367 64.864C206.889 64.864 207.38 64.7413 207.839 64.496C208.297 64.2507 208.665 63.8827 208.943 63.392C209.231 62.9013 209.375 62.304 209.375 61.6C209.375 60.896 209.236 60.2987 208.959 59.808C208.681 59.3173 208.319 58.9547 207.871 58.72C207.423 58.4747 206.937 58.352 206.415 58.352C205.881 58.352 205.391 58.4747 204.943 58.72C204.505 58.9547 204.153 59.3173 203.887 59.808C203.62 60.2987 203.487 60.896 203.487 61.6C203.487 62.3147 203.615 62.9173 203.871 63.408C204.137 63.8987 204.489 64.2667 204.927 64.512C205.364 64.7467 205.844 64.864 206.367 64.864ZM214.233 58.848C214.521 58.3467 214.948 57.9307 215.513 57.6C216.089 57.2587 216.756 57.088 217.513 57.088C218.292 57.088 218.996 57.2747 219.625 57.648C220.265 58.0213 220.766 58.5493 221.129 59.232C221.492 59.904 221.673 60.688 221.673 61.584C221.673 62.4693 221.492 63.2587 221.129 63.952C220.766 64.6453 220.265 65.184 219.625 65.568C218.996 65.952 218.292 66.144 217.513 66.144C216.766 66.144 216.105 65.9787 215.529 65.648C214.964 65.3067 214.532 64.8853 214.233 64.384V70.16H212.777V57.232H214.233V58.848ZM220.185 61.584C220.185 60.9227 220.052 60.3467 219.785 59.856C219.518 59.3653 219.156 58.992 218.697 58.736C218.249 58.48 217.753 58.352 217.209 58.352C216.676 58.352 216.18 58.4853 215.721 58.752C215.273 59.008 214.91 59.3867 214.633 59.888C214.366 60.3787 214.233 60.9493 214.233 61.6C214.233 62.2613 214.366 62.8427 214.633 63.344C214.91 63.8347 215.273 64.2133 215.721 64.48C216.18 64.736 216.676 64.864 217.209 64.864C217.753 64.864 218.249 64.736 218.697 64.48C219.156 64.2133 219.518 63.8347 219.785 63.344C220.052 62.8427 220.185 62.256 220.185 61.584ZM234.133 57.072C234.816 57.072 235.424 57.216 235.957 57.504C236.491 57.7813 236.912 58.2027 237.221 58.768C237.531 59.3333 237.685 60.0213 237.685 60.832V66H236.245V61.04C236.245 60.1653 236.027 59.4987 235.589 59.04C235.163 58.5707 234.581 58.336 233.845 58.336C233.088 58.336 232.485 58.5813 232.037 59.072C231.589 59.552 231.365 60.2507 231.365 61.168V66H229.925V61.04C229.925 60.1653 229.707 59.4987 229.269 59.04C228.843 58.5707 228.261 58.336 227.525 58.336C226.768 58.336 226.165 58.5813 225.717 59.072C225.269 59.552 225.045 60.2507 225.045 61.168V66H223.589V57.232H225.045V58.496C225.333 58.0373 225.717 57.6853 226.197 57.44C226.688 57.1947 227.227 57.072 227.813 57.072C228.549 57.072 229.2 57.2373 229.765 57.568C230.331 57.8987 230.752 58.384 231.029 59.024C231.275 58.4053 231.68 57.9253 232.245 57.584C232.811 57.2427 233.44 57.072 234.133 57.072ZM248.074 61.28C248.074 61.5573 248.058 61.8507 248.026 62.16H241.018C241.071 63.024 241.364 63.7013 241.898 64.192C242.442 64.672 243.098 64.912 243.866 64.912C244.495 64.912 245.018 64.768 245.434 64.48C245.86 64.1813 246.159 63.7867 246.33 63.296H247.898C247.663 64.1387 247.194 64.8267 246.49 65.36C245.786 65.8827 244.911 66.144 243.866 66.144C243.034 66.144 242.287 65.9573 241.626 65.584C240.975 65.2107 240.463 64.6827 240.09 64C239.716 63.3067 239.53 62.5067 239.53 61.6C239.53 60.6933 239.711 59.8987 240.074 59.216C240.436 58.5333 240.943 58.0107 241.594 57.648C242.255 57.2747 243.012 57.088 243.866 57.088C244.698 57.088 245.434 57.2693 246.074 57.632C246.714 57.9947 247.204 58.496 247.546 59.136C247.898 59.7653 248.074 60.48 248.074 61.28ZM246.57 60.976C246.57 60.4213 246.447 59.9467 246.202 59.552C245.956 59.1467 245.62 58.8427 245.194 58.64C244.778 58.4267 244.314 58.32 243.802 58.32C243.066 58.32 242.436 58.5547 241.914 59.024C241.402 59.4933 241.108 60.144 241.034 60.976H246.57ZM254.268 57.072C255.334 57.072 256.198 57.3973 256.86 58.048C257.521 58.688 257.852 59.616 257.852 60.832V66H256.412V61.04C256.412 60.1653 256.193 59.4987 255.756 59.04C255.318 58.5707 254.721 58.336 253.964 58.336C253.196 58.336 252.582 58.576 252.124 59.056C251.676 59.536 251.452 60.2347 251.452 61.152V66H249.996V57.232H251.452V58.48C251.74 58.032 252.129 57.6853 252.62 57.44C253.121 57.1947 253.67 57.072 254.268 57.072ZM262.006 58.432V63.6C262.006 64.0267 262.097 64.3307 262.278 64.512C262.459 64.6827 262.774 64.768 263.222 64.768H264.294V66H262.982C262.171 66 261.563 65.8133 261.158 65.44C260.753 65.0667 260.55 64.4533 260.55 63.6V58.432H259.414V57.232H260.55V55.024H262.006V57.232H264.294V58.432H262.006Z" fill="#C3C4C5"/>
<path d="M323.115 337.808C323.478 337.52 323.643 337.387 323.611 337.408C324.657 336.544 325.478 335.835 326.075 335.28C326.683 334.725 327.195 334.144 327.611 333.536C328.027 332.928 328.235 332.336 328.235 331.76C328.235 331.323 328.134 330.981 327.931 330.736C327.729 330.491 327.425 330.368 327.019 330.368C326.614 330.368 326.294 330.523 326.059 330.832C325.835 331.131 325.723 331.557 325.723 332.112H323.083C323.105 331.205 323.297 330.448 323.659 329.84C324.033 329.232 324.518 328.784 325.115 328.496C325.723 328.208 326.395 328.064 327.131 328.064C328.401 328.064 329.355 328.389 329.995 329.04C330.646 329.691 330.971 330.539 330.971 331.584C330.971 332.725 330.582 333.787 329.803 334.768C329.025 335.739 328.033 336.688 326.827 337.616H331.147V339.84H323.115V337.808ZM332.352 334C332.352 332.165 332.704 330.72 333.408 329.664C334.123 328.608 335.269 328.08 336.848 328.08C338.427 328.08 339.568 328.608 340.272 329.664C340.987 330.72 341.344 332.165 341.344 334C341.344 335.856 340.987 337.312 340.272 338.368C339.568 339.424 338.427 339.952 336.848 339.952C335.269 339.952 334.123 339.424 333.408 338.368C332.704 337.312 332.352 335.856 332.352 334ZM338.656 334C338.656 332.923 338.539 332.096 338.304 331.52C338.069 330.933 337.584 330.64 336.848 330.64C336.112 330.64 335.627 330.933 335.392 331.52C335.157 332.096 335.04 332.923 335.04 334C335.04 334.725 335.083 335.328 335.168 335.808C335.253 336.277 335.424 336.661 335.68 336.96C335.947 337.248 336.336 337.392 336.848 337.392C337.36 337.392 337.744 337.248 338 336.96C338.267 336.661 338.443 336.277 338.528 335.808C338.613 335.328 338.656 334.725 338.656 334ZM342.565 331.264C342.565 330.4 342.811 329.733 343.301 329.264C343.803 328.795 344.448 328.56 345.237 328.56C346.027 328.56 346.667 328.795 347.157 329.264C347.648 329.733 347.893 330.4 347.893 331.264C347.893 332.128 347.648 332.795 347.157 333.264C346.667 333.733 346.027 333.968 345.237 333.968C344.448 333.968 343.803 333.733 343.301 333.264C342.811 332.795 342.565 332.128 342.565 331.264ZM353.429 328.736L347.269 340H344.629L350.789 328.736H353.429ZM345.221 330.16C344.709 330.16 344.453 330.528 344.453 331.264C344.453 331.989 344.709 332.352 345.221 332.352C345.467 332.352 345.659 332.261 345.797 332.08C345.936 331.899 346.005 331.627 346.005 331.264C346.005 330.528 345.744 330.16 345.221 330.16ZM350.181 337.472C350.181 336.608 350.427 335.941 350.917 335.472C351.408 335.003 352.048 334.768 352.837 334.768C353.627 334.768 354.267 335.003 354.757 335.472C355.248 335.941 355.493 336.608 355.493 337.472C355.493 338.336 355.248 339.003 354.757 339.472C354.267 339.941 353.627 340.176 352.837 340.176C352.048 340.176 351.408 339.941 350.917 339.472C350.427 339.003 350.181 338.336 350.181 337.472ZM352.821 336.368C352.576 336.368 352.384 336.459 352.245 336.64C352.117 336.821 352.053 337.099 352.053 337.472C352.053 338.197 352.309 338.56 352.821 338.56C353.067 338.56 353.259 338.469 353.397 338.288C353.536 338.107 353.605 337.835 353.605 337.472C353.605 337.109 353.536 336.837 353.397 336.656C353.259 336.464 353.067 336.368 352.821 336.368Z" fill="white"/>
<path d="M312.035 352.928V364H310.579V355.744L306.899 364H305.875L302.179 355.728V364H300.723V352.928H302.291L306.387 362.08L310.483 352.928H312.035ZM313.96 359.584C313.96 358.688 314.142 357.904 314.504 357.232C314.867 356.549 315.363 356.021 315.992 355.648C316.632 355.275 317.342 355.088 318.12 355.088C318.888 355.088 319.555 355.253 320.12 355.584C320.686 355.915 321.107 356.331 321.384 356.832V355.232H322.856V364H321.384V362.368C321.096 362.88 320.664 363.307 320.088 363.648C319.523 363.979 318.862 364.144 318.104 364.144C317.326 364.144 316.622 363.952 315.992 363.568C315.363 363.184 314.867 362.645 314.504 361.952C314.142 361.259 313.96 360.469 313.96 359.584ZM321.384 359.6C321.384 358.939 321.251 358.363 320.984 357.872C320.718 357.381 320.355 357.008 319.896 356.752C319.448 356.485 318.952 356.352 318.408 356.352C317.864 356.352 317.368 356.48 316.92 356.736C316.472 356.992 316.115 357.365 315.848 357.856C315.582 358.347 315.448 358.923 315.448 359.584C315.448 360.256 315.582 360.843 315.848 361.344C316.115 361.835 316.472 362.213 316.92 362.48C317.368 362.736 317.864 362.864 318.408 362.864C318.952 362.864 319.448 362.736 319.896 362.48C320.355 362.213 320.718 361.835 320.984 361.344C321.251 360.843 321.384 360.261 321.384 359.6ZM326.773 356.656C327.029 356.155 327.392 355.765 327.861 355.488C328.341 355.211 328.922 355.072 329.605 355.072V356.576H329.221C327.589 356.576 326.773 357.461 326.773 359.232V364H325.317V355.232H326.773V356.656ZM336.182 364L332.742 360.128V364H331.286V352.16H332.742V359.12L336.118 355.232H338.15L334.022 359.6L338.166 364H336.182ZM347.52 359.28C347.52 359.557 347.504 359.851 347.472 360.16H340.464C340.517 361.024 340.811 361.701 341.344 362.192C341.888 362.672 342.544 362.912 343.312 362.912C343.941 362.912 344.464 362.768 344.88 362.48C345.307 362.181 345.605 361.787 345.776 361.296H347.344C347.109 362.139 346.64 362.827 345.936 363.36C345.232 363.883 344.357 364.144 343.312 364.144C342.48 364.144 341.733 363.957 341.072 363.584C340.421 363.211 339.909 362.683 339.536 362C339.163 361.307 338.976 360.507 338.976 359.6C338.976 358.693 339.157 357.899 339.52 357.216C339.883 356.533 340.389 356.011 341.04 355.648C341.701 355.275 342.459 355.088 343.312 355.088C344.144 355.088 344.88 355.269 345.52 355.632C346.16 355.995 346.651 356.496 346.992 357.136C347.344 357.765 347.52 358.48 347.52 359.28ZM346.016 358.976C346.016 358.421 345.893 357.947 345.648 357.552C345.403 357.147 345.067 356.843 344.64 356.64C344.224 356.427 343.76 356.32 343.248 356.32C342.512 356.32 341.883 356.555 341.36 357.024C340.848 357.493 340.555 358.144 340.48 358.976H346.016ZM351.218 356.432V361.6C351.218 362.027 351.309 362.331 351.49 362.512C351.671 362.683 351.986 362.768 352.434 362.768H353.506V364H352.194C351.383 364 350.775 363.813 350.37 363.44C349.965 363.067 349.762 362.453 349.762 361.6V356.432H348.626V355.232H349.762V353.024H351.218V355.232H353.506V356.432H351.218ZM356.022 353.808C355.745 353.808 355.51 353.712 355.318 353.52C355.126 353.328 355.03 353.093 355.03 352.816C355.03 352.539 355.126 352.304 355.318 352.112C355.51 351.92 355.745 351.824 356.022 351.824C356.289 351.824 356.513 351.92 356.694 352.112C356.886 352.304 356.982 352.539 356.982 352.816C356.982 353.093 356.886 353.328 356.694 353.52C356.513 353.712 356.289 353.808 356.022 353.808ZM356.726 355.232V364H355.27V355.232H356.726ZM363.48 355.072C364.546 355.072 365.41 355.397 366.072 356.048C366.733 356.688 367.064 357.616 367.064 358.832V364H365.624V359.04C365.624 358.165 365.405 357.499 364.968 357.04C364.53 356.571 363.933 356.336 363.176 356.336C362.408 356.336 361.794 356.576 361.336 357.056C360.888 357.536 360.664 358.235 360.664 359.152V364H359.208V355.232H360.664V356.48C360.952 356.032 361.341 355.685 361.832 355.44C362.333 355.195 362.882 355.072 363.48 355.072ZM373.058 355.088C373.815 355.088 374.477 355.253 375.042 355.584C375.618 355.915 376.045 356.331 376.322 356.832V355.232H377.794V364.192C377.794 364.992 377.623 365.701 377.282 366.32C376.941 366.949 376.45 367.44 375.81 367.792C375.181 368.144 374.445 368.32 373.602 368.32C372.45 368.32 371.49 368.048 370.722 367.504C369.954 366.96 369.501 366.219 369.362 365.28H370.802C370.962 365.813 371.293 366.24 371.794 366.56C372.295 366.891 372.898 367.056 373.602 367.056C374.402 367.056 375.053 366.805 375.554 366.304C376.066 365.803 376.322 365.099 376.322 364.192V362.352C376.034 362.864 375.607 363.291 375.042 363.632C374.477 363.973 373.815 364.144 373.058 364.144C372.279 364.144 371.57 363.952 370.93 363.568C370.301 363.184 369.805 362.645 369.442 361.952C369.079 361.259 368.898 360.469 368.898 359.584C368.898 358.688 369.079 357.904 369.442 357.232C369.805 356.549 370.301 356.021 370.93 355.648C371.57 355.275 372.279 355.088 373.058 355.088ZM376.322 359.6C376.322 358.939 376.189 358.363 375.922 357.872C375.655 357.381 375.293 357.008 374.834 356.752C374.386 356.485 373.89 356.352 373.346 356.352C372.802 356.352 372.306 356.48 371.858 356.736C371.41 356.992 371.053 357.365 370.786 357.856C370.519 358.347 370.386 358.923 370.386 359.584C370.386 360.256 370.519 360.843 370.786 361.344C371.053 361.835 371.41 362.213 371.858 362.48C372.306 362.736 372.802 362.864 373.346 362.864C373.89 362.864 374.386 362.736 374.834 362.48C375.293 362.213 375.655 361.835 375.922 361.344C376.189 360.843 376.322 360.261 376.322 359.6Z" fill="#C3C4C5"/>
<path d="M154.922 385.864V383.32H159.354V395H156.506V385.864H154.922ZM169.45 385.704H164.458V387.912C164.671 387.677 164.97 387.485 165.354 387.336C165.738 387.187 166.154 387.112 166.602 387.112C167.402 387.112 168.063 387.293 168.586 387.656C169.119 388.019 169.509 388.488 169.754 389.064C169.999 389.64 170.122 390.264 170.122 390.936C170.122 392.184 169.77 393.176 169.066 393.912C168.362 394.637 167.37 395 166.09 395C165.237 395 164.495 394.856 163.866 394.568C163.237 394.269 162.751 393.859 162.41 393.336C162.069 392.813 161.882 392.211 161.85 391.528H164.522C164.586 391.859 164.741 392.136 164.986 392.36C165.231 392.573 165.567 392.68 165.994 392.68C166.495 392.68 166.869 392.52 167.114 392.2C167.359 391.88 167.482 391.453 167.482 390.92C167.482 390.397 167.354 389.997 167.098 389.72C166.842 389.443 166.469 389.304 165.978 389.304C165.615 389.304 165.317 389.395 165.082 389.576C164.847 389.747 164.693 389.976 164.618 390.264H161.978V383.304H169.45V385.704ZM171.408 386.264C171.408 385.4 171.653 384.733 172.144 384.264C172.645 383.795 173.291 383.56 174.08 383.56C174.869 383.56 175.509 383.795 176 384.264C176.491 384.733 176.736 385.4 176.736 386.264C176.736 387.128 176.491 387.795 176 388.264C175.509 388.733 174.869 388.968 174.08 388.968C173.291 388.968 172.645 388.733 172.144 388.264C171.653 387.795 171.408 387.128 171.408 386.264ZM182.272 383.736L176.112 395H173.472L179.632 383.736H182.272ZM174.064 385.16C173.552 385.16 173.296 385.528 173.296 386.264C173.296 386.989 173.552 387.352 174.064 387.352C174.309 387.352 174.501 387.261 174.64 387.08C174.779 386.899 174.848 386.627 174.848 386.264C174.848 385.528 174.587 385.16 174.064 385.16ZM179.024 392.472C179.024 391.608 179.269 390.941 179.76 390.472C180.251 390.003 180.891 389.768 181.68 389.768C182.469 389.768 183.109 390.003 183.6 390.472C184.091 390.941 184.336 391.608 184.336 392.472C184.336 393.336 184.091 394.003 183.6 394.472C183.109 394.941 182.469 395.176 181.68 395.176C180.891 395.176 180.251 394.941 179.76 394.472C179.269 394.003 179.024 393.336 179.024 392.472ZM181.664 391.368C181.419 391.368 181.227 391.459 181.088 391.64C180.96 391.821 180.896 392.099 180.896 392.472C180.896 393.197 181.152 393.56 181.664 393.56C181.909 393.56 182.101 393.469 182.24 393.288C182.379 393.107 182.448 392.835 182.448 392.472C182.448 392.109 182.379 391.837 182.24 391.656C182.101 391.464 181.909 391.368 181.664 391.368Z" fill="white"/>
<path d="M131.778 419.112C130.744 419.112 129.8 418.872 128.946 418.392C128.093 417.901 127.416 417.224 126.914 416.36C126.424 415.485 126.178 414.504 126.178 413.416C126.178 412.328 126.424 411.352 126.914 410.488C127.416 409.613 128.093 408.936 128.946 408.456C129.8 407.965 130.744 407.72 131.778 407.72C132.824 407.72 133.773 407.965 134.626 408.456C135.48 408.936 136.152 409.608 136.642 410.472C137.133 411.336 137.378 412.317 137.378 413.416C137.378 414.515 137.133 415.496 136.642 416.36C136.152 417.224 135.48 417.901 134.626 418.392C133.773 418.872 132.824 419.112 131.778 419.112ZM131.778 417.848C132.557 417.848 133.256 417.667 133.874 417.304C134.504 416.941 134.994 416.424 135.346 415.752C135.709 415.08 135.89 414.301 135.89 413.416C135.89 412.52 135.709 411.741 135.346 411.08C134.994 410.408 134.509 409.891 133.89 409.528C133.272 409.165 132.568 408.984 131.778 408.984C130.989 408.984 130.285 409.165 129.666 409.528C129.048 409.891 128.557 410.408 128.194 411.08C127.842 411.741 127.666 412.52 127.666 413.416C127.666 414.301 127.842 415.08 128.194 415.752C128.557 416.424 129.048 416.941 129.666 417.304C130.296 417.667 131 417.848 131.778 417.848ZM140.756 411.848C141.044 411.347 141.471 410.931 142.036 410.6C142.612 410.259 143.279 410.088 144.036 410.088C144.815 410.088 145.519 410.275 146.148 410.648C146.788 411.021 147.29 411.549 147.652 412.232C148.015 412.904 148.196 413.688 148.196 414.584C148.196 415.469 148.015 416.259 147.652 416.952C147.29 417.645 146.788 418.184 146.148 418.568C145.519 418.952 144.815 419.144 144.036 419.144C143.29 419.144 142.628 418.979 142.052 418.648C141.487 418.307 141.055 417.885 140.756 417.384V423.16H139.3V410.232H140.756V411.848ZM146.708 414.584C146.708 413.923 146.575 413.347 146.308 412.856C146.042 412.365 145.679 411.992 145.22 411.736C144.772 411.48 144.276 411.352 143.732 411.352C143.199 411.352 142.703 411.485 142.244 411.752C141.796 412.008 141.434 412.387 141.156 412.888C140.89 413.379 140.756 413.949 140.756 414.6C140.756 415.261 140.89 415.843 141.156 416.344C141.434 416.835 141.796 417.213 142.244 417.48C142.703 417.736 143.199 417.864 143.732 417.864C144.276 417.864 144.772 417.736 145.22 417.48C145.679 417.213 146.042 416.835 146.308 416.344C146.575 415.843 146.708 415.256 146.708 414.584ZM158.113 414.28C158.113 414.557 158.097 414.851 158.065 415.16H151.057C151.11 416.024 151.404 416.701 151.937 417.192C152.481 417.672 153.137 417.912 153.905 417.912C154.534 417.912 155.057 417.768 155.473 417.48C155.9 417.181 156.198 416.787 156.369 416.296H157.937C157.702 417.139 157.233 417.827 156.529 418.36C155.825 418.883 154.95 419.144 153.905 419.144C153.073 419.144 152.326 418.957 151.665 418.584C151.014 418.211 150.502 417.683 150.129 417C149.756 416.307 149.569 415.507 149.569 414.6C149.569 413.693 149.75 412.899 150.113 412.216C150.476 411.533 150.982 411.011 151.633 410.648C152.294 410.275 153.052 410.088 153.905 410.088C154.737 410.088 155.473 410.269 156.113 410.632C156.753 410.995 157.244 411.496 157.585 412.136C157.937 412.765 158.113 413.48 158.113 414.28ZM156.609 413.976C156.609 413.421 156.486 412.947 156.241 412.552C155.996 412.147 155.66 411.843 155.233 411.64C154.817 411.427 154.353 411.32 153.841 411.32C153.105 411.32 152.476 411.555 151.953 412.024C151.441 412.493 151.148 413.144 151.073 413.976H156.609ZM161.491 411.656C161.747 411.155 162.109 410.765 162.579 410.488C163.059 410.211 163.64 410.072 164.323 410.072V411.576H163.939C162.307 411.576 161.491 412.461 161.491 414.232V419H160.035V410.232H161.491V411.656ZM165.459 414.584C165.459 413.688 165.641 412.904 166.003 412.232C166.366 411.549 166.862 411.021 167.491 410.648C168.131 410.275 168.841 410.088 169.619 410.088C170.387 410.088 171.054 410.253 171.619 410.584C172.185 410.915 172.606 411.331 172.883 411.832V410.232H174.355V419H172.883V417.368C172.595 417.88 172.163 418.307 171.587 418.648C171.022 418.979 170.361 419.144 169.603 419.144C168.825 419.144 168.121 418.952 167.491 418.568C166.862 418.184 166.366 417.645 166.003 416.952C165.641 416.259 165.459 415.469 165.459 414.584ZM172.883 414.6C172.883 413.939 172.75 413.363 172.483 412.872C172.217 412.381 171.854 412.008 171.395 411.752C170.947 411.485 170.451 411.352 169.907 411.352C169.363 411.352 168.867 411.48 168.419 411.736C167.971 411.992 167.614 412.365 167.347 412.856C167.081 413.347 166.947 413.923 166.947 414.584C166.947 415.256 167.081 415.843 167.347 416.344C167.614 416.835 167.971 417.213 168.419 417.48C168.867 417.736 169.363 417.864 169.907 417.864C170.451 417.864 170.947 417.736 171.395 417.48C171.854 417.213 172.217 416.835 172.483 416.344C172.75 415.843 172.883 415.261 172.883 414.6ZM178.592 411.432V416.6C178.592 417.027 178.683 417.331 178.864 417.512C179.045 417.683 179.36 417.768 179.808 417.768H180.88V419H179.568C178.757 419 178.149 418.813 177.744 418.44C177.339 418.067 177.136 417.453 177.136 416.6V411.432H176V410.232H177.136V408.024H178.592V410.232H180.88V411.432H178.592ZM183.396 408.808C183.119 408.808 182.884 408.712 182.692 408.52C182.5 408.328 182.404 408.093 182.404 407.816C182.404 407.539 182.5 407.304 182.692 407.112C182.884 406.92 183.119 406.824 183.396 406.824C183.663 406.824 183.887 406.92 184.068 407.112C184.26 407.304 184.356 407.539 184.356 407.816C184.356 408.093 184.26 408.328 184.068 408.52C183.887 408.712 183.663 408.808 183.396 408.808ZM184.1 410.232V419H182.644V410.232H184.1ZM190.406 419.144C189.584 419.144 188.838 418.957 188.166 418.584C187.504 418.211 186.982 417.683 186.598 417C186.224 416.307 186.038 415.507 186.038 414.6C186.038 413.704 186.23 412.915 186.614 412.232C187.008 411.539 187.542 411.011 188.214 410.648C188.886 410.275 189.638 410.088 190.47 410.088C191.302 410.088 192.054 410.275 192.726 410.648C193.398 411.011 193.926 411.533 194.31 412.216C194.704 412.899 194.902 413.693 194.902 414.6C194.902 415.507 194.699 416.307 194.294 417C193.899 417.683 193.36 418.211 192.678 418.584C191.995 418.957 191.238 419.144 190.406 419.144ZM190.406 417.864C190.928 417.864 191.419 417.741 191.878 417.496C192.336 417.251 192.704 416.883 192.982 416.392C193.27 415.901 193.414 415.304 193.414 414.6C193.414 413.896 193.275 413.299 192.998 412.808C192.72 412.317 192.358 411.955 191.91 411.72C191.462 411.475 190.976 411.352 190.454 411.352C189.92 411.352 189.43 411.475 188.982 411.72C188.544 411.955 188.192 412.317 187.926 412.808C187.659 413.299 187.526 413.896 187.526 414.6C187.526 415.315 187.654 415.917 187.91 416.408C188.176 416.899 188.528 417.267 188.966 417.512C189.403 417.747 189.883 417.864 190.406 417.864ZM201.088 410.072C202.155 410.072 203.019 410.397 203.68 411.048C204.341 411.688 204.672 412.616 204.672 413.832V419H203.232V414.04C203.232 413.165 203.013 412.499 202.576 412.04C202.139 411.571 201.541 411.336 200.784 411.336C200.016 411.336 199.403 411.576 198.944 412.056C198.496 412.536 198.272 413.235 198.272 414.152V419H196.816V410.232H198.272V411.48C198.56 411.032 198.949 410.685 199.44 410.44C199.941 410.195 200.491 410.072 201.088 410.072ZM210.154 419.144C209.482 419.144 208.88 419.032 208.346 418.808C207.813 418.573 207.392 418.253 207.082 417.848C206.773 417.432 206.602 416.957 206.57 416.424H208.074C208.117 416.861 208.32 417.219 208.682 417.496C209.056 417.773 209.541 417.912 210.138 417.912C210.693 417.912 211.13 417.789 211.45 417.544C211.77 417.299 211.93 416.989 211.93 416.616C211.93 416.232 211.76 415.949 211.418 415.768C211.077 415.576 210.549 415.389 209.834 415.208C209.184 415.037 208.65 414.867 208.234 414.696C207.829 414.515 207.477 414.253 207.178 413.912C206.89 413.56 206.746 413.101 206.746 412.536C206.746 412.088 206.88 411.677 207.146 411.304C207.413 410.931 207.792 410.637 208.282 410.424C208.773 410.2 209.333 410.088 209.962 410.088C210.933 410.088 211.717 410.333 212.314 410.824C212.912 411.315 213.232 411.987 213.274 412.84H211.818C211.786 412.381 211.6 412.013 211.258 411.736C210.928 411.459 210.48 411.32 209.914 411.32C209.392 411.32 208.976 411.432 208.666 411.656C208.357 411.88 208.202 412.173 208.202 412.536C208.202 412.824 208.293 413.064 208.474 413.256C208.666 413.437 208.901 413.587 209.178 413.704C209.466 413.811 209.861 413.933 210.362 414.072C210.992 414.243 211.504 414.413 211.898 414.584C212.293 414.744 212.629 414.989 212.906 415.32C213.194 415.651 213.344 416.083 213.354 416.616C213.354 417.096 213.221 417.528 212.954 417.912C212.688 418.296 212.309 418.6 211.818 418.824C211.338 419.037 210.784 419.144 210.154 419.144Z" fill="#C3C4C5"/>
<path d="M51.9227 319.864V317.32H56.3547V329H53.5067V319.864H51.9227ZM58.2263 323C58.2263 321.165 58.5783 319.72 59.2823 318.664C59.997 317.608 61.1437 317.08 62.7223 317.08C64.301 317.08 65.4423 317.608 66.1463 318.664C66.861 319.72 67.2183 321.165 67.2183 323C67.2183 324.856 66.861 326.312 66.1463 327.368C65.4423 328.424 64.301 328.952 62.7223 328.952C61.1437 328.952 59.997 328.424 59.2823 327.368C58.5783 326.312 58.2263 324.856 58.2263 323ZM64.5303 323C64.5303 321.923 64.413 321.096 64.1783 320.52C63.9437 319.933 63.4583 319.64 62.7223 319.64C61.9863 319.64 61.501 319.933 61.2663 320.52C61.0317 321.096 60.9143 321.923 60.9143 323C60.9143 323.725 60.957 324.328 61.0423 324.808C61.1277 325.277 61.2983 325.661 61.5543 325.96C61.821 326.248 62.2103 326.392 62.7223 326.392C63.2343 326.392 63.6183 326.248 63.8743 325.96C64.141 325.661 64.317 325.277 64.4023 324.808C64.4877 324.328 64.5303 323.725 64.5303 323ZM68.4398 320.264C68.4398 319.4 68.6852 318.733 69.1758 318.264C69.6772 317.795 70.3225 317.56 71.1118 317.56C71.9012 317.56 72.5412 317.795 73.0318 318.264C73.5225 318.733 73.7678 319.4 73.7678 320.264C73.7678 321.128 73.5225 321.795 73.0318 322.264C72.5412 322.733 71.9012 322.968 71.1118 322.968C70.3225 322.968 69.6772 322.733 69.1758 322.264C68.6852 321.795 68.4398 321.128 68.4398 320.264ZM79.3038 317.736L73.1438 329H70.5038L76.6638 317.736H79.3038ZM71.0958 319.16C70.5838 319.16 70.3278 319.528 70.3278 320.264C70.3278 320.989 70.5838 321.352 71.0958 321.352C71.3412 321.352 71.5332 321.261 71.6718 321.08C71.8105 320.899 71.8798 320.627 71.8798 320.264C71.8798 319.528 71.6185 319.16 71.0958 319.16ZM76.0558 326.472C76.0558 325.608 76.3012 324.941 76.7918 324.472C77.2825 324.003 77.9225 323.768 78.7118 323.768C79.5012 323.768 80.1412 324.003 80.6318 324.472C81.1225 324.941 81.3678 325.608 81.3678 326.472C81.3678 327.336 81.1225 328.003 80.6318 328.472C80.1412 328.941 79.5012 329.176 78.7118 329.176C77.9225 329.176 77.2825 328.941 76.7918 328.472C76.3012 328.003 76.0558 327.336 76.0558 326.472ZM78.6958 325.368C78.4505 325.368 78.2585 325.459 78.1198 325.64C77.9918 325.821 77.9278 326.099 77.9278 326.472C77.9278 327.197 78.1838 327.56 78.6958 327.56C78.9412 327.56 79.1332 327.469 79.2718 327.288C79.4105 327.107 79.4798 326.835 79.4798 326.472C79.4798 326.109 79.4105 325.837 79.2718 325.656C79.1332 325.464 78.9412 325.368 78.6958 325.368Z" fill="white"/>
<path d="M17.5947 353L14.9387 348.44H13.1787V353H11.7227V341.848H15.3227C16.1654 341.848 16.8747 341.992 17.4507 342.28C18.0374 342.568 18.4747 342.957 18.7627 343.448C19.0507 343.939 19.1947 344.499 19.1947 345.128C19.1947 345.896 18.9707 346.573 18.5227 347.16C18.0854 347.747 17.4241 348.136 16.5387 348.328L19.3387 353H17.5947ZM13.1787 347.272H15.3227C16.1121 347.272 16.7041 347.08 17.0987 346.696C17.4934 346.301 17.6907 345.779 17.6907 345.128C17.6907 344.467 17.4934 343.955 17.0987 343.592C16.7147 343.229 16.1227 343.048 15.3227 343.048H13.1787V347.272ZM29.4571 348.28C29.4571 348.557 29.4411 348.851 29.4091 349.16H22.4011C22.4544 350.024 22.7478 350.701 23.2811 351.192C23.8251 351.672 24.4811 351.912 25.2491 351.912C25.8784 351.912 26.4011 351.768 26.8171 351.48C27.2438 351.181 27.5424 350.787 27.7131 350.296H29.2811C29.0464 351.139 28.5771 351.827 27.8731 352.36C27.1691 352.883 26.2944 353.144 25.2491 353.144C24.4171 353.144 23.6704 352.957 23.0091 352.584C22.3584 352.211 21.8464 351.683 21.4731 351C21.0998 350.307 20.9131 349.507 20.9131 348.6C20.9131 347.693 21.0944 346.899 21.4571 346.216C21.8198 345.533 22.3264 345.011 22.9771 344.648C23.6384 344.275 24.3958 344.088 25.2491 344.088C26.0811 344.088 26.8171 344.269 27.4571 344.632C28.0971 344.995 28.5878 345.496 28.9291 346.136C29.2811 346.765 29.4571 347.48 29.4571 348.28ZM27.9531 347.976C27.9531 347.421 27.8304 346.947 27.5851 346.552C27.3398 346.147 27.0038 345.843 26.5771 345.64C26.1611 345.427 25.6971 345.32 25.1851 345.32C24.4491 345.32 23.8198 345.555 23.2971 346.024C22.7851 346.493 22.4918 347.144 22.4171 347.976H27.9531ZM34.483 353.144C33.811 353.144 33.2083 353.032 32.675 352.808C32.1416 352.573 31.7203 352.253 31.411 351.848C31.1016 351.432 30.931 350.957 30.899 350.424H32.403C32.4456 350.861 32.6483 351.219 33.011 351.496C33.3843 351.773 33.8696 351.912 34.467 351.912C35.0216 351.912 35.459 351.789 35.779 351.544C36.099 351.299 36.259 350.989 36.259 350.616C36.259 350.232 36.0883 349.949 35.747 349.768C35.4056 349.576 34.8776 349.389 34.163 349.208C33.5123 349.037 32.979 348.867 32.563 348.696C32.1576 348.515 31.8056 348.253 31.507 347.912C31.219 347.56 31.075 347.101 31.075 346.536C31.075 346.088 31.2083 345.677 31.475 345.304C31.7416 344.931 32.1203 344.637 32.611 344.424C33.1016 344.2 33.6616 344.088 34.291 344.088C35.2616 344.088 36.0456 344.333 36.643 344.824C37.2403 345.315 37.5603 345.987 37.603 346.84H36.147C36.115 346.381 35.9283 346.013 35.587 345.736C35.2563 345.459 34.8083 345.32 34.243 345.32C33.7203 345.32 33.3043 345.432 32.995 345.656C32.6856 345.88 32.531 346.173 32.531 346.536C32.531 346.824 32.6216 347.064 32.803 347.256C32.995 347.437 33.2296 347.587 33.507 347.704C33.795 347.811 34.1896 347.933 34.691 348.072C35.3203 348.243 35.8323 348.413 36.227 348.584C36.6216 348.744 36.9576 348.989 37.235 349.32C37.523 349.651 37.6723 350.083 37.683 350.616C37.683 351.096 37.5496 351.528 37.283 351.912C37.0163 352.296 36.6376 352.6 36.147 352.824C35.667 353.037 35.1123 353.144 34.483 353.144ZM47.7383 348.28C47.7383 348.557 47.7223 348.851 47.6903 349.16H40.6823C40.7357 350.024 41.029 350.701 41.5623 351.192C42.1063 351.672 42.7623 351.912 43.5303 351.912C44.1597 351.912 44.6823 351.768 45.0983 351.48C45.525 351.181 45.8237 350.787 45.9943 350.296H47.5623C47.3277 351.139 46.8583 351.827 46.1543 352.36C45.4503 352.883 44.5757 353.144 43.5303 353.144C42.6983 353.144 41.9517 352.957 41.2903 352.584C40.6397 352.211 40.1277 351.683 39.7543 351C39.381 350.307 39.1943 349.507 39.1943 348.6C39.1943 347.693 39.3757 346.899 39.7383 346.216C40.101 345.533 40.6077 345.011 41.2583 344.648C41.9197 344.275 42.677 344.088 43.5303 344.088C44.3623 344.088 45.0983 344.269 45.7383 344.632C46.3783 344.995 46.869 345.496 47.2103 346.136C47.5623 346.765 47.7383 347.48 47.7383 348.28ZM46.2343 347.976C46.2343 347.421 46.1117 346.947 45.8663 346.552C45.621 346.147 45.285 345.843 44.8583 345.64C44.4423 345.427 43.9783 345.32 43.4663 345.32C42.7303 345.32 42.101 345.555 41.5783 346.024C41.0663 346.493 40.773 347.144 40.6983 347.976H46.2343ZM51.1162 345.656C51.3722 345.155 51.7349 344.765 52.2042 344.488C52.6842 344.211 53.2656 344.072 53.9482 344.072V345.576H53.5642C51.9322 345.576 51.1162 346.461 51.1162 348.232V353H49.6602V344.232H51.1162V345.656ZM58.893 351.656L61.613 344.232H63.165L59.725 353H58.029L54.589 344.232H56.157L58.893 351.656ZM72.5977 348.28C72.5977 348.557 72.5817 348.851 72.5497 349.16H65.5417C65.5951 350.024 65.8884 350.701 66.4217 351.192C66.9657 351.672 67.6217 351.912 68.3897 351.912C69.0191 351.912 69.5417 351.768 69.9577 351.48C70.3844 351.181 70.6831 350.787 70.8537 350.296H72.4217C72.1871 351.139 71.7177 351.827 71.0137 352.36C70.3097 352.883 69.4351 353.144 68.3897 353.144C67.5577 353.144 66.8111 352.957 66.1497 352.584C65.4991 352.211 64.9871 351.683 64.6137 351C64.2404 350.307 64.0537 349.507 64.0537 348.6C64.0537 347.693 64.2351 346.899 64.5977 346.216C64.9604 345.533 65.4671 345.011 66.1177 344.648C66.7791 344.275 67.5364 344.088 68.3897 344.088C69.2217 344.088 69.9577 344.269 70.5977 344.632C71.2377 344.995 71.7284 345.496 72.0697 346.136C72.4217 346.765 72.5977 347.48 72.5977 348.28ZM71.0937 347.976C71.0937 347.421 70.9711 346.947 70.7257 346.552C70.4804 346.147 70.1444 345.843 69.7177 345.64C69.3017 345.427 68.8377 345.32 68.3257 345.32C67.5897 345.32 66.9604 345.555 66.4377 346.024C65.9257 346.493 65.6324 347.144 65.5577 347.976H71.0937ZM77.6236 353.144C76.9516 353.144 76.3489 353.032 75.8156 352.808C75.2823 352.573 74.8609 352.253 74.5516 351.848C74.2423 351.432 74.0716 350.957 74.0396 350.424H75.5436C75.5863 350.861 75.7889 351.219 76.1516 351.496C76.5249 351.773 77.0103 351.912 77.6076 351.912C78.1623 351.912 78.5996 351.789 78.9196 351.544C79.2396 351.299 79.3996 350.989 79.3996 350.616C79.3996 350.232 79.2289 349.949 78.8876 349.768C78.5463 349.576 78.0183 349.389 77.3036 349.208C76.6529 349.037 76.1196 348.867 75.7036 348.696C75.2983 348.515 74.9463 348.253 74.6476 347.912C74.3596 347.56 74.2156 347.101 74.2156 346.536C74.2156 346.088 74.3489 345.677 74.6156 345.304C74.8823 344.931 75.2609 344.637 75.7516 344.424C76.2423 344.2 76.8023 344.088 77.4316 344.088C78.4023 344.088 79.1863 344.333 79.7836 344.824C80.3809 345.315 80.7009 345.987 80.7436 346.84H79.2876C79.2556 346.381 79.0689 346.013 78.7276 345.736C78.3969 345.459 77.9489 345.32 77.3836 345.32C76.8609 345.32 76.4449 345.432 76.1356 345.656C75.8263 345.88 75.6716 346.173 75.6716 346.536C75.6716 346.824 75.7623 347.064 75.9436 347.256C76.1356 347.437 76.3703 347.587 76.6476 347.704C76.9356 347.811 77.3303 347.933 77.8316 348.072C78.4609 348.243 78.9729 348.413 79.3676 348.584C79.7623 348.744 80.0983 348.989 80.3756 349.32C80.6636 349.651 80.8129 350.083 80.8236 350.616C80.8236 351.096 80.6903 351.528 80.4236 351.912C80.1569 352.296 79.7783 352.6 79.2876 352.824C78.8076 353.037 78.2529 353.144 77.6236 353.144Z" fill="#C3C4C5"/>
<path d="M29.4347 230.704H24.4427V232.912C24.6561 232.677 24.9547 232.485 25.3387 232.336C25.7227 232.187 26.1387 232.112 26.5867 232.112C27.3867 232.112 28.0481 232.293 28.5707 232.656C29.1041 233.019 29.4934 233.488 29.7387 234.064C29.9841 234.64 30.1067 235.264 30.1067 235.936C30.1067 237.184 29.7547 238.176 29.0507 238.912C28.3467 239.637 27.3547 240 26.0747 240C25.2214 240 24.4801 239.856 23.8507 239.568C23.2214 239.269 22.7361 238.859 22.3947 238.336C22.0534 237.813 21.8667 237.211 21.8347 236.528H24.5067C24.5707 236.859 24.7254 237.136 24.9707 237.36C25.2161 237.573 25.5521 237.68 25.9787 237.68C26.4801 237.68 26.8534 237.52 27.0987 237.2C27.3441 236.88 27.4667 236.453 27.4667 235.92C27.4667 235.397 27.3387 234.997 27.0827 234.72C26.8267 234.443 26.4534 234.304 25.9627 234.304C25.6001 234.304 25.3014 234.395 25.0667 234.576C24.8321 234.747 24.6774 234.976 24.6027 235.264H21.9627V228.304H29.4347V230.704ZM31.393 231.264C31.393 230.4 31.6383 229.733 32.129 229.264C32.6303 228.795 33.2756 228.56 34.065 228.56C34.8543 228.56 35.4943 228.795 35.985 229.264C36.4756 229.733 36.721 230.4 36.721 231.264C36.721 232.128 36.4756 232.795 35.985 233.264C35.4943 233.733 34.8543 233.968 34.065 233.968C33.2756 233.968 32.6303 233.733 32.129 233.264C31.6383 232.795 31.393 232.128 31.393 231.264ZM42.257 228.736L36.097 240H33.457L39.617 228.736H42.257ZM34.049 230.16C33.537 230.16 33.281 230.528 33.281 231.264C33.281 231.989 33.537 232.352 34.049 232.352C34.2943 232.352 34.4863 232.261 34.625 232.08C34.7636 231.899 34.833 231.627 34.833 231.264C34.833 230.528 34.5716 230.16 34.049 230.16ZM39.009 237.472C39.009 236.608 39.2543 235.941 39.745 235.472C40.2356 235.003 40.8756 234.768 41.665 234.768C42.4543 234.768 43.0943 235.003 43.585 235.472C44.0756 235.941 44.321 236.608 44.321 237.472C44.321 238.336 44.0756 239.003 43.585 239.472C43.0943 239.941 42.4543 240.176 41.665 240.176C40.8756 240.176 40.2356 239.941 39.745 239.472C39.2543 239.003 39.009 238.336 39.009 237.472ZM41.649 236.368C41.4036 236.368 41.2116 236.459 41.073 236.64C40.945 236.821 40.881 237.099 40.881 237.472C40.881 238.197 41.137 238.56 41.649 238.56C41.8943 238.56 42.0863 238.469 42.225 238.288C42.3636 238.107 42.433 237.835 42.433 237.472C42.433 237.109 42.3636 236.837 42.225 236.656C42.0863 236.464 41.8943 236.368 41.649 236.368Z" fill="white"/>
<path d="M5.17872 262.816H9.08272V264H3.72272V252.848H5.17872V262.816ZM18.629 259.28C18.629 259.557 18.613 259.851 18.581 260.16H11.573C11.6263 261.024 11.9196 261.701 12.453 262.192C12.997 262.672 13.653 262.912 14.421 262.912C15.0503 262.912 15.573 262.768 15.989 262.48C16.4156 262.181 16.7143 261.787 16.885 261.296H18.453C18.2183 262.139 17.749 262.827 17.045 263.36C16.341 263.883 15.4663 264.144 14.421 264.144C13.589 264.144 12.8423 263.957 12.181 263.584C11.5303 263.211 11.0183 262.683 10.645 262C10.2716 261.307 10.085 260.507 10.085 259.6C10.085 258.693 10.2663 257.899 10.629 257.216C10.9916 256.533 11.4983 256.011 12.149 255.648C12.8103 255.275 13.5676 255.088 14.421 255.088C15.253 255.088 15.989 255.269 16.629 255.632C17.269 255.995 17.7596 256.496 18.101 257.136C18.453 257.765 18.629 258.48 18.629 259.28ZM17.125 258.976C17.125 258.421 17.0023 257.947 16.757 257.552C16.5116 257.147 16.1756 256.843 15.749 256.64C15.333 256.427 14.869 256.32 14.357 256.32C13.621 256.32 12.9916 256.555 12.469 257.024C11.957 257.493 11.6636 258.144 11.589 258.976H17.125ZM24.1668 255.088C24.9242 255.088 25.5855 255.253 26.1508 255.584C26.7268 255.915 27.1535 256.331 27.4308 256.832V255.232H28.9028V264.192C28.9028 264.992 28.7322 265.701 28.3908 266.32C28.0495 266.949 27.5588 267.44 26.9188 267.792C26.2895 268.144 25.5535 268.32 24.7108 268.32C23.5588 268.32 22.5988 268.048 21.8308 267.504C21.0628 266.96 20.6095 266.219 20.4708 265.28H21.9108C22.0708 265.813 22.4015 266.24 22.9028 266.56C23.4042 266.891 24.0068 267.056 24.7108 267.056C25.5108 267.056 26.1615 266.805 26.6628 266.304C27.1748 265.803 27.4308 265.099 27.4308 264.192V262.352C27.1428 262.864 26.7162 263.291 26.1508 263.632C25.5855 263.973 24.9242 264.144 24.1668 264.144C23.3882 264.144 22.6788 263.952 22.0388 263.568C21.4095 263.184 20.9135 262.645 20.5508 261.952C20.1882 261.259 20.0068 260.469 20.0068 259.584C20.0068 258.688 20.1882 257.904 20.5508 257.232C20.9135 256.549 21.4095 256.021 22.0388 255.648C22.6788 255.275 23.3882 255.088 24.1668 255.088ZM27.4308 259.6C27.4308 258.939 27.2975 258.363 27.0308 257.872C26.7642 257.381 26.4015 257.008 25.9428 256.752C25.4948 256.485 24.9988 256.352 24.4548 256.352C23.9108 256.352 23.4148 256.48 22.9668 256.736C22.5188 256.992 22.1615 257.365 21.8948 257.856C21.6282 258.347 21.4948 258.923 21.4948 259.584C21.4948 260.256 21.6282 260.843 21.8948 261.344C22.1615 261.835 22.5188 262.213 22.9668 262.48C23.4148 262.736 23.9108 262.864 24.4548 262.864C24.9988 262.864 25.4948 262.736 25.9428 262.48C26.4015 262.213 26.7642 261.835 27.0308 261.344C27.2975 260.843 27.4308 260.261 27.4308 259.6ZM30.8193 259.584C30.8193 258.688 31.0007 257.904 31.3633 257.232C31.726 256.549 32.222 256.021 32.8513 255.648C33.4913 255.275 34.2007 255.088 34.9793 255.088C35.7473 255.088 36.414 255.253 36.9793 255.584C37.5447 255.915 37.966 256.331 38.2433 256.832V255.232H39.7153V264H38.2433V262.368C37.9553 262.88 37.5233 263.307 36.9473 263.648C36.382 263.979 35.7207 264.144 34.9633 264.144C34.1847 264.144 33.4807 263.952 32.8513 263.568C32.222 263.184 31.726 262.645 31.3633 261.952C31.0007 261.259 30.8193 260.469 30.8193 259.584ZM38.2433 259.6C38.2433 258.939 38.11 258.363 37.8433 257.872C37.5767 257.381 37.214 257.008 36.7553 256.752C36.3073 256.485 35.8113 256.352 35.2673 256.352C34.7233 256.352 34.2273 256.48 33.7793 256.736C33.3313 256.992 32.974 257.365 32.7073 257.856C32.4407 258.347 32.3073 258.923 32.3073 259.584C32.3073 260.256 32.4407 260.843 32.7073 261.344C32.974 261.835 33.3313 262.213 33.7793 262.48C34.2273 262.736 34.7233 262.864 35.2673 262.864C35.8113 262.864 36.3073 262.736 36.7553 262.48C37.214 262.213 37.5767 261.835 37.8433 261.344C38.11 260.843 38.2433 260.261 38.2433 259.6ZM43.6318 252.16V264H42.1758V252.16H43.6318Z" fill="#C3C4C5"/>
<path d="M212.727 222.895L78.7516 266.476C73.9668 251.668 71.833 238.478 71.833 222.959L212.727 222.959L212.727 222.895Z" fill="#FEE89B" stroke="#0E1116" stroke-width="0.307481" stroke-miterlimit="10"/>
<path d="M212.727 222.895L129.898 336.89C104.745 318.591 88.3216 296.025 78.752 266.476L212.727 222.895Z" fill="#FDD135" stroke="#0E1116" stroke-width="0.307481" stroke-miterlimit="10"/>
<path d="M212.727 222.895L256.243 356.87C211.822 371.289 167.659 364.306 129.897 336.89L212.727 222.895Z" fill="#FDC70C" stroke="#0E1116" stroke-width="0.307481" stroke-miterlimit="10"/>
<path d="M212.727 222.895L353.62 222.895C353.62 285.162 315.471 337.666 256.307 356.87L212.727 222.895Z" fill="#ED683C" stroke="#0E1116" stroke-width="0.307481" stroke-miterlimit="10"/>
<path d="M212.727 222.895L71.833 222.895C71.833 145.109 134.876 82.0012 212.727 82.0012C290.577 82.0012 353.621 145.045 353.621 222.895L212.727 222.895Z" fill="#F0825D" stroke="#0E1116" stroke-width="0.307481" stroke-miterlimit="10"/>
<path d="M305.62 223.001C305.62 171.639 263.759 130.001 212.12 130.001C160.481 130.001 118.62 171.639 118.62 223.001C118.62 274.364 160.481 316.001 212.12 316.001C263.759 316.001 305.62 274.364 305.62 223.001Z" fill="#0E1116"/>
<path d="M298.127 222.923C298.127 175.59 259.756 137.219 212.423 137.219C165.089 137.219 126.718 175.59 126.718 222.923C126.718 270.257 165.089 308.628 212.423 308.628C259.756 308.628 298.127 270.257 298.127 222.923Z" stroke="#45484C" stroke-width="0.518105" stroke-miterlimit="10" stroke-dasharray="3.07 3.07"/>
<path d="M287.15 222.912C287.15 181.666 253.714 148.23 212.468 148.23C171.222 148.23 137.786 181.666 137.786 222.912C137.786 264.158 171.222 297.594 212.468 297.594C253.714 297.594 287.15 264.158 287.15 222.912Z" fill="#495124"/>
<ellipse cx="210" cy="366" rx="210" ry="28" fill="url(#paint0_radial_351_2796)"/>
<path d="M157.074 205.874V211.334C157.074 211.88 157.208 212.3 157.477 212.595C157.746 212.89 158.14 213.037 158.66 213.037C159.18 213.037 159.579 212.89 159.856 212.595C160.133 212.3 160.272 211.88 160.272 211.334V205.874H162.495V211.321C162.495 212.136 162.322 212.825 161.975 213.388C161.628 213.951 161.16 214.376 160.571 214.662C159.99 214.948 159.34 215.091 158.621 215.091C157.902 215.091 157.256 214.952 156.684 214.675C156.121 214.389 155.674 213.964 155.345 213.401C155.016 212.829 154.851 212.136 154.851 211.321V205.874H157.074ZM167.007 215.104C166.374 215.104 165.811 214.996 165.317 214.779C164.823 214.562 164.433 214.268 164.147 213.895C163.861 213.514 163.701 213.089 163.666 212.621H165.863C165.889 212.872 166.006 213.076 166.214 213.232C166.422 213.388 166.678 213.466 166.981 213.466C167.258 213.466 167.471 213.414 167.618 213.31C167.774 213.197 167.852 213.054 167.852 212.881C167.852 212.673 167.744 212.521 167.527 212.426C167.31 212.322 166.959 212.209 166.474 212.088C165.954 211.967 165.521 211.841 165.174 211.711C164.827 211.572 164.528 211.36 164.277 211.074C164.026 210.779 163.9 210.385 163.9 209.891C163.9 209.475 164.013 209.098 164.238 208.76C164.472 208.413 164.81 208.14 165.252 207.941C165.703 207.742 166.236 207.642 166.851 207.642C167.761 207.642 168.476 207.867 168.996 208.318C169.525 208.769 169.828 209.367 169.906 210.112H167.852C167.817 209.861 167.705 209.661 167.514 209.514C167.332 209.367 167.089 209.293 166.786 209.293C166.526 209.293 166.327 209.345 166.188 209.449C166.049 209.544 165.98 209.679 165.98 209.852C165.98 210.06 166.088 210.216 166.305 210.32C166.53 210.424 166.877 210.528 167.345 210.632C167.882 210.771 168.32 210.909 168.658 211.048C168.996 211.178 169.291 211.395 169.542 211.698C169.802 211.993 169.936 212.391 169.945 212.894C169.945 213.319 169.824 213.7 169.581 214.038C169.347 214.367 169.005 214.627 168.554 214.818C168.112 215.009 167.596 215.104 167.007 215.104ZM178.143 211.256C178.143 211.464 178.13 211.681 178.104 211.906H173.073C173.108 212.357 173.251 212.703 173.502 212.946C173.762 213.18 174.078 213.297 174.451 213.297C175.006 213.297 175.391 213.063 175.608 212.595H177.974C177.853 213.072 177.632 213.501 177.311 213.882C176.999 214.263 176.605 214.562 176.128 214.779C175.651 214.996 175.118 215.104 174.529 215.104C173.818 215.104 173.186 214.952 172.631 214.649C172.076 214.346 171.643 213.912 171.331 213.349C171.019 212.786 170.863 212.127 170.863 211.373C170.863 210.619 171.015 209.96 171.318 209.397C171.63 208.834 172.063 208.4 172.618 208.097C173.173 207.794 173.81 207.642 174.529 207.642C175.231 207.642 175.855 207.789 176.401 208.084C176.947 208.379 177.372 208.799 177.675 209.345C177.987 209.891 178.143 210.528 178.143 211.256ZM175.868 210.671C175.868 210.29 175.738 209.986 175.478 209.761C175.218 209.536 174.893 209.423 174.503 209.423C174.13 209.423 173.814 209.531 173.554 209.748C173.303 209.965 173.147 210.272 173.086 210.671H175.868ZM185.373 215.104C184.662 215.104 184.021 214.952 183.449 214.649C182.885 214.346 182.439 213.912 182.11 213.349C181.789 212.786 181.629 212.127 181.629 211.373C181.629 210.628 181.793 209.973 182.123 209.41C182.452 208.838 182.903 208.4 183.475 208.097C184.047 207.794 184.688 207.642 185.399 207.642C186.109 207.642 186.751 207.794 187.323 208.097C187.895 208.4 188.345 208.838 188.675 209.41C189.004 209.973 189.169 210.628 189.169 211.373C189.169 212.118 189 212.777 188.662 213.349C188.332 213.912 187.877 214.346 187.297 214.649C186.725 214.952 186.083 215.104 185.373 215.104ZM185.373 213.18C185.797 213.18 186.157 213.024 186.452 212.712C186.755 212.4 186.907 211.954 186.907 211.373C186.907 210.792 186.759 210.346 186.465 210.034C186.179 209.722 185.823 209.566 185.399 209.566C184.965 209.566 184.606 209.722 184.32 210.034C184.034 210.337 183.891 210.784 183.891 211.373C183.891 211.954 184.029 212.4 184.307 212.712C184.593 213.024 184.948 213.18 185.373 213.18ZM193.988 209.592H192.792V215H190.569V209.592H189.763V207.746H190.569V207.538C190.569 206.645 190.825 205.969 191.336 205.51C191.847 205.042 192.597 204.808 193.585 204.808C193.75 204.808 193.871 204.812 193.949 204.821V206.706C193.524 206.68 193.225 206.741 193.052 206.888C192.879 207.035 192.792 207.3 192.792 207.681V207.746H193.988V209.592ZM204.742 208.812C204.742 209.341 204.621 209.826 204.378 210.268C204.136 210.701 203.763 211.052 203.26 211.321C202.758 211.59 202.134 211.724 201.388 211.724H200.01V215H197.787V205.874H201.388C202.116 205.874 202.732 206 203.234 206.251C203.737 206.502 204.114 206.849 204.365 207.291C204.617 207.733 204.742 208.24 204.742 208.812ZM201.219 209.956C201.644 209.956 201.96 209.856 202.168 209.657C202.376 209.458 202.48 209.176 202.48 208.812C202.48 208.448 202.376 208.166 202.168 207.967C201.96 207.768 201.644 207.668 201.219 207.668H200.01V209.956H201.219ZM208.123 208.955C208.383 208.556 208.708 208.244 209.098 208.019C209.488 207.785 209.921 207.668 210.398 207.668V210.021H209.787C209.232 210.021 208.816 210.142 208.539 210.385C208.261 210.619 208.123 211.035 208.123 211.633V215H205.9V207.746H208.123V208.955ZM214.762 215.104C214.052 215.104 213.41 214.952 212.838 214.649C212.275 214.346 211.829 213.912 211.499 213.349C211.179 212.786 211.018 212.127 211.018 211.373C211.018 210.628 211.183 209.973 211.512 209.41C211.842 208.838 212.292 208.4 212.864 208.097C213.436 207.794 214.078 207.642 214.788 207.642C215.499 207.642 216.14 207.794 216.712 208.097C217.284 208.4 217.735 208.838 218.064 209.41C218.394 209.973 218.558 210.628 218.558 211.373C218.558 212.118 218.389 212.777 218.051 213.349C217.722 213.912 217.267 214.346 216.686 214.649C216.114 214.952 215.473 215.104 214.762 215.104ZM214.762 213.18C215.187 213.18 215.547 213.024 215.841 212.712C216.145 212.4 216.296 211.954 216.296 211.373C216.296 210.792 216.149 210.346 215.854 210.034C215.568 209.722 215.213 209.566 214.788 209.566C214.355 209.566 213.995 209.722 213.709 210.034C213.423 210.337 213.28 210.784 213.28 211.373C213.28 211.954 213.419 212.4 213.696 212.712C213.982 213.024 214.338 213.18 214.762 213.18ZM219.296 211.373C219.296 210.619 219.447 209.96 219.751 209.397C220.063 208.834 220.492 208.4 221.038 208.097C221.592 207.794 222.225 207.642 222.936 207.642C223.846 207.642 224.604 207.88 225.211 208.357C225.826 208.834 226.229 209.505 226.42 210.372H224.054C223.854 209.817 223.469 209.54 222.897 209.54C222.489 209.54 222.164 209.7 221.922 210.021C221.679 210.333 221.558 210.784 221.558 211.373C221.558 211.962 221.679 212.417 221.922 212.738C222.164 213.05 222.489 213.206 222.897 213.206C223.469 213.206 223.854 212.929 224.054 212.374H226.42C226.229 213.223 225.826 213.891 225.211 214.376C224.595 214.861 223.837 215.104 222.936 215.104C222.225 215.104 221.592 214.952 221.038 214.649C220.492 214.346 220.063 213.912 219.751 213.349C219.447 212.786 219.296 212.127 219.296 211.373ZM234.447 211.256C234.447 211.464 234.434 211.681 234.408 211.906H229.377C229.411 212.357 229.554 212.703 229.806 212.946C230.066 213.18 230.382 213.297 230.755 213.297C231.309 213.297 231.695 213.063 231.912 212.595H234.278C234.156 213.072 233.935 213.501 233.615 213.882C233.303 214.263 232.908 214.562 232.432 214.779C231.955 214.996 231.422 215.104 230.833 215.104C230.122 215.104 229.489 214.952 228.935 214.649C228.38 214.346 227.947 213.912 227.635 213.349C227.323 212.786 227.167 212.127 227.167 211.373C227.167 210.619 227.318 209.96 227.622 209.397C227.934 208.834 228.367 208.4 228.922 208.097C229.476 207.794 230.113 207.642 230.833 207.642C231.535 207.642 232.159 207.789 232.705 208.084C233.251 208.379 233.675 208.799 233.979 209.345C234.291 209.891 234.447 210.528 234.447 211.256ZM232.172 210.671C232.172 210.29 232.042 209.986 231.782 209.761C231.522 209.536 231.197 209.423 230.807 209.423C230.434 209.423 230.118 209.531 229.858 209.748C229.606 209.965 229.45 210.272 229.39 210.671H232.172ZM242.457 211.256C242.457 211.464 242.444 211.681 242.418 211.906H237.387C237.422 212.357 237.565 212.703 237.816 212.946C238.076 213.18 238.393 213.297 238.765 213.297C239.32 213.297 239.706 213.063 239.922 212.595H242.288C242.167 213.072 241.946 213.501 241.625 213.882C241.313 214.263 240.919 214.562 240.442 214.779C239.966 214.996 239.433 215.104 238.843 215.104C238.133 215.104 237.5 214.952 236.945 214.649C236.391 214.346 235.957 213.912 235.645 213.349C235.333 212.786 235.177 212.127 235.177 211.373C235.177 210.619 235.329 209.96 235.632 209.397C235.944 208.834 236.378 208.4 236.932 208.097C237.487 207.794 238.124 207.642 238.843 207.642C239.545 207.642 240.169 207.789 240.715 208.084C241.261 208.379 241.686 208.799 241.989 209.345C242.301 209.891 242.457 210.528 242.457 211.256ZM240.182 210.671C240.182 210.29 240.052 209.986 239.792 209.761C239.532 209.536 239.207 209.423 238.817 209.423C238.445 209.423 238.128 209.531 237.868 209.748C237.617 209.965 237.461 210.272 237.4 210.671H240.182ZM243.188 211.36C243.188 210.615 243.327 209.96 243.604 209.397C243.89 208.834 244.276 208.4 244.761 208.097C245.247 207.794 245.788 207.642 246.386 207.642C246.863 207.642 247.296 207.742 247.686 207.941C248.085 208.14 248.397 208.409 248.622 208.747V205.38H250.845V215H248.622V213.96C248.414 214.307 248.115 214.584 247.725 214.792C247.344 215 246.898 215.104 246.386 215.104C245.788 215.104 245.247 214.952 244.761 214.649C244.276 214.337 243.89 213.899 243.604 213.336C243.327 212.764 243.188 212.105 243.188 211.36ZM248.622 211.373C248.622 210.818 248.466 210.381 248.154 210.06C247.851 209.739 247.478 209.579 247.036 209.579C246.594 209.579 246.217 209.739 245.905 210.06C245.602 210.372 245.45 210.805 245.45 211.36C245.45 211.915 245.602 212.357 245.905 212.686C246.217 213.007 246.594 213.167 247.036 213.167C247.478 213.167 247.851 213.007 248.154 212.686C248.466 212.365 248.622 211.928 248.622 211.373ZM255.404 215.104C254.772 215.104 254.208 214.996 253.714 214.779C253.22 214.562 252.83 214.268 252.544 213.895C252.258 213.514 252.098 213.089 252.063 212.621H254.26C254.286 212.872 254.403 213.076 254.611 213.232C254.819 213.388 255.075 213.466 255.378 213.466C255.656 213.466 255.868 213.414 256.015 213.31C256.171 213.197 256.249 213.054 256.249 212.881C256.249 212.673 256.141 212.521 255.924 212.426C255.708 212.322 255.357 212.209 254.871 212.088C254.351 211.967 253.918 211.841 253.571 211.711C253.225 211.572 252.926 211.36 252.674 211.074C252.423 210.779 252.297 210.385 252.297 209.891C252.297 209.475 252.41 209.098 252.635 208.76C252.869 208.413 253.207 208.14 253.649 207.941C254.1 207.742 254.633 207.642 255.248 207.642C256.158 207.642 256.873 207.867 257.393 208.318C257.922 208.769 258.225 209.367 258.303 210.112H256.249C256.215 209.861 256.102 209.661 255.911 209.514C255.729 209.367 255.487 209.293 255.183 209.293C254.923 209.293 254.724 209.345 254.585 209.449C254.447 209.544 254.377 209.679 254.377 209.852C254.377 210.06 254.486 210.216 254.702 210.32C254.928 210.424 255.274 210.528 255.742 210.632C256.28 210.771 256.717 210.909 257.055 211.048C257.393 211.178 257.688 211.395 257.939 211.698C258.199 211.993 258.334 212.391 258.342 212.894C258.342 213.319 258.221 213.7 257.978 214.038C257.744 214.367 257.402 214.627 256.951 214.818C256.509 215.009 255.994 215.104 255.404 215.104ZM154.404 227.36C154.404 226.615 154.542 225.96 154.82 225.397C155.106 224.834 155.491 224.4 155.977 224.097C156.462 223.794 157.004 223.642 157.602 223.642C158.113 223.642 158.559 223.746 158.941 223.954C159.331 224.162 159.63 224.435 159.838 224.773V223.746H162.061V231H159.838V229.973C159.621 230.311 159.318 230.584 158.928 230.792C158.546 231 158.1 231.104 157.589 231.104C156.999 231.104 156.462 230.952 155.977 230.649C155.491 230.337 155.106 229.899 154.82 229.336C154.542 228.764 154.404 228.105 154.404 227.36ZM159.838 227.373C159.838 226.818 159.682 226.381 159.37 226.06C159.066 225.739 158.694 225.579 158.252 225.579C157.81 225.579 157.433 225.739 157.121 226.06C156.817 226.372 156.666 226.805 156.666 227.36C156.666 227.915 156.817 228.357 157.121 228.686C157.433 229.007 157.81 229.167 158.252 229.167C158.694 229.167 159.066 229.007 159.37 228.686C159.682 228.365 159.838 227.928 159.838 227.373ZM168.089 223.668C168.938 223.668 169.614 223.945 170.117 224.5C170.628 225.046 170.884 225.8 170.884 226.762V231H168.674V227.061C168.674 226.576 168.548 226.199 168.297 225.93C168.045 225.661 167.707 225.527 167.283 225.527C166.858 225.527 166.52 225.661 166.269 225.93C166.017 226.199 165.892 226.576 165.892 227.061V231H163.669V223.746H165.892V224.708C166.117 224.387 166.42 224.136 166.802 223.954C167.183 223.763 167.612 223.668 168.089 223.668ZM171.987 227.36C171.987 226.615 172.125 225.96 172.403 225.397C172.689 224.834 173.074 224.4 173.56 224.097C174.045 223.794 174.587 223.642 175.185 223.642C175.661 223.642 176.095 223.742 176.485 223.941C176.883 224.14 177.195 224.409 177.421 224.747V221.38H179.644V231H177.421V229.96C177.213 230.307 176.914 230.584 176.524 230.792C176.142 231 175.696 231.104 175.185 231.104C174.587 231.104 174.045 230.952 173.56 230.649C173.074 230.337 172.689 229.899 172.403 229.336C172.125 228.764 171.987 228.105 171.987 227.36ZM177.421 227.373C177.421 226.818 177.265 226.381 176.953 226.06C176.649 225.739 176.277 225.579 175.835 225.579C175.393 225.579 175.016 225.739 174.704 226.06C174.4 226.372 174.249 226.805 174.249 227.36C174.249 227.915 174.4 228.357 174.704 228.686C175.016 229.007 175.393 229.167 175.835 229.167C176.277 229.167 176.649 229.007 176.953 228.686C177.265 228.365 177.421 227.928 177.421 227.373ZM189.948 221.874V223.655H186.23V225.579H189.012V227.308H186.23V231H184.007V221.874H189.948ZM198.279 223.746V231H196.056V230.012C195.831 230.333 195.523 230.593 195.133 230.792C194.752 230.983 194.327 231.078 193.859 231.078C193.304 231.078 192.815 230.957 192.39 230.714C191.965 230.463 191.636 230.103 191.402 229.635C191.168 229.167 191.051 228.617 191.051 227.984V223.746H193.261V227.685C193.261 228.17 193.387 228.547 193.638 228.816C193.889 229.085 194.227 229.219 194.652 229.219C195.085 229.219 195.428 229.085 195.679 228.816C195.93 228.547 196.056 228.17 196.056 227.685V223.746H198.279ZM204.296 223.668C205.145 223.668 205.821 223.945 206.324 224.5C206.835 225.046 207.091 225.8 207.091 226.762V231H204.881V227.061C204.881 226.576 204.755 226.199 204.504 225.93C204.252 225.661 203.914 225.527 203.49 225.527C203.065 225.527 202.727 225.661 202.476 225.93C202.224 226.199 202.099 226.576 202.099 227.061V231H199.876V223.746H202.099V224.708C202.324 224.387 202.627 224.136 203.009 223.954C203.39 223.763 203.819 223.668 204.296 223.668ZM208.194 227.36C208.194 226.615 208.332 225.96 208.61 225.397C208.896 224.834 209.281 224.4 209.767 224.097C210.252 223.794 210.794 223.642 211.392 223.642C211.868 223.642 212.302 223.742 212.692 223.941C213.09 224.14 213.402 224.409 213.628 224.747V221.38H215.851V231H213.628V229.96C213.42 230.307 213.121 230.584 212.731 230.792C212.349 231 211.903 231.104 211.392 231.104C210.794 231.104 210.252 230.952 209.767 230.649C209.281 230.337 208.896 229.899 208.61 229.336C208.332 228.764 208.194 228.105 208.194 227.36ZM213.628 227.373C213.628 226.818 213.472 226.381 213.16 226.06C212.856 225.739 212.484 225.579 212.042 225.579C211.6 225.579 211.223 225.739 210.911 226.06C210.607 226.372 210.456 226.805 210.456 227.36C210.456 227.915 210.607 228.357 210.911 228.686C211.223 229.007 211.6 229.167 212.042 229.167C212.484 229.167 212.856 229.007 213.16 228.686C213.472 228.365 213.628 227.928 213.628 227.373ZM220.41 231.104C219.777 231.104 219.214 230.996 218.72 230.779C218.226 230.562 217.836 230.268 217.55 229.895C217.264 229.514 217.103 229.089 217.069 228.621H219.266C219.292 228.872 219.409 229.076 219.617 229.232C219.825 229.388 220.08 229.466 220.384 229.466C220.661 229.466 220.873 229.414 221.021 229.31C221.177 229.197 221.255 229.054 221.255 228.881C221.255 228.673 221.146 228.521 220.93 228.426C220.713 228.322 220.362 228.209 219.877 228.088C219.357 227.967 218.923 227.841 218.577 227.711C218.23 227.572 217.931 227.36 217.68 227.074C217.428 226.779 217.303 226.385 217.303 225.891C217.303 225.475 217.415 225.098 217.641 224.76C217.875 224.413 218.213 224.14 218.655 223.941C219.105 223.742 219.638 223.642 220.254 223.642C221.164 223.642 221.879 223.867 222.399 224.318C222.927 224.769 223.231 225.367 223.309 226.112H221.255C221.22 225.861 221.107 225.661 220.917 225.514C220.735 225.367 220.492 225.293 220.189 225.293C219.929 225.293 219.729 225.345 219.591 225.449C219.452 225.544 219.383 225.679 219.383 225.852C219.383 226.06 219.491 226.216 219.708 226.32C219.933 226.424 220.28 226.528 220.748 226.632C221.285 226.771 221.723 226.909 222.061 227.048C222.399 227.178 222.693 227.395 222.945 227.698C223.205 227.993 223.339 228.391 223.348 228.894C223.348 229.319 223.226 229.7 222.984 230.038C222.75 230.367 222.407 230.627 221.957 230.818C221.515 231.009 220.999 231.104 220.41 231.104ZM231.103 225.592H229.907V231H227.684V225.592H226.878V223.746H227.684V223.538C227.684 222.645 227.939 221.969 228.451 221.51C228.962 221.042 229.712 220.808 230.7 220.808C230.864 220.808 230.986 220.812 231.064 220.821V222.706C230.639 222.68 230.34 222.741 230.167 222.888C229.993 223.035 229.907 223.3 229.907 223.681V223.746H231.103V225.592ZM234.37 224.955C234.63 224.556 234.955 224.244 235.345 224.019C235.735 223.785 236.169 223.668 236.645 223.668V226.021H236.034C235.48 226.021 235.064 226.142 234.786 226.385C234.509 226.619 234.37 227.035 234.37 227.633V231H232.147V223.746H234.37V224.955ZM241.01 231.104C240.299 231.104 239.658 230.952 239.086 230.649C238.523 230.346 238.076 229.912 237.747 229.349C237.426 228.786 237.266 228.127 237.266 227.373C237.266 226.628 237.431 225.973 237.76 225.41C238.089 224.838 238.54 224.4 239.112 224.097C239.684 223.794 240.325 223.642 241.036 223.642C241.747 223.642 242.388 223.794 242.96 224.097C243.532 224.4 243.983 224.838 244.312 225.41C244.641 225.973 244.806 226.628 244.806 227.373C244.806 228.118 244.637 228.777 244.299 229.349C243.97 229.912 243.515 230.346 242.934 230.649C242.362 230.952 241.721 231.104 241.01 231.104ZM241.01 229.18C241.435 229.18 241.794 229.024 242.089 228.712C242.392 228.4 242.544 227.954 242.544 227.373C242.544 226.792 242.397 226.346 242.102 226.034C241.816 225.722 241.461 225.566 241.036 225.566C240.603 225.566 240.243 225.722 239.957 226.034C239.671 226.337 239.528 226.784 239.528 227.373C239.528 227.954 239.667 228.4 239.944 228.712C240.23 229.024 240.585 229.18 241.01 229.18ZM255.241 223.668C256.143 223.668 256.858 223.941 257.386 224.487C257.924 225.033 258.192 225.791 258.192 226.762V231H255.982V227.061C255.982 226.593 255.857 226.233 255.605 225.982C255.363 225.722 255.025 225.592 254.591 225.592C254.158 225.592 253.816 225.722 253.564 225.982C253.322 226.233 253.2 226.593 253.2 227.061V231H250.99V227.061C250.99 226.593 250.865 226.233 250.613 225.982C250.371 225.722 250.033 225.592 249.599 225.592C249.166 225.592 248.824 225.722 248.572 225.982C248.33 226.233 248.208 226.593 248.208 227.061V231H245.985V223.746H248.208V224.656C248.434 224.353 248.728 224.114 249.092 223.941C249.456 223.759 249.868 223.668 250.327 223.668C250.873 223.668 251.359 223.785 251.783 224.019C252.217 224.253 252.555 224.587 252.797 225.02C253.049 224.621 253.391 224.296 253.824 224.045C254.258 223.794 254.73 223.668 255.241 223.668ZM174.144 237.874V239.655H171.726V247H169.503V239.655H167.085V237.874H174.144ZM178.562 247.104C177.851 247.104 177.21 246.952 176.638 246.649C176.074 246.346 175.628 245.912 175.299 245.349C174.978 244.786 174.818 244.127 174.818 243.373C174.818 242.628 174.982 241.973 175.312 241.41C175.641 240.838 176.092 240.4 176.664 240.097C177.236 239.794 177.877 239.642 178.588 239.642C179.298 239.642 179.94 239.794 180.512 240.097C181.084 240.4 181.534 240.838 181.864 241.41C182.193 241.973 182.358 242.628 182.358 243.373C182.358 244.118 182.189 244.777 181.851 245.349C181.521 245.912 181.066 246.346 180.486 246.649C179.914 246.952 179.272 247.104 178.562 247.104ZM178.562 245.18C178.986 245.18 179.346 245.024 179.641 244.712C179.944 244.4 180.096 243.954 180.096 243.373C180.096 242.792 179.948 242.346 179.654 242.034C179.368 241.722 179.012 241.566 178.588 241.566C178.154 241.566 177.795 241.722 177.509 242.034C177.223 242.337 177.08 242.784 177.08 243.373C177.08 243.954 177.218 244.4 177.496 244.712C177.782 245.024 178.137 245.18 178.562 245.18ZM187.97 247L185.76 243.958V247H183.537V237.38H185.76V242.697L187.957 239.746H190.7L187.684 243.386L190.726 247H187.97ZM198.411 243.256C198.411 243.464 198.398 243.681 198.372 243.906H193.341C193.376 244.357 193.519 244.703 193.77 244.946C194.03 245.18 194.346 245.297 194.719 245.297C195.274 245.297 195.659 245.063 195.876 244.595H198.242C198.121 245.072 197.9 245.501 197.579 245.882C197.267 246.263 196.873 246.562 196.396 246.779C195.919 246.996 195.386 247.104 194.797 247.104C194.086 247.104 193.454 246.952 192.899 246.649C192.344 246.346 191.911 245.912 191.599 245.349C191.287 244.786 191.131 244.127 191.131 243.373C191.131 242.619 191.283 241.96 191.586 241.397C191.898 240.834 192.331 240.4 192.886 240.097C193.441 239.794 194.078 239.642 194.797 239.642C195.499 239.642 196.123 239.789 196.669 240.084C197.215 240.379 197.64 240.799 197.943 241.345C198.255 241.891 198.411 242.528 198.411 243.256ZM196.136 242.671C196.136 242.29 196.006 241.986 195.746 241.761C195.486 241.536 195.161 241.423 194.771 241.423C194.398 241.423 194.082 241.531 193.822 241.748C193.571 241.965 193.415 242.272 193.354 242.671H196.136ZM204.004 239.668C204.853 239.668 205.529 239.945 206.032 240.5C206.543 241.046 206.799 241.8 206.799 242.762V247H204.589V243.061C204.589 242.576 204.463 242.199 204.212 241.93C203.96 241.661 203.622 241.527 203.198 241.527C202.773 241.527 202.435 241.661 202.184 241.93C201.932 242.199 201.807 242.576 201.807 243.061V247H199.584V239.746H201.807V240.708C202.032 240.387 202.335 240.136 202.717 239.954C203.098 239.763 203.527 239.668 204.004 239.668ZM214.4 247.091C213.733 247.091 213.135 246.983 212.606 246.766C212.078 246.549 211.653 246.229 211.332 245.804C211.02 245.379 210.856 244.868 210.838 244.27H213.204C213.239 244.608 213.356 244.868 213.555 245.05C213.755 245.223 214.015 245.31 214.335 245.31C214.665 245.31 214.925 245.236 215.115 245.089C215.306 244.933 215.401 244.721 215.401 244.452C215.401 244.227 215.323 244.04 215.167 243.893C215.02 243.746 214.834 243.624 214.608 243.529C214.392 243.434 214.08 243.325 213.672 243.204C213.083 243.022 212.602 242.84 212.229 242.658C211.857 242.476 211.536 242.207 211.267 241.852C210.999 241.497 210.864 241.033 210.864 240.461C210.864 239.612 211.172 238.949 211.787 238.472C212.403 237.987 213.204 237.744 214.192 237.744C215.198 237.744 216.008 237.987 216.623 238.472C217.239 238.949 217.568 239.616 217.611 240.474H215.206C215.189 240.179 215.081 239.95 214.881 239.785C214.682 239.612 214.426 239.525 214.114 239.525C213.846 239.525 213.629 239.599 213.464 239.746C213.3 239.885 213.217 240.088 213.217 240.357C213.217 240.652 213.356 240.881 213.633 241.046C213.911 241.211 214.344 241.388 214.933 241.579C215.523 241.778 215.999 241.969 216.363 242.151C216.736 242.333 217.057 242.597 217.325 242.944C217.594 243.291 217.728 243.737 217.728 244.283C217.728 244.803 217.594 245.275 217.325 245.7C217.065 246.125 216.684 246.463 216.181 246.714C215.679 246.965 215.085 247.091 214.4 247.091ZM218.655 243.36C218.655 242.615 218.793 241.96 219.071 241.397C219.357 240.834 219.742 240.4 220.228 240.097C220.713 239.794 221.255 239.642 221.853 239.642C222.364 239.642 222.81 239.746 223.192 239.954C223.582 240.162 223.881 240.435 224.089 240.773V239.746H226.312V247H224.089V245.973C223.872 246.311 223.569 246.584 223.179 246.792C222.797 247 222.351 247.104 221.84 247.104C221.25 247.104 220.713 246.952 220.228 246.649C219.742 246.337 219.357 245.899 219.071 245.336C218.793 244.764 218.655 244.105 218.655 243.36ZM224.089 243.373C224.089 242.818 223.933 242.381 223.621 242.06C223.317 241.739 222.945 241.579 222.503 241.579C222.061 241.579 221.684 241.739 221.372 242.06C221.068 242.372 220.917 242.805 220.917 243.36C220.917 243.915 221.068 244.357 221.372 244.686C221.684 245.007 222.061 245.167 222.503 245.167C222.945 245.167 223.317 245.007 223.621 244.686C223.933 244.365 224.089 243.928 224.089 243.373ZM230.143 237.38V247H227.92V237.38H230.143ZM238.592 243.256C238.592 243.464 238.579 243.681 238.553 243.906H233.522C233.556 244.357 233.699 244.703 233.951 244.946C234.211 245.18 234.527 245.297 234.9 245.297C235.454 245.297 235.84 245.063 236.057 244.595H238.423C238.301 245.072 238.08 245.501 237.76 245.882C237.448 246.263 237.053 246.562 236.577 246.779C236.1 246.996 235.567 247.104 234.978 247.104C234.267 247.104 233.634 246.952 233.08 246.649C232.525 246.346 232.092 245.912 231.78 245.349C231.468 244.786 231.312 244.127 231.312 243.373C231.312 242.619 231.463 241.96 231.767 241.397C232.079 240.834 232.512 240.4 233.067 240.097C233.621 239.794 234.258 239.642 234.978 239.642C235.68 239.642 236.304 239.789 236.85 240.084C237.396 240.379 237.82 240.799 238.124 241.345C238.436 241.891 238.592 242.528 238.592 243.256ZM236.317 242.671C236.317 242.29 236.187 241.986 235.927 241.761C235.667 241.536 235.342 241.423 234.952 241.423C234.579 241.423 234.263 241.531 234.003 241.748C233.751 241.965 233.595 242.272 233.535 242.671H236.317ZM242.715 247.104C242.083 247.104 241.519 246.996 241.025 246.779C240.531 246.562 240.141 246.268 239.855 245.895C239.569 245.514 239.409 245.089 239.374 244.621H241.571C241.597 244.872 241.714 245.076 241.922 245.232C242.13 245.388 242.386 245.466 242.689 245.466C242.967 245.466 243.179 245.414 243.326 245.31C243.482 245.197 243.56 245.054 243.56 244.881C243.56 244.673 243.452 244.521 243.235 244.426C243.019 244.322 242.668 244.209 242.182 244.088C241.662 243.967 241.229 243.841 240.882 243.711C240.536 243.572 240.237 243.36 239.985 243.074C239.734 242.779 239.608 242.385 239.608 241.891C239.608 241.475 239.721 241.098 239.946 240.76C240.18 240.413 240.518 240.14 240.96 239.941C241.411 239.742 241.944 239.642 242.559 239.642C243.469 239.642 244.184 239.867 244.704 240.318C245.233 240.769 245.536 241.367 245.614 242.112H243.56C243.526 241.861 243.413 241.661 243.222 241.514C243.04 241.367 242.798 241.293 242.494 241.293C242.234 241.293 242.035 241.345 241.896 241.449C241.758 241.544 241.688 241.679 241.688 241.852C241.688 242.06 241.797 242.216 242.013 242.32C242.239 242.424 242.585 242.528 243.053 242.632C243.591 242.771 244.028 242.909 244.366 243.048C244.704 243.178 244.999 243.395 245.25 243.698C245.51 243.993 245.645 244.391 245.653 244.894C245.653 245.319 245.532 245.7 245.289 246.038C245.055 246.367 244.713 246.627 244.262 246.818C243.82 247.009 243.305 247.104 242.715 247.104Z" fill="white"/>
<defs>
<radialGradient id="paint0_radial_351_2796" cx="0" cy="0" r="1" gradientUnits="userSpaceOnUse" gradientTransform="translate(210 366) rotate(90) scale(28 210)">
<stop/>
<stop offset="1" stop-color="#262E00" stop-opacity="0"/>
</radialGradient>
</defs>
</svg>
