<svg width="256" height="56" viewBox="0 0 256 56" fill="none" xmlns="http://www.w3.org/2000/svg">
<path d="M53.528 48.9983C48.5872 53.3658 42.1041 56 35.0069 56C23.7605 56 14.0564 49.3668 9.60693 39.7992C16.8953 39.144 35.7303 37.0694 53.528 48.9983Z" fill="#78843B"/>
<path d="M58.6598 42.9793C58.3459 43.4843 58.0046 43.9756 57.6634 44.4533C55.3568 42.8837 47.1813 37.9703 35.2935 37.9976C35.2935 37.9976 46.8811 36.1959 58.6598 42.9793Z" fill="#78843B"/>
<path d="M60.7207 39.0894C60.5706 39.4443 60.4205 39.7855 60.243 40.1267C59.7653 41.1094 59.2467 42.0648 58.6598 42.9793C46.8811 36.1959 35.2935 37.9975 35.2935 37.9975C47.1814 37.9702 55.3705 42.8974 57.6635 44.4533C56.4624 46.1184 55.0702 47.6471 53.5279 48.9983C35.7439 37.0694 16.8952 39.144 9.60691 39.7991C9.49772 39.5808 9.40218 39.3487 9.30664 39.1304C35.6347 32.2105 51.5626 36.619 60.7207 39.0894Z" fill="#E4D680"/>
<path d="M44.5335 34.4762C46.1167 34.6264 47.6863 34.8174 49.2422 35.0358C49.6381 35.0904 50.0202 35.145 50.416 35.1996C50.8118 35.2542 51.194 35.3088 51.5898 35.377C51.9719 35.4453 52.3678 35.4999 52.7636 35.5681L53.9237 35.7865C54.7017 35.9366 55.466 36.0867 56.2303 36.2778C56.6125 36.3734 56.9946 36.4416 57.3768 36.5508C57.7589 36.6463 58.1411 36.7555 58.5233 36.8511C59.4514 37.1104 60.3522 37.4107 61.2666 37.7382C61.0892 38.2023 60.9117 38.6527 60.7207 39.0894C51.5625 36.619 35.6346 32.2106 9.29294 39.1304C9.10186 38.6936 8.92443 38.2432 8.76064 37.8065L9.78428 37.4789L11.1491 37.0967L11.8316 36.9057L12.514 36.7282C12.978 36.619 13.4284 36.4962 13.8925 36.387L15.2847 36.0867C15.7487 35.9776 16.2128 35.9093 16.6768 35.8138C17.3183 35.6909 19.1608 35.3224 22.2864 34.9676C24.1699 34.7628 26.067 34.6127 27.9642 34.5308C26.067 34.408 24.1562 34.4626 22.2591 34.6127C20.3619 34.7492 18.4648 35.0085 16.5949 35.3634C15.6532 35.5272 14.7251 35.7455 13.797 35.9639C13.3329 36.0731 12.8689 36.2096 12.4185 36.3324L11.7224 36.5235L11.04 36.7419L9.68875 37.1923L8.67875 37.5744C8.47403 37.0285 8.2966 36.4826 8.13281 35.923L13.8106 33.0158L16.4994 33.4389L19.1335 31.1187L16.9771 31.3371L17.9871 29.1669L17.0863 26.642L19.1472 27.8976L24.5657 21.592L26.4219 19.4355L26.5174 22.1789L26.7631 29.2625L29.2471 26.6556L29.3836 33.9576L30.9395 30.0268L33.1779 27.9113L36.0577 34.8993L40.8484 32.9476L43.2642 35.1859L40.7255 30.4635L37.8594 31.146L40.125 27.5837L37.8594 27.9249L39.1014 24.9222L36.8903 21.4146L33.9968 21.4692L36.7402 18.7804L35.2661 13.9897L46.1577 26.0824L43.7828 28.0614L49.4743 29.6992L49.0512 31.9649L52.9001 30.2998L57.4723 32.0877L55.7799 29.9176L54.224 30.0268L54.5652 29.0168L53.2686 27.4609L51.2895 29.0168L52.1903 26.9968L51.3441 23.9259L54.2786 27.5428L55.971 27.2834L62.4404 33.5754C62.1674 34.9403 61.7989 36.2642 61.3212 37.5471C60.4477 37.1513 59.5332 36.8101 58.6188 36.4962C57.1038 36.0049 55.5479 35.6363 53.9919 35.3224C52.4224 35.0358 50.8528 34.8038 49.2695 34.6673C47.7 34.5308 46.1167 34.4489 44.5335 34.4762Z" fill="#B4C466"/>
<path d="M27.9641 34.5308C26.0669 34.5991 24.1698 34.7492 22.2863 34.9676C19.1607 35.3224 17.3182 35.691 16.6631 35.8138C16.199 35.9093 15.735 35.9776 15.2709 36.0868L13.8788 36.387C13.4147 36.4962 12.9643 36.6191 12.5003 36.7283L11.8042 36.9057L11.1218 37.0968L9.7569 37.4789L8.73326 37.8065C8.70596 37.7246 8.67866 37.6563 8.65137 37.5745L9.66136 37.1923L11.0262 36.7419L11.7086 36.5235L12.4047 36.3324C12.8688 36.2096 13.3192 36.0731 13.7832 35.9639C14.7113 35.7456 15.6394 35.5272 16.5812 35.3634C18.451 35.0222 20.3482 34.7492 22.2453 34.6127C24.1561 34.4626 26.0669 34.408 27.9641 34.5308Z" fill="#CEE8C6"/>
<path d="M61.3213 37.5608C61.294 37.6154 61.2803 37.6837 61.253 37.7383C60.3522 37.4107 59.4378 37.1241 58.5233 36.8511C58.1412 36.7556 57.759 36.66 57.3768 36.5508C56.9947 36.4417 56.6125 36.3734 56.2304 36.2779C55.466 36.0868 54.6881 35.9503 53.9238 35.7865L52.7636 35.5681C52.3815 35.4999 51.9857 35.4453 51.5898 35.3771C51.2077 35.3088 50.8119 35.2542 50.4161 35.1996C50.0203 35.145 49.6381 35.0768 49.2423 35.0359C47.6727 34.8311 46.1031 34.64 44.5199 34.4899C46.1031 34.449 47.7 34.5445 49.2696 34.681C50.8528 34.8311 52.4224 35.0495 53.992 35.3361C55.5479 35.65 57.1039 36.0185 58.6189 36.5099C59.547 36.8102 60.4478 37.1514 61.3213 37.5608Z" fill="#CEE8C6"/>
<path d="M63 28.0068C63 29.8221 62.8226 31.5964 62.495 33.3025C62.4813 33.398 62.4541 33.4935 62.4404 33.5754L55.971 27.2835L54.2786 27.5428L51.3441 23.9259L52.1903 26.9968L51.2895 29.0168L53.2686 27.4609L54.5515 29.0168L54.2103 30.0268L55.7663 29.9176L57.4587 32.0877L52.8864 30.2998L49.0512 31.9649L49.447 29.6992L43.7555 28.0614L46.1304 26.0824L35.2388 13.9898L36.7129 18.7804L33.9695 21.4692L36.863 21.4146L39.0741 24.9223L37.8321 27.9249L40.0977 27.5837L37.8594 31.146L40.7256 30.4636L43.2505 35.2133L40.8348 32.9749L36.0441 34.9266L33.1643 27.9386L30.9259 30.0541L29.37 33.9849L29.2335 26.6829L26.7495 29.2898L26.5038 22.2062L26.4082 19.4628L24.552 21.592L19.1336 27.8976L17.0726 26.6283L17.9734 29.1533L16.9634 31.3234L19.1199 31.1187L16.4857 33.4389L13.797 33.0158L8.13283 35.923C8.07824 35.7592 8.03729 35.6091 7.99635 35.4453C7.34122 33.0841 7 30.5864 7 28.0068C7 12.543 19.5294 0 34.9932 0C50.457 0 63 12.543 63 28.0068Z" fill="#CEE8C6"/>
<path d="M31.8814 17.2518C31.8814 19.9815 29.6703 22.2062 26.927 22.2062C26.7905 22.2062 26.6403 22.2062 26.5039 22.1925L26.4083 19.4492L24.5521 21.592C24.2245 21.4146 23.9106 21.1962 23.6377 20.9505C22.614 20.0497 21.9725 18.7122 21.9725 17.2518C21.9725 14.522 24.1836 12.2973 26.927 12.2973C29.138 12.2973 31.0079 13.7441 31.6494 15.7368C31.7995 16.2145 31.8814 16.7195 31.8814 17.2518Z" fill="url(#paint0_radial_162_1251)"/>
<path fill-rule="evenodd" clip-rule="evenodd" d="M54.2784 27.5564L51.344 23.9395L52.1902 27.0105L51.2894 29.0305L53.2685 27.4745L54.5514 29.0305L54.2102 30.0404L55.7661 29.9313L57.4586 32.1014L52.8863 30.3134L49.0511 31.9649L49.4469 29.6992L43.7554 28.0614L46.1303 26.0824L35.2387 13.9897L36.7128 18.7804L33.9694 21.4692L36.8629 21.4146L39.074 24.9222L37.8319 27.9249L40.0976 27.5837L37.8592 31.146L40.7254 30.4635L43.2504 35.2132L40.8346 32.9749L36.044 34.9266L33.1641 27.9386L30.9258 30.0541L29.3698 33.9849L29.2334 26.6829L26.7493 29.2898L26.5036 22.2062L26.4081 19.4628L24.5519 21.592L19.1334 27.8976L17.0725 26.6283L17.9733 29.1533L16.9633 31.3234L19.1198 31.1187L16.4856 33.4389L13.7968 33.0158L8.1327 35.923C8.07811 35.7592 8.03716 35.6091 7.99622 35.4453L16.8678 25.3044L18.9833 26.6965L23.6375 20.9642L25.7803 18.3163L28.783 19.0534L31.6492 15.7368L35.1705 11.6695L46.9765 25.1133L50.9755 22.4791L54.5105 26.5328L55.9845 26.1643L62.4949 33.3161C62.4812 33.4116 62.4539 33.5072 62.4403 33.5891L55.9709 27.2971L54.2784 27.5564Z" fill="#52592D"/>
<path d="M27.9641 34.5308C26.0669 34.5991 24.1698 34.7492 22.2863 34.9676C19.1607 35.3224 17.3182 35.691 16.6631 35.8138C16.199 35.9093 15.735 35.9776 15.2709 36.0868L13.8788 36.387C13.4147 36.4962 12.9643 36.6191 12.5003 36.7283L11.8042 36.9057L11.1218 37.0968L9.7569 37.4789L8.73326 37.8065C8.70596 37.7246 8.67866 37.6563 8.65137 37.5745L9.66136 37.1923L11.0262 36.7419L11.7086 36.5235L12.4047 36.3324C12.8688 36.2096 13.3192 36.0731 13.7832 35.9639C14.7113 35.7456 15.6394 35.5272 16.5812 35.3634C18.451 35.0222 20.3482 34.7492 22.2453 34.6127C24.1561 34.4626 26.0669 34.408 27.9641 34.5308Z" fill="#50592D"/>
<path d="M61.3213 37.5608C61.294 37.6154 61.2803 37.6837 61.253 37.7383C60.3522 37.4107 59.4378 37.1241 58.5233 36.8511C58.1412 36.7556 57.759 36.66 57.3768 36.5508C56.9947 36.4417 56.6125 36.3734 56.2304 36.2779C55.466 36.0868 54.6881 35.9503 53.9238 35.7865L52.7636 35.5681C52.3815 35.4999 51.9857 35.4453 51.5898 35.3771C51.2077 35.3088 50.8119 35.2542 50.4161 35.1996C50.0203 35.145 49.6381 35.0768 49.2423 35.0359C47.6727 34.8311 46.1031 34.64 44.5199 34.4899C46.1031 34.449 47.7 34.5445 49.2696 34.681C50.8528 34.8311 52.4224 35.0495 53.992 35.3361C55.5479 35.65 57.1039 36.0185 58.6189 36.5099C59.547 36.8102 60.4478 37.1514 61.3213 37.5608Z" fill="#50592D"/>
<path d="M92.1978 18.4393C91.827 18.9461 91.4562 19.4652 91.0854 20.0214L90.4921 20.9361C90.3809 21.1091 90.2696 21.2822 90.1584 21.4305C90.0472 21.5788 89.9359 21.7519 89.8247 21.9249C89.3179 22.6295 88.7988 23.3834 88.2673 24.1745C87.7358 24.9779 87.2414 25.7195 86.8088 26.3993L80.468 16.7954L71 39.1922H76.3273L81.5557 31.2322L86.5492 34.829L92.0372 26.9679L96.7093 39.2046H102.135L93.2855 16.8325C92.9271 17.4011 92.5687 17.9326 92.1978 18.4393Z" fill="white"/>
<path d="M118.451 22.0362C117.536 21.1215 116.473 20.4046 115.262 19.8855C114.051 19.354 112.741 19.0944 111.332 19.0944C109.947 19.0944 108.649 19.354 107.438 19.8855C106.227 20.417 105.164 21.1339 104.249 22.0362C103.334 22.9508 102.618 24.0138 102.098 25.2251C101.567 26.4364 101.307 27.7466 101.307 29.1557C101.307 30.54 101.567 31.8379 102.098 33.0492C102.63 34.2605 103.347 35.3234 104.249 36.2381C105.164 37.1528 106.227 37.8697 107.438 38.3888C108.649 38.9203 109.96 39.1798 111.332 39.1798C112.728 39.1798 114.038 38.9203 115.262 38.3888C116.473 37.8573 117.536 37.1404 118.451 36.2381C119.366 35.3234 120.083 34.2605 120.602 33.0492C121.133 31.8379 121.393 30.5277 121.393 29.1557C121.393 27.759 121.133 26.4488 120.602 25.2251C120.083 24.0138 119.353 22.9508 118.451 22.0362ZM116.226 31.1828C115.942 31.8131 115.559 32.3693 115.089 32.8514C114.619 33.3334 114.063 33.7043 113.408 33.9762C112.765 34.2481 112.061 34.3841 111.319 34.3841C110.59 34.3841 109.91 34.2481 109.267 33.9762C108.625 33.7043 108.056 33.3334 107.586 32.8514C107.117 32.3693 106.734 31.8131 106.449 31.1828C106.165 30.5524 106.017 29.8726 106.017 29.1557C106.017 28.4141 106.165 27.7219 106.449 27.0792C106.734 26.4364 107.117 25.8802 107.586 25.4105C108.056 24.9408 108.612 24.57 109.267 24.2981C109.91 24.0262 110.602 23.8902 111.319 23.8902C112.061 23.8902 112.765 24.0262 113.408 24.2981C114.051 24.57 114.619 24.9408 115.089 25.4105C115.559 25.8802 115.942 26.4364 116.226 27.0792C116.51 27.7219 116.659 28.4141 116.659 29.1557C116.659 29.8726 116.51 30.5524 116.226 31.1828Z" fill="white"/>
<path d="M136.052 30.9356C136.052 31.4176 135.953 31.8749 135.768 32.3199C135.582 32.7525 135.323 33.1357 134.989 33.457C134.655 33.7784 134.285 34.0256 133.852 34.211C133.419 34.3964 132.974 34.4953 132.492 34.4953H131.578C131.096 34.4953 130.638 34.3964 130.218 34.211C129.785 34.0256 129.415 33.7784 129.106 33.457C128.784 33.1357 128.537 32.7649 128.352 32.3199C128.166 31.8873 128.067 31.4176 128.067 30.9356V19.0944H123.333V30.9356C123.358 32.0974 123.581 33.1851 124.026 34.1863C124.471 35.1998 125.064 36.0651 125.805 36.7943C126.547 37.5236 127.425 38.1045 128.413 38.5371C129.402 38.9697 130.465 39.1798 131.615 39.1798H132.542C133.667 39.1798 134.717 38.9697 135.718 38.5371C136.72 38.1045 137.585 37.5236 138.339 36.7943C139.08 36.0651 139.674 35.1998 140.119 34.1987C140.564 33.1975 140.786 32.1345 140.811 30.9974V19.0944H136.077V30.9356H136.052Z" fill="white"/>
<path d="M156.051 28.8961L144.173 19.0944V39.1922H148.907V28.5377L160.785 39.1922V33.8649V32.8143V19.0944H156.051V28.8961Z" fill="white"/>
<path d="M176.136 19.0944H163.183V23.9026H167.299V39.1922H172.033V23.9026H176.136V19.0944Z" fill="white"/>
<path d="M172.91 39.1922L180.178 34.7178L183.342 28.7354L188.373 39.1922H193.527L183.404 19.0944L172.91 39.1922Z" fill="white"/>
<path d="M206.654 28.8961L194.776 19.0944V39.1922H199.522V28.5377L211.388 39.1922V34.0133V32.8143V19.0944H206.654V28.8961Z" fill="white"/>
<path d="M212.34 39.1922L219.607 34.7178L222.759 28.7354L227.79 39.1922H232.957L222.833 19.0944L212.34 39.1922Z" fill="white"/>
<path d="M249.952 19.0944H246.911H244.822H234.007V23.9026H242.165L233.673 39.1922H249.63L249.692 34.4582H241.572L249.952 19.0944Z" fill="white"/>
<defs>
<radialGradient id="paint0_radial_162_1251" cx="0" cy="0" r="1" gradientUnits="userSpaceOnUse" gradientTransform="translate(27.604 17.8017) scale(6.17938)">
<stop stop-color="#FDC70C"/>
<stop offset="0.8017" stop-color="#F3903F"/>
<stop offset="1" stop-color="#ED683C"/>
</radialGradient>
</defs>
</svg>
