<svg width="24" height="24" viewBox="0 0 24 24" fill="none" xmlns="http://www.w3.org/2000/svg">
<path d="M21.6389 10.0675C20.878 9.40491 20.0243 8.88956 19.0964 8.48466C18.8923 8.39263 18.7809 8.2822 18.818 8.02453C19.0964 6.69938 19.3377 5.37423 19.616 4.04908C19.8387 2.94478 19.6717 1.95092 18.9108 1.06748C18.4283 0.515335 17.7973 0.257669 17.1478 0H15.8858C15.0878 0.257669 14.3641 0.588959 13.863 1.32516C13.4733 1.89571 13.2691 2.52148 13.2691 3.20246C13.2691 4.36197 13.2506 5.52147 13.2877 6.66258C13.2877 6.97546 13.2135 7.06748 12.8794 7.04908C12.2484 7.01227 11.6174 7.01227 11.005 7.04908C10.7081 7.06748 10.6524 6.97546 10.6524 6.71779C10.671 5.57669 10.6153 4.43559 10.671 3.29448C10.7267 1.71166 9.55748 0.276078 8.10994 0.0736241C8.09138 0.0736241 8.07283 0.0184049 8.05427 0H6.79231C6.16133 0.239264 5.54891 0.496937 5.08495 0.993869C4.28695 1.8773 4.06425 2.90797 4.32407 4.04908C4.60244 5.37423 4.8437 6.69938 5.12207 8.02453C5.17774 8.31901 5.01072 8.39264 4.78802 8.50307C3.34048 9.20245 2.07852 10.1227 1.07638 11.411C0.538189 12.1104 0.278373 12.9386 0 13.7485V17.4847C0.352606 17.9816 0.42684 18.6074 0.760888 19.1227C1.78159 20.7607 3.26625 21.8282 4.99216 22.6196C6.51394 23.319 8.14706 23.7055 9.8173 23.8896C9.89153 23.8896 10.0029 23.8896 10.0214 24H10.3369C10.5782 24 10.8194 24 11.0607 24H12.8423C13.1207 24 13.399 24 13.6774 24H13.7888C13.8073 23.8896 13.9187 23.908 13.9929 23.8896C16.2756 23.6687 18.4469 23.0613 20.3955 21.8466C21.8245 20.9632 23.0122 19.8405 23.6432 18.2209C24.07 17.1534 23.9772 16.0675 23.9958 14.9632C24.07 12.9387 23.1607 11.3742 21.6389 10.0675ZM8.61102 12.9202C8.83371 13.3067 8.98218 13.7301 8.98218 14.1902C8.98218 14.5583 8.90794 14.9264 8.75948 15.2393C8.55534 15.6258 8.31408 16.0307 7.7759 16.0307C7.25627 16.0307 6.92222 15.6994 6.73663 15.2945C6.32835 14.4478 6.40259 13.5828 6.94078 12.7914C7.38617 12.1104 8.20273 12.2024 8.61102 12.9202ZM15.4961 12.6442C15.9972 12.2024 16.5539 12.2393 16.9622 12.7914C17.5375 13.5828 17.5561 14.7239 17.0179 15.5337C16.6282 16.1411 15.793 16.1411 15.3476 15.5705C15.0136 15.1288 14.9023 14.6503 14.9394 14.1534C14.9208 13.5644 15.0507 13.0491 15.4961 12.6442Z" fill="#7D7E81"/>
</svg>
