<svg width="156" height="24" viewBox="0 0 156 24" fill="none" xmlns="http://www.w3.org/2000/svg">
<path d="M155.815 12.4969C155.501 11.2638 154.762 10.3436 153.58 9.90183C150.92 8.88956 148.334 9.14723 145.84 10.4908C145.545 10.638 145.489 10.8405 145.489 11.1534C145.508 14.4294 145.489 17.7055 145.489 20.9816C145.489 21.1656 145.508 21.3681 145.526 21.5521C145.6 22.1779 145.803 22.362 146.431 22.362C147.059 22.3804 147.687 22.3804 148.297 22.362C148.999 22.3435 149.221 22.1043 149.221 21.4049C149.221 20.411 149.221 19.4172 149.221 18.3313C149.258 18.3497 149.295 18.3681 149.332 18.3865C149.35 18.4049 149.368 18.4049 149.387 18.4233C149.516 18.4785 149.646 18.5337 149.775 18.589C149.978 18.6626 150.181 18.7178 150.384 18.7546C150.495 18.773 150.588 18.7914 150.698 18.8098H150.717C150.735 18.8098 150.735 18.8098 150.754 18.8098C150.828 18.8098 150.902 18.8282 150.957 18.8282C151.031 18.8282 151.105 18.8466 151.179 18.8466C151.197 18.8466 151.216 18.8466 151.234 18.8466C151.456 18.8466 151.678 18.8466 151.899 18.8282C153.636 18.6994 154.91 17.908 155.612 16.3067C155.76 15.957 155.871 15.5705 156 15.2208V12.9387C155.797 12.8466 155.852 12.6442 155.815 12.4969ZM149.239 13.6932C149.239 13.2883 149.276 12.9018 149.221 12.5153C149.165 12.092 149.405 11.9632 149.738 11.9264C150.144 11.8896 150.569 11.8528 150.976 11.9816C151.844 12.2577 152.195 12.8466 152.195 14.0613C152.195 14.4847 152.139 14.908 151.973 15.3129C151.678 16.0307 151.049 16.4172 150.292 16.2699C149.572 16.1411 149.239 15.6994 149.239 14.8527C149.239 14.4846 149.239 14.0798 149.239 13.6932Z" fill="#7D7E81"/>
<path d="M21.5389 10.0675C20.7815 9.40491 19.9318 8.88956 19.0082 8.48466C18.805 8.39263 18.6941 8.2822 18.7311 8.02453C19.0082 6.69938 19.2483 5.37423 19.5254 4.04908C19.7471 2.94478 19.5808 1.95092 18.8234 1.06748C18.3432 0.515335 17.7151 0.257669 17.0686 0H15.8124C15.0181 0.257669 14.2977 0.588959 13.7989 1.32516C13.411 1.89571 13.2078 2.52148 13.2078 3.20246C13.2078 4.36197 13.1893 5.52147 13.2263 6.66258C13.2263 6.97546 13.1524 7.06748 12.8199 7.04908C12.1918 7.01227 11.5638 7.01227 10.9542 7.04908C10.6586 7.06748 10.6032 6.97546 10.6032 6.71779C10.6217 5.57669 10.5663 4.43559 10.6217 3.29448C10.6771 1.71166 9.51332 0.276078 8.07247 0.0736241C8.054 0.0736241 8.03553 0.0184049 8.01705 0H6.76092C6.13286 0.239264 5.52327 0.496937 5.06146 0.993869C4.26714 1.8773 4.04547 2.90797 4.30409 4.04908C4.58117 5.37423 4.82132 6.69938 5.0984 8.02453C5.15382 8.31901 4.98757 8.39264 4.7659 8.50307C3.32504 9.20245 2.06892 10.1227 1.0714 11.411C0.535702 12.1104 0.277087 12.9386 0 13.7485V17.4847C0.350977 17.9816 0.424868 18.6074 0.757372 19.1227C1.77336 20.7607 3.25116 21.8282 4.9691 22.6196C6.48384 23.319 8.10942 23.7055 9.77194 23.8896C9.84583 23.8896 9.95666 23.8896 9.97513 24H10.2892C10.5293 24 10.7695 24 11.0096 24H12.7829C13.06 24 13.3371 24 13.6142 24H13.725C13.7435 23.8896 13.8544 23.908 13.9282 23.8896C16.2004 23.6687 18.3616 23.0613 20.3012 21.8466C21.7236 20.9632 22.9059 19.8405 23.5339 18.2209C23.9588 17.1534 23.8664 16.0675 23.8849 14.9632C23.9588 12.9387 23.0536 11.3742 21.5389 10.0675ZM8.57123 12.9202C8.7929 13.3067 8.94068 13.7301 8.94068 14.1902C8.94068 14.5583 8.86678 14.9264 8.719 15.2393C8.51581 15.6258 8.27567 16.0307 7.73997 16.0307C7.22274 16.0307 6.89023 15.6994 6.70551 15.2945C6.29911 14.4478 6.373 13.5828 6.90871 12.7914C7.35204 12.1104 8.16483 12.2024 8.57123 12.9202ZM15.4245 12.6442C15.9233 12.2024 16.4774 12.2393 16.8838 12.7914C17.4565 13.5828 17.475 14.7239 16.9393 15.5337C16.5513 16.1411 15.7201 16.1411 15.2767 15.5705C14.9442 15.1288 14.8334 14.6503 14.8703 14.1534C14.8519 13.5644 14.9812 13.0491 15.4245 12.6442Z" fill="#7D7E81"/>
<path d="M36.1506 5.96319C34.0632 5.68712 31.9388 5.83435 29.833 5.88957C29.3158 5.90797 29.1125 6.18405 29.1125 6.7546C29.1125 8.55828 29.1125 10.3804 29.1125 12.184C29.1125 13.9877 29.1125 15.8098 29.1125 17.6135C29.1125 18.3313 29.2973 18.5337 30.0177 18.5705C30.6088 18.589 31.1999 18.589 31.7911 18.5705C32.6962 18.5705 32.9179 18.3497 32.9179 17.4294C32.9179 16.6196 32.9364 15.8098 32.9179 15C32.9179 14.6871 32.9918 14.5767 33.3243 14.5951C34.0816 14.6135 34.8575 14.6319 35.6149 14.5767C38.1271 14.4294 39.568 13.2147 39.7896 10.9325C40.0298 8.15337 38.9584 6.33129 36.1506 5.96319ZM34.5435 11.8896C34.1001 11.9264 33.6383 11.8896 33.195 11.908C32.9364 11.9264 32.9179 11.7975 32.9179 11.5951C32.9179 11.1534 32.9179 10.6932 32.9179 10.2515C32.9179 9.82822 32.9364 9.3865 32.9179 8.96319C32.8994 8.70552 32.9548 8.57668 33.2504 8.59509C33.6568 8.61349 34.0447 8.59508 34.4511 8.61349C35.4117 8.6503 35.9658 9.22085 36.0028 10.1779C36.0028 11.1718 35.504 11.7975 34.5435 11.8896Z" fill="#7D7E81"/>
<path d="M116.635 12.2025C115.989 11.7976 115.305 11.4847 114.603 11.2086C113.92 10.9325 113.199 10.7485 112.571 10.3252C112.165 10.0491 111.962 9.681 112.054 9.18407C112.146 8.66873 112.497 8.46628 112.978 8.35585C114.067 8.15339 115.065 8.35584 116.025 8.85277C116.691 9.20246 116.69 9.20247 117.097 8.5583C117.3 8.26382 117.485 7.95093 117.688 7.65645C118.057 7.1043 118.002 6.88345 117.429 6.53376C116.764 6.11044 116.025 5.87118 115.268 5.74235C113.624 5.48468 111.998 5.39265 110.428 6.03682C109.228 6.53375 108.433 7.38038 108.267 8.70553C108.082 10.1411 108.452 11.3558 109.763 12.1841C110.484 12.6258 111.241 13.0123 112.017 13.3252C112.663 13.5828 113.31 13.8037 113.901 14.1718C114.289 14.4111 114.455 14.7607 114.4 15.2209C114.344 15.681 114.049 15.9018 113.643 16.0307C113.439 16.1043 113.199 16.1227 112.978 16.1411C111.721 16.2147 110.539 15.9018 109.449 15.2945C109.08 15.092 108.858 15.1289 108.655 15.5154C108.415 15.9571 108.119 16.362 107.861 16.7853C107.657 17.1166 107.694 17.411 108.045 17.6135C108.341 17.7791 108.637 17.9632 108.951 18.1104C110.281 18.681 111.703 18.8466 113.144 18.865C114.012 18.8834 114.88 18.8282 115.693 18.5337C117.005 18.0736 117.947 17.2454 118.15 15.8282C118.408 14.319 118.002 13.0491 116.635 12.2025Z" fill="#7D7E81"/>
<path d="M92.9534 14.3006C92.6948 14.0061 92.7686 13.8405 92.9903 13.5828C93.9324 12.5338 94.856 11.4663 95.7981 10.3988C95.9644 10.2147 96.0752 10.0307 95.9829 9.79142C95.8905 9.57056 95.6688 9.55216 95.4472 9.55216C94.542 9.55216 93.6369 9.55216 92.7502 9.55216C92.3992 9.55216 92.1406 9.68099 91.9189 9.97547C91.4571 10.6012 90.9768 11.2086 90.515 11.8159C90.2379 12.1656 89.9608 12.5153 89.6099 12.9571C89.6099 11.4295 89.6099 10.0491 89.6099 8.66872C89.6099 8.02454 89.6283 7.39878 89.6099 6.75461C89.5914 6.11044 89.3882 5.87118 88.7971 5.83437C88.0397 5.79756 87.2823 5.81596 86.5249 5.85277C86.0447 5.87117 85.823 6.16565 85.823 6.62578C85.823 10.3252 85.823 14.043 85.823 17.7423C85.823 18.1841 86.0262 18.4785 86.488 18.4969C87.1715 18.5153 87.8734 18.5337 88.5569 18.5337C89.3697 18.5337 89.5914 18.2945 89.6099 17.4847C89.6283 16.6749 89.6099 15.865 89.6099 15.0552C89.6468 15.0368 89.6838 15.0184 89.7207 15C90.4781 16.0307 91.2539 17.0614 92.0113 18.1104C92.2145 18.4049 92.4731 18.5337 92.8425 18.5337C93.7107 18.5153 94.579 18.5337 95.4472 18.5337C95.6873 18.5337 95.9644 18.589 96.0937 18.3313C96.223 18.0552 96.0383 17.8528 95.872 17.6503C94.8745 16.5644 93.9324 15.4233 92.9534 14.3006Z" fill="#7D7E81"/>
<path d="M132.152 9.57056C131.395 9.55215 130.637 9.57056 129.861 9.57056C129.547 9.57056 129.363 9.71779 129.289 10.0491C129.196 10.5276 129.067 10.9877 128.956 11.4478C128.753 12.2945 128.531 13.1411 128.31 14.1166C127.977 13.2331 127.682 12.4785 127.423 11.7239C126.869 10.0859 127.054 10.4172 125.373 10.362C125.04 10.362 124.837 10.4724 124.726 10.8221C124.338 11.8896 123.932 12.9387 123.507 14.0798C123.451 13.8589 123.396 13.7301 123.359 13.6012C123.082 12.4233 122.805 11.2638 122.528 10.0859C122.472 9.79141 122.343 9.58896 122.029 9.57056C121.161 9.55215 120.293 9.57056 119.443 9.57056C119.166 9.57056 119.037 9.6994 119.129 10.0123C119.942 12.6994 120.755 15.4049 121.567 18.092C121.678 18.4601 121.918 18.5522 122.269 18.5522C122.805 18.5522 123.341 18.5338 123.876 18.5522C124.338 18.5706 124.578 18.3865 124.745 17.9448C125.096 16.8957 125.502 15.865 125.927 14.7607C126.278 15.6994 126.592 16.546 126.906 17.411C127.386 18.7914 127.294 18.5522 128.531 18.5706C130.102 18.589 130.12 18.5706 130.582 17.0798C131.284 14.7976 131.967 12.5153 132.669 10.2331C132.78 9.68098 132.725 9.58896 132.152 9.57056Z" fill="#7D7E81"/>
<path d="M143.938 10.8589C143.938 10.5828 143.864 10.4356 143.605 10.3067C142.016 9.4233 140.317 9.16563 138.544 9.34968C135.865 9.62576 133.778 11.1718 133.574 14.0245C133.482 15.3681 133.63 16.6748 134.609 17.7423C135.994 19.2515 138.839 19.2699 140.557 17.8159C140.816 18.0736 140.797 18.6074 141.333 18.5889C141.998 18.5705 142.644 18.5889 143.309 18.5889C143.734 18.5889 143.919 18.4233 143.919 17.9632C143.919 15.5889 143.919 13.2331 143.938 10.8589ZM140.391 13.6748C140.391 14.0613 140.391 14.4662 140.391 14.8527C140.391 15.6442 140.021 16.1227 139.301 16.2515C138.377 16.4172 137.786 16.1411 137.472 15.3865C137.047 14.319 137.472 12.773 138.34 12.184C138.876 11.8159 139.467 11.8344 140.077 11.9264C140.298 11.9632 140.391 12.0736 140.372 12.3129C140.372 12.773 140.391 13.2147 140.391 13.6748Z" fill="#7D7E81"/>
<path d="M83.7357 10.2331C82.0917 9.36809 80.3183 9.12883 78.508 9.3681C76.6238 9.62576 75.0906 10.454 74.2593 12.2577C73.7052 13.454 73.6682 14.7239 73.9638 15.9939C74.3332 17.5215 75.2753 18.5337 76.8639 18.773C78.3048 18.9939 79.6902 18.8098 80.8909 17.7607C81.0018 18.4785 81.4266 18.6442 82.0547 18.5889C82.4796 18.5521 82.9229 18.5889 83.3478 18.5889C84.1236 18.5889 84.179 18.5153 84.179 17.7791C84.179 15.4969 84.1606 13.2331 84.1975 10.9509C84.1975 10.5644 84.0497 10.3988 83.7357 10.2331ZM80.6508 13.638C80.6508 14.0797 80.6693 14.5399 80.6508 14.9816C80.5954 15.773 80.152 16.1963 79.3208 16.2515C78.3972 16.3252 77.8984 15.9939 77.6952 15.2024C77.5105 14.4847 77.5844 13.8037 77.843 13.1227C78.2124 12.1656 79.3393 11.6319 80.3552 11.908C80.5584 11.9632 80.6877 12.0368 80.6693 12.2945C80.6323 12.7546 80.6508 13.1963 80.6508 13.638Z" fill="#7D7E81"/>
<path d="M50.3007 10.2515C48.5828 9.36808 46.7725 9.12881 44.8698 9.40489C43.8538 9.55213 42.9302 9.90182 42.1359 10.546C40.3256 11.9816 40.0854 13.9141 40.4734 16.0123C40.7874 17.6319 42.1174 18.7546 43.7799 18.8466C45.0915 18.9202 46.3291 18.7546 47.3821 17.7607C47.4929 18.4785 47.9362 18.6442 48.5458 18.5889C48.9892 18.5521 49.451 18.5889 49.8943 18.5889C50.5963 18.5889 50.6702 18.4969 50.6702 17.8343C50.6702 15.5337 50.6702 13.2515 50.6886 10.9509C50.7071 10.6012 50.6147 10.4172 50.3007 10.2515ZM47.1604 13.6748C47.1604 14.0982 47.1789 14.5399 47.1604 14.9632C47.1419 15.681 46.717 16.1411 46.0151 16.2515C45.1284 16.3804 44.5188 16.1043 44.2787 15.4233C43.9462 14.5031 44.0755 13.5828 44.5558 12.7546C44.9806 12.0368 46.0705 11.6687 46.8833 11.9264C47.0865 11.9816 47.1789 12.092 47.1604 12.3313C47.1419 12.773 47.1604 13.2331 47.1604 13.6748Z" fill="#7D7E81"/>
<path d="M59.5738 9.3865C58.096 9.12883 56.729 9.4049 55.4729 10.3804C55.3621 9.69938 55.3067 9.58895 54.9003 9.57054C54.2353 9.55214 53.5518 9.57054 52.8683 9.57054C52.425 9.57054 52.2957 9.7914 52.2957 10.2331C52.3141 12.681 52.2957 15.1288 52.3141 17.5767C52.3141 18.2945 52.5358 18.5337 53.2747 18.5521C53.8658 18.5706 54.4569 18.5521 55.0481 18.5521C55.8793 18.5521 56.1195 18.3129 56.1195 17.4663C56.1195 16.0123 56.1195 14.5767 56.1195 13.1227C56.1195 12.2577 56.5259 11.8712 57.3386 11.8712C58.0591 11.8712 58.3546 12.2024 58.3546 13.1043C58.3546 14.6135 58.3546 16.1043 58.3546 17.6135C58.3546 18.2945 58.5578 18.5337 59.2413 18.5521C59.9248 18.589 60.6267 18.5706 61.3287 18.5521C61.9198 18.5337 62.16 18.2577 62.16 17.6687C62.16 15.9018 62.1784 14.1534 62.16 12.3865C62.123 10.7853 61.1809 9.66257 59.5738 9.3865Z" fill="#7D7E81"/>
<path d="M104.166 9.68097C102.615 9.12882 101.026 9.14724 99.4927 9.64417C97.941 10.1411 97.0174 11.2454 96.7034 12.865C96.5925 13.4172 96.611 13.9693 96.611 14.5031C96.6295 16.0307 97.313 17.2086 98.6245 18C100.084 18.9018 101.709 18.9202 103.335 18.773C104.222 18.6994 105.053 18.4601 105.829 18.0184C106.217 17.7975 106.364 17.5767 106.106 17.1718C105.921 16.8773 105.773 16.5276 105.607 16.2147C105.441 15.865 105.219 15.7914 104.868 15.9939C103.889 16.5276 102.836 16.6196 101.746 16.454C101.081 16.362 100.49 16.1043 100.232 15.3865C100.102 15.0368 100.102 14.8712 100.583 14.8896C101.469 14.9264 102.356 14.908 103.224 14.908C104.129 14.908 105.034 14.908 105.921 14.908C106.531 14.908 106.826 14.6871 106.863 14.1718C106.974 12.3129 106.254 10.4172 104.166 9.68097ZM103.058 13.0307C102.652 12.9939 102.227 13.0307 101.82 13.0307C101.377 13.0307 100.915 13.0307 100.472 13.0307C100.213 13.0307 100.139 12.9571 100.195 12.681C100.361 11.9816 100.878 11.5767 101.709 11.5215C102.652 11.4662 103.206 11.7975 103.427 12.5153C103.52 12.8834 103.501 13.0675 103.058 13.0307Z" fill="#7D7E81"/>
<path d="M72.1348 15.9386C71.9131 15.4601 71.6175 15.4417 71.1927 15.6994C70.6385 16.0307 70.0474 16.2515 69.3824 16.2699C68.3294 16.3068 67.5721 15.9018 67.2396 15.0736C66.8516 14.0798 67.0918 12.865 67.8492 12.2945C68.6989 11.6319 69.6225 11.816 70.5461 12.1288C70.9341 12.2577 71.2481 12.7362 71.6545 12.5521C72.0239 12.3865 72.1348 11.908 72.338 11.5399C72.9845 10.454 72.9291 10.2699 71.7468 9.79142C71.6729 9.75461 71.5806 9.7362 71.5067 9.69939C70.4538 9.27608 69.3454 9.23927 68.2371 9.29448C65.1522 9.47853 63.1571 11.319 63.2865 14.3742C63.3603 16.1779 64.0992 17.5399 65.8172 18.2945C66.7777 18.7178 67.7753 18.8466 68.8467 18.8098C70.1028 18.8466 71.3404 18.589 72.4857 17.9632C72.8552 17.7607 73.0953 17.5215 72.7998 17.0798C72.5596 16.7301 72.3195 16.3436 72.1348 15.9386Z" fill="#7D7E81"/>
</svg>
