<svg width="170" height="38" viewBox="0 0 170 38" fill="none" xmlns="http://www.w3.org/2000/svg">
<path d="M66.494 12.6858C67.5247 13.3123 68.3936 14.1611 68.9595 15.3332C69.586 16.5053 69.9093 17.9199 69.9093 19.476C69.9093 21.032 69.586 22.3658 68.8787 23.5379C68.2522 24.71 67.2822 25.579 66.0899 26.1246C64.8975 26.7511 63.4627 27.0542 61.9471 27.0542C61.0781 27.0542 60.2698 26.8926 59.4816 26.5894C58.6935 26.3469 57.966 25.8821 57.4203 25.3365V33.4604H52.8127V12.0594H56.7939L57.198 13.7771C58.9562 12.3625 60.8558 11.6754 62.8363 11.6754C64.1902 11.6754 65.4634 11.9785 66.494 12.6858ZM63.9477 22.3658C64.7359 21.6585 65.14 20.7289 65.14 19.5568C65.14 18.3847 64.7359 17.4551 64.0286 16.667C63.3213 15.8788 62.3512 15.5757 61.3206 15.5757C60.4516 15.5757 59.6433 15.7374 59.0168 16.1213C58.3903 16.4245 57.9053 16.9903 57.5012 17.6774V21.1937C57.7437 21.901 58.2085 22.4466 58.7743 22.8306C59.4008 23.2146 60.1283 23.4571 60.9973 23.4571C62.1896 23.4571 63.1596 23.0731 63.9477 22.3658Z" fill="#495124"/>
<path d="M72.6173 15.414C73.3246 14.3227 74.2946 13.3729 75.5678 12.7667C76.8409 12.1402 78.2757 11.7562 79.8722 11.7562C81.4687 11.7562 82.9035 12.0594 84.1565 12.7667C85.3488 13.3931 86.2986 14.3227 87.0261 15.4948C87.7334 16.6669 88.0568 17.9199 88.0568 19.3951C88.0568 20.8703 87.7334 22.1233 87.0261 23.2954C86.3188 24.4675 85.4296 25.3971 84.1565 26.0236C82.9642 26.65 81.4485 27.034 79.8722 27.034C78.2757 27.034 76.8409 26.7309 75.5678 26.1044C74.2946 25.4779 73.3448 24.6292 72.6173 23.457C71.9908 22.2849 71.5867 20.9512 71.5867 19.3951C71.5867 17.9199 71.9706 16.5861 72.6173 15.414ZM77.3057 22.2243C77.9322 23.0125 78.8214 23.3156 79.852 23.3156C80.8827 23.3156 81.7516 22.9316 82.3983 22.2243C83.0248 21.517 83.3481 20.5066 83.3481 19.4153C83.3481 18.2432 83.0248 17.3136 82.3983 16.6063C81.691 15.8182 80.8827 15.4342 79.7712 15.4342C78.7405 15.4342 77.9322 15.8182 77.2249 16.5255C76.5984 17.3136 76.2751 18.2432 76.2751 19.4153C76.2751 20.4864 76.5984 21.4362 77.3057 22.2243Z" fill="#495124"/>
<path d="M95.5136 0.964844V26.6703H90.906V0.964844H95.5136Z" fill="#495124"/>
<path d="M114.45 12.4434L105.073 33.5412H100.627L104.123 25.963L97.4338 12.4434H102.688L106.508 20.8704L110.327 12.4434H114.45Z" fill="#495124"/>
<path d="M132.092 12.4433V26.6702C132.092 28.004 131.688 29.257 130.899 30.3482C130.111 31.4395 129.06 32.3085 127.727 32.9349C126.373 33.5614 124.938 33.8645 123.362 33.8645C122.169 33.8645 121.139 33.7029 120.27 33.4806C119.401 33.1774 118.673 32.8541 118.128 32.551C117.501 32.167 116.854 31.682 116.147 31.0757L118.855 27.9434C119.481 28.5699 120.209 29.0347 120.835 29.358C121.462 29.6611 122.351 29.9036 123.301 29.9036C124.493 29.9036 125.443 29.6005 126.251 29.0347C127.04 28.489 127.444 27.62 127.444 26.6096V24.5685C126.959 25.2758 126.332 25.9023 125.382 26.3671C124.433 26.8319 123.321 27.0744 122.048 27.0744C120.775 27.0744 119.502 26.7713 118.39 26.064C117.279 25.4375 116.41 24.5079 115.682 23.3358C115.056 22.1637 114.652 20.9108 114.652 19.5164C114.652 18.1017 114.975 16.7882 115.682 15.6161C116.39 14.444 117.279 13.5144 118.471 12.8071C119.583 12.0998 120.775 11.7966 122.048 11.7966C123.24 11.7966 124.271 11.9583 125.221 12.2614C126.171 12.5646 126.898 13.0496 127.363 13.5952L127.848 12.5039H132.092V12.4433ZM127.403 21.1937V17.6774C127.08 16.9701 126.615 16.4244 125.888 16.0405C125.18 15.6565 124.372 15.414 123.422 15.414C122.311 15.414 121.361 15.798 120.553 16.5053C119.764 17.2126 119.36 18.1422 119.36 19.3143C119.36 20.4055 119.764 21.416 120.553 22.2041C121.341 22.9922 122.311 23.3762 123.422 23.3762C125.261 23.3156 126.615 22.6083 127.403 21.1937Z" fill="#495124"/>
<path d="M135.911 15.414C136.618 14.2419 137.588 13.3729 138.861 12.6858C140.134 12.0594 141.569 11.6754 143.166 11.6754C144.762 11.6754 146.197 11.9785 147.47 12.6858C148.662 13.3123 149.612 14.2419 150.34 15.414C150.966 16.5861 151.37 17.8391 151.37 19.3143C151.37 20.7895 151.047 22.0425 150.34 23.2146C149.713 24.3867 148.743 25.3163 147.47 25.9427C146.278 26.5692 144.762 26.9532 143.166 26.9532C141.569 26.9532 140.134 26.6501 138.861 26.0236C137.588 25.3971 136.638 24.5484 135.911 23.3763C135.203 22.2041 134.88 20.8704 134.88 19.2335C134.88 17.9199 135.203 16.5861 135.911 15.414ZM140.539 22.2244C141.165 23.0125 142.054 23.3156 143.085 23.3156C144.115 23.3156 144.984 22.9317 145.631 22.2244C146.278 21.517 146.581 20.5066 146.581 19.4153C146.581 18.2432 146.258 17.3136 145.631 16.6063C145.005 15.899 144.115 15.5151 143.085 15.5151C142.054 15.5151 141.246 15.899 140.539 16.6063C139.831 17.3136 139.508 18.3241 139.508 19.4153C139.569 20.5066 139.892 21.4362 140.539 22.2244Z" fill="#495124"/>
<path d="M167.659 12.9283C168.609 13.7165 169.013 14.7269 169.094 15.9798V26.6904H164.405V17.6976C164.324 16.283 163.617 15.5959 162.263 15.5959C161.232 15.5959 160.363 16.0607 159.717 17.0711C159.09 18.0815 158.767 19.3345 158.767 20.8299V26.6904H154.159V12.4635H158.383L158.706 14.7269C159.272 13.7973 159.98 13.09 160.929 12.5444C161.879 11.9987 162.991 11.7562 164.264 11.7562C165.577 11.7562 166.77 12.1402 167.659 12.9283Z" fill="#495124"/>
<path d="M33.0892 12.221C32.301 11.7562 31.2502 11.7562 30.3812 12.221L24.1771 15.8182L19.9535 18.1624L13.7494 21.7595C12.9613 22.2243 11.9105 22.2243 11.0415 21.7595L6.11056 18.9505C5.32242 18.4857 4.75658 17.6167 4.75658 16.6871V11.15C4.75658 10.2204 5.24158 9.35138 6.11056 8.88658L10.9606 6.1584C11.7488 5.6936 12.7996 5.6936 13.6686 6.1584L18.5187 8.88658C19.3068 9.35138 19.8727 10.2204 19.8727 11.15V14.7471L24.0963 12.3221V8.72491C24.0963 7.79531 23.6113 6.92633 22.7423 6.46153L13.7494 1.30832C12.9613 0.843517 11.9105 0.843517 11.0415 1.30832L1.88694 6.46153C1.01797 6.92633 0.532959 7.79531 0.532959 8.72491V19.1122C0.532959 20.0418 1.01797 20.9107 1.88694 21.3755L11.0415 26.5288C11.8296 26.9936 12.8805 26.9936 13.7494 26.5288L19.9535 23.0124L24.1771 20.5874L30.3812 17.0711C31.1693 16.6063 32.2202 16.6063 33.0892 17.0711L37.9392 19.7993C38.7274 20.2641 39.2932 21.133 39.2932 22.0626V27.5998C39.2932 28.5294 38.8082 29.3984 37.9392 29.8632L33.0892 32.6722C32.301 33.137 31.2502 33.137 30.3812 32.6722L25.5311 29.944C24.743 29.4792 24.1771 28.6103 24.1771 27.6807V24.0835L19.9535 26.5086V30.1057C19.9535 31.0353 20.4385 31.9043 21.3075 32.3691L30.462 37.5223C31.2502 37.9871 32.301 37.9871 33.17 37.5223L42.3245 32.3691C43.1127 31.9043 43.6785 31.0353 43.6785 30.1057V19.7184C43.6785 18.7888 43.1935 17.9199 42.3245 17.4551L33.0892 12.221Z" fill="#495124"/>
</svg>
