<svg width="182" height="35" viewBox="0 0 182 35" fill="none" xmlns="http://www.w3.org/2000/svg">
<path d="M177.521 9.04888C174.328 9.12971 171.114 9.06908 167.901 9.06908C165.537 9.06908 164.324 10.3018 164.324 12.6258C164.324 16.2634 164.324 19.9009 164.324 23.5385C164.324 25.9433 163.981 25.7008 166.669 25.721C167.335 25.721 167.578 25.4381 167.558 24.7712C167.537 23.2354 167.558 21.6995 167.537 20.1637C167.517 19.517 167.719 19.2341 168.406 19.2341C171.397 19.2543 174.388 19.2543 177.379 19.2341C178.046 19.2341 178.289 19.4766 178.268 20.1232C178.248 21.6591 178.268 23.195 178.268 24.7308C178.268 25.0946 178.228 25.5796 178.693 25.5998C179.642 25.6604 180.613 25.9029 181.522 25.3775V11.3729C180.774 9.61472 179.4 9.00846 177.521 9.04888ZM177.44 16.8899C175.924 16.8696 174.429 16.8899 172.913 16.8899C171.458 16.8899 170.023 16.8696 168.568 16.8899C167.861 16.9101 167.497 16.708 167.537 15.9198C167.598 15.2125 167.537 14.485 167.558 13.7575C167.578 12.5854 168.265 11.7973 169.457 11.777C171.781 11.7366 174.105 11.7366 176.429 11.777C177.601 11.7973 178.268 12.5854 178.289 13.7777C178.309 14.5254 178.268 15.2732 178.309 16.0209C178.329 16.6676 178.046 16.8899 177.44 16.8899Z" fill="#495124"/>
<path d="M42.9103 0.541016H33.6547H24.581H15.6892H7.70676C7.64613 0.601642 7.58551 0.662273 7.52488 0.722899C6.51444 1.38979 5.78693 2.31938 4.95838 3.16815C4.35212 3.77441 3.72565 4.40087 3.11939 5.00713C2.2302 5.8761 1.36123 6.72488 0.472047 7.59385C0.229543 7.83636 0.00724605 8.09906 0.148707 8.46281C0.310376 8.84678 0.653926 8.94783 1.03789 8.94783C1.23998 8.94783 1.46227 8.94783 1.66436 8.94783C12.5973 8.94783 23.5302 8.94783 34.4833 8.94783C34.8066 8.94783 35.1502 9.02866 35.4533 8.86699C36.3829 8.76594 36.7871 7.97781 37.3529 7.41197C38.3836 6.38133 39.4142 5.37088 40.4246 4.34023C41.2734 3.53189 42.102 2.70334 42.9507 1.89499C43.4761 1.43019 43.4155 0.965398 42.9103 0.541016Z" fill="#495124"/>
<path d="M92.3005 9.10952C88.7437 9.08931 85.1668 9.08931 81.6101 9.10952C79.67 9.10952 78.3767 10.4029 78.3565 12.3429C78.3363 15.7178 78.3363 19.0724 78.3565 22.4473C78.3767 24.4681 79.6296 25.7008 81.6505 25.721C83.4288 25.7413 85.2072 25.721 87.0058 25.721C88.7639 25.721 90.5019 25.721 92.26 25.721C94.4022 25.7008 95.6349 24.4883 95.6551 22.3664C95.6753 19.0522 95.6753 15.7582 95.6551 12.444C95.6349 10.3625 94.3617 9.10952 92.3005 9.10952ZM92.4015 20.5476C92.3813 21.7399 91.5729 22.4877 90.3604 22.5079C88.1173 22.5281 85.8943 22.5281 83.6511 22.5079C82.3578 22.4877 81.5899 21.6995 81.5899 20.386C81.5696 18.3045 81.5696 16.2432 81.5899 14.1617C81.6101 12.8077 82.3578 12.06 83.732 12.0398C84.8434 12.0196 85.9751 12.0398 87.0866 12.0398C88.1779 12.0398 89.2692 12.0196 90.3402 12.0398C91.5729 12.06 92.3813 12.7673 92.4015 13.9596C92.4621 16.1623 92.4621 18.3651 92.4015 20.5476Z" fill="#495124"/>
<path d="M137.265 18.4863C137.265 16.5058 137.265 14.5254 137.265 12.5247C137.265 10.3422 136.032 9.10944 133.849 9.08923C130.454 9.08923 127.08 9.08923 123.684 9.08923C121.441 9.08923 120.229 10.322 120.209 12.5449C120.209 16.2431 120.209 19.9413 120.209 23.6395C120.209 25.9231 119.905 25.7008 122.371 25.7412C123.139 25.7614 123.462 25.4987 123.442 24.6904C123.402 23.1949 123.442 21.6793 123.422 20.1838C123.402 19.5371 123.624 19.2744 124.311 19.2744C127.282 19.2946 130.232 19.2946 133.203 19.2744C133.829 19.2744 134.072 19.5169 134.072 20.1232C134.052 21.2953 134.052 22.4674 134.072 23.6395C134.092 25.9433 133.708 25.7008 136.214 25.7412C136.982 25.7614 137.285 25.4987 137.265 24.6904C137.224 22.6291 137.265 20.5476 137.265 18.4863ZM133.183 16.8898C131.667 16.8696 130.151 16.8898 128.656 16.8898C127.241 16.8898 125.806 16.8696 124.392 16.8898C123.725 16.91 123.381 16.6877 123.422 15.9602C123.462 15.2125 123.402 14.4648 123.442 13.6968C123.482 12.5449 124.149 11.7972 125.281 11.777C127.585 11.7366 129.868 11.7366 132.172 11.777C133.324 11.7972 134.011 12.5651 134.031 13.6766C134.052 14.4648 134.011 15.2327 134.052 16.0208C134.072 16.6675 133.789 16.8898 133.183 16.8898Z" fill="#495124"/>
<path d="M68.151 15.8188C66.0089 15.8188 63.8668 15.8188 61.7045 15.8188C60.8153 15.8188 60.0878 15.5156 59.7846 14.6265C59.3603 13.4139 60.2292 12.3429 61.6438 12.3227C64.1295 12.3025 66.595 12.3227 69.0806 12.3227C69.505 12.3227 69.9092 12.3227 70.2527 11.9791C70.859 11.3931 71.4855 10.8272 72.1119 10.2412C72.3342 10.0391 72.5969 9.81679 72.4555 9.47324C72.314 9.08928 71.9503 9.08927 71.6067 9.08927C68.1915 9.08927 64.7762 9.06908 61.3609 9.1095C59.34 9.12971 57.8446 10.1199 56.9554 11.9185C55.3994 15.071 57.5617 18.7894 61.078 18.9713C63.402 19.0926 65.726 19.0118 68.05 19.032C69.3433 19.032 70.1315 19.719 70.1113 20.7901C70.1113 21.8612 69.3231 22.528 68.0096 22.528C66.2918 22.528 64.5539 22.6695 62.8361 22.4876C60.7142 22.2653 58.9965 22.8514 57.6425 24.4681C57.6223 24.4883 57.6021 24.5085 57.5819 24.5287C57.3394 24.751 57.016 24.9329 57.1373 25.3371C57.2788 25.7817 57.6829 25.7412 58.0467 25.7412H63.3009V25.721C64.9581 25.721 66.6354 25.7614 68.2925 25.721C71.2228 25.6402 73.4053 23.4577 73.3447 20.6891C73.3043 17.8801 71.1015 15.8188 68.151 15.8188Z" fill="#495124"/>
<path d="M159.292 17.4354C159.292 15.3337 159.312 13.232 159.292 11.1101C159.272 8.90734 159.595 9.08922 157.271 9.04881C156.443 9.0286 156.099 9.2711 156.099 10.1805C156.16 13.333 156.119 16.5058 156.119 19.6584C156.119 20.0423 156.241 20.5071 155.776 20.689C155.25 20.9113 155.028 20.4263 154.786 20.1232C152.098 16.9504 149.37 13.7978 146.783 10.5645C145.894 9.45298 144.964 8.88714 143.509 9.04881C142.357 9.19027 142.277 9.12964 142.277 10.2815C142.277 14.7274 142.277 19.1936 142.277 23.6395C142.277 25.9837 142.014 25.721 144.419 25.7614C145.288 25.7816 145.49 25.4381 145.49 24.6297C145.449 21.6186 145.469 18.6075 145.49 15.6166C145.49 15.172 145.267 14.5658 145.874 14.3435C146.44 14.1414 146.642 14.7274 146.904 15.0306C149.552 18.0821 152.26 21.073 154.786 24.2255C155.776 25.4583 156.807 25.9231 158.322 25.7614C159.05 25.6805 159.333 25.4583 159.312 24.7307C159.272 22.3057 159.292 19.8807 159.292 17.4354Z" fill="#495124"/>
<path d="M114.833 22.9726C111.6 22.9726 108.366 22.9524 105.133 22.9929C104.284 23.0131 103.981 22.7706 103.981 21.8814C104.021 18.2842 104.001 14.6669 104.001 11.0495C104.001 8.92761 104.163 9.10948 101.96 9.06906C101.111 9.04885 100.768 9.31156 100.788 10.2007C100.828 12.6056 100.808 15.0104 100.808 17.4153C100.808 19.7595 100.808 22.1037 100.808 24.4479C100.808 25.721 100.828 25.7412 102.142 25.7412C105.456 25.7412 108.791 25.6806 112.105 25.7817C113.519 25.8221 114.631 25.5391 115.419 24.3266C115.621 24.0235 116.106 23.8214 115.904 23.3566C115.742 22.8312 115.257 22.9726 114.833 22.9726Z" fill="#495124"/>
<path d="M7.10062 21.0932C7.38354 21.3761 7.76751 21.4974 8.17168 21.4974C9.58629 21.4771 11.0009 21.4772 12.4357 21.457H18.9631H27.4912H36.0193C38.1816 21.457 40.3237 21.4771 42.486 21.4974C42.8094 21.4974 43.1125 21.457 43.2338 21.1336C43.3752 20.8103 43.3146 20.4869 43.0317 20.2444C42.8094 20.0626 42.6679 19.7594 42.3446 19.6988C42.0415 19.5775 42.001 19.2138 41.7989 19.0117C39.9802 17.2131 38.1614 15.3943 36.3426 13.5958C36.0597 13.3128 35.6959 13.1714 35.2917 13.1714C33.3517 13.1916 31.4319 13.1916 29.4919 13.2118H21.1457H12.6176H4.2714C3.15993 13.2118 2.04845 13.1916 0.936971 13.1714C0.573214 13.1714 0.290291 13.3129 0.14883 13.6564C0.00736891 13.9797 0.169041 14.2425 0.391337 14.4647C1.01781 15.071 1.64427 15.6773 2.27074 16.2835C3.86723 17.8598 5.48393 19.4765 7.10062 21.0932Z" fill="#495124"/>
<path d="M42.1021 25.9231C41.9808 25.9029 41.8596 25.8624 41.7585 25.8624C35.8172 25.8624 29.8556 25.8624 23.9143 25.8624C23.793 25.8624 23.6718 25.9029 23.5707 25.9231C23.9143 25.9029 24.2376 25.8827 24.5811 25.9029C24.2376 25.9029 23.9143 25.9029 23.5707 25.9231C23.3686 25.9029 23.1463 25.8624 22.9442 25.8624C18.175 25.8624 13.426 25.8624 8.6567 25.8624C8.45461 25.8624 8.25253 25.9231 8.05044 25.9635C7.70689 25.9433 7.42397 26.0039 7.16126 26.2666C6.39333 27.0952 5.58498 27.8833 4.81705 28.6916C3.90766 29.4798 3.05889 30.3285 2.27075 31.2177C1.66449 31.8038 1.05823 32.3696 0.451969 32.9557C0.209465 33.1982 -0.0128309 33.4609 0.148839 33.8247C0.310508 34.2086 0.633849 34.2895 1.03802 34.2895C3.3216 34.2693 5.60519 34.2692 7.88877 34.249H14.9618H23.308H32.0179C33.1092 34.249 34.1803 34.2693 35.2715 34.2895C35.6959 34.2895 36.0395 34.148 36.3224 33.8651C36.8882 33.2992 37.4541 32.7132 37.9997 32.1271C39.2122 31.0359 40.3641 29.9042 41.4554 28.6916C41.9 28.2673 42.3648 27.8429 42.8094 27.4185C43.1327 27.1154 43.4359 26.792 43.2338 26.3474C43.0317 25.8422 42.5871 25.8018 42.1021 25.9231Z" fill="#495124"/>
</svg>
