<svg width="56" height="40" viewBox="0 0 56 40" fill="none" xmlns="http://www.w3.org/2000/svg">
<rect width="56" height="40" rx="4" fill="white"/>
<mask id="mask0_417_2747" style="mask-type:alpha" maskUnits="userSpaceOnUse" x="0" y="0" width="56" height="40">
<rect width="56" height="40" rx="4" fill="white"/>
</mask>
<g mask="url(#mask0_417_2747)">
<path fill-rule="evenodd" clip-rule="evenodd" d="M56 0H0V2.66667H56V0ZM56 5.33333H0V8H56V5.33333ZM0 10.6667H56V13.3333H0V10.6667ZM56 16H0V18.6667H56V16ZM0 21.3333H56V24H0V21.3333ZM56 26.6667H0V29.3333H56V26.6667ZM0 32H56V34.6667H0V32ZM56 37.3333H0V40H56V37.3333Z" fill="#D02F44"/>
<rect width="24" height="18.6667" fill="#46467F"/>
<g filter="url(#filter0_d_417_2747)">
<path fill-rule="evenodd" clip-rule="evenodd" d="M3.99984 5.33332C4.73622 5.33332 5.33317 4.73637 5.33317 3.99999C5.33317 3.26361 4.73622 2.66666 3.99984 2.66666C3.26346 2.66666 2.6665 3.26361 2.6665 3.99999C2.6665 4.73637 3.26346 5.33332 3.99984 5.33332ZM9.33317 5.33332C10.0696 5.33332 10.6665 4.73637 10.6665 3.99999C10.6665 3.26361 10.0696 2.66666 9.33317 2.66666C8.59679 2.66666 7.99984 3.26361 7.99984 3.99999C7.99984 4.73637 8.59679 5.33332 9.33317 5.33332ZM15.9998 3.99999C15.9998 4.73637 15.4029 5.33332 14.6665 5.33332C13.9301 5.33332 13.3332 4.73637 13.3332 3.99999C13.3332 3.26361 13.9301 2.66666 14.6665 2.66666C15.4029 2.66666 15.9998 3.26361 15.9998 3.99999ZM19.9998 5.33332C20.7362 5.33332 21.3332 4.73637 21.3332 3.99999C21.3332 3.26361 20.7362 2.66666 19.9998 2.66666C19.2635 2.66666 18.6665 3.26361 18.6665 3.99999C18.6665 4.73637 19.2635 5.33332 19.9998 5.33332ZM7.99984 6.66666C7.99984 7.40304 7.40288 7.99999 6.6665 7.99999C5.93012 7.99999 5.33317 7.40304 5.33317 6.66666C5.33317 5.93028 5.93012 5.33332 6.6665 5.33332C7.40288 5.33332 7.99984 5.93028 7.99984 6.66666ZM11.9998 7.99999C12.7362 7.99999 13.3332 7.40304 13.3332 6.66666C13.3332 5.93028 12.7362 5.33332 11.9998 5.33332C11.2635 5.33332 10.6665 5.93028 10.6665 6.66666C10.6665 7.40304 11.2635 7.99999 11.9998 7.99999ZM18.6665 6.66666C18.6665 7.40304 18.0695 7.99999 17.3332 7.99999C16.5968 7.99999 15.9998 7.40304 15.9998 6.66666C15.9998 5.93028 16.5968 5.33332 17.3332 5.33332C18.0695 5.33332 18.6665 5.93028 18.6665 6.66666ZM19.9998 10.6667C20.7362 10.6667 21.3332 10.0697 21.3332 9.33332C21.3332 8.59694 20.7362 7.99999 19.9998 7.99999C19.2635 7.99999 18.6665 8.59694 18.6665 9.33332C18.6665 10.0697 19.2635 10.6667 19.9998 10.6667ZM15.9998 9.33332C15.9998 10.0697 15.4029 10.6667 14.6665 10.6667C13.9301 10.6667 13.3332 10.0697 13.3332 9.33332C13.3332 8.59694 13.9301 7.99999 14.6665 7.99999C15.4029 7.99999 15.9998 8.59694 15.9998 9.33332ZM9.33317 10.6667C10.0696 10.6667 10.6665 10.0697 10.6665 9.33332C10.6665 8.59694 10.0696 7.99999 9.33317 7.99999C8.59679 7.99999 7.99984 8.59694 7.99984 9.33332C7.99984 10.0697 8.59679 10.6667 9.33317 10.6667ZM5.33317 9.33332C5.33317 10.0697 4.73622 10.6667 3.99984 10.6667C3.26346 10.6667 2.6665 10.0697 2.6665 9.33332C2.6665 8.59694 3.26346 7.99999 3.99984 7.99999C4.73622 7.99999 5.33317 8.59694 5.33317 9.33332ZM6.6665 13.3333C7.40288 13.3333 7.99984 12.7364 7.99984 12C7.99984 11.2636 7.40288 10.6667 6.6665 10.6667C5.93012 10.6667 5.33317 11.2636 5.33317 12C5.33317 12.7364 5.93012 13.3333 6.6665 13.3333ZM13.3332 12C13.3332 12.7364 12.7362 13.3333 11.9998 13.3333C11.2635 13.3333 10.6665 12.7364 10.6665 12C10.6665 11.2636 11.2635 10.6667 11.9998 10.6667C12.7362 10.6667 13.3332 11.2636 13.3332 12ZM17.3332 13.3333C18.0695 13.3333 18.6665 12.7364 18.6665 12C18.6665 11.2636 18.0695 10.6667 17.3332 10.6667C16.5968 10.6667 15.9998 11.2636 15.9998 12C15.9998 12.7364 16.5968 13.3333 17.3332 13.3333ZM21.3332 14.6667C21.3332 15.403 20.7362 16 19.9998 16C19.2635 16 18.6665 15.403 18.6665 14.6667C18.6665 13.9303 19.2635 13.3333 19.9998 13.3333C20.7362 13.3333 21.3332 13.9303 21.3332 14.6667ZM14.6665 16C15.4029 16 15.9998 15.403 15.9998 14.6667C15.9998 13.9303 15.4029 13.3333 14.6665 13.3333C13.9301 13.3333 13.3332 13.9303 13.3332 14.6667C13.3332 15.403 13.9301 16 14.6665 16ZM10.6665 14.6667C10.6665 15.403 10.0696 16 9.33317 16C8.59679 16 7.99984 15.403 7.99984 14.6667C7.99984 13.9303 8.59679 13.3333 9.33317 13.3333C10.0696 13.3333 10.6665 13.9303 10.6665 14.6667ZM3.99984 16C4.73622 16 5.33317 15.403 5.33317 14.6667C5.33317 13.9303 4.73622 13.3333 3.99984 13.3333C3.26346 13.3333 2.6665 13.9303 2.6665 14.6667C2.6665 15.403 3.26346 16 3.99984 16Z" fill="url(#paint0_linear_417_2747)"/>
</g>
</g>
<defs>
<filter id="filter0_d_417_2747" x="2.6665" y="2.66666" width="18.6665" height="15.3333" filterUnits="userSpaceOnUse" color-interpolation-filters="sRGB">
<feFlood flood-opacity="0" result="BackgroundImageFix"/>
<feColorMatrix in="SourceAlpha" type="matrix" values="0 0 0 0 0 0 0 0 0 0 0 0 0 0 0 0 0 0 127 0" result="hardAlpha"/>
<feOffset dy="2"/>
<feColorMatrix type="matrix" values="0 0 0 0 0 0 0 0 0 0 0 0 0 0 0 0 0 0 0.06 0"/>
<feBlend mode="normal" in2="BackgroundImageFix" result="effect1_dropShadow_417_2747"/>
<feBlend mode="normal" in="SourceGraphic" in2="effect1_dropShadow_417_2747" result="shape"/>
</filter>
<linearGradient id="paint0_linear_417_2747" x1="2.6665" y1="2.66666" x2="2.6665" y2="16" gradientUnits="userSpaceOnUse">
<stop stop-color="white"/>
<stop offset="1" stop-color="#F0F0F0"/>
</linearGradient>
</defs>
</svg>
