<svg width="56" height="56" viewBox="0 0 56 56" fill="none" xmlns="http://www.w3.org/2000/svg">
<path d="M55.5365 24.6083C54.3813 13.8326 46.423 4.34488 35.9832 1.25384C34.2717 0.738671 32.4747 0.524037 30.7633 0.0947266H24.9871C23.2757 0.524037 21.4787 0.738671 19.7672 1.25384C9.2846 4.38781 1.41194 13.7467 0.213931 24.6083C0.213931 24.78 0.128351 24.9089 0.0855646 25.0806C0.0855646 24.6083 0.0855646 24.1361 0.0855646 23.621C0.0427784 24.0503 0 24.4795 0 24.8659C0 25.0376 0 25.1665 0 25.3382V30.6186C0 30.7474 -1.04465e-05 30.8763 0.0427758 31.0051C0.085562 31.3056 0.0855672 31.6061 0.128353 31.9495C0.128353 31.6061 0.128353 31.2197 0.128353 30.8763C0.556215 33.2375 0.98408 35.6416 1.88259 37.9169C4.79205 45.3011 9.84082 50.6245 17.1573 53.7156C19.8956 54.8747 22.805 55.4757 25.8001 55.7333V55.7763C25.8001 55.8192 25.8001 55.8622 25.8001 55.9051H29.9931C29.9931 55.8622 29.9931 55.7762 29.9931 55.7333C30.5065 55.6904 31.0628 55.6045 31.5762 55.5186C34.7852 55.0035 37.9086 54.2737 40.7325 52.7711C50.1882 47.7052 55.7076 38.4322 55.7076 27.9141C55.7076 26.8408 55.6648 25.7245 55.5365 24.6083ZM20.7513 21.7319C20.7513 19.7571 22.2916 18.1686 24.2598 18.1686C26.1851 18.1686 27.7682 19.7142 27.811 21.6461C27.8538 23.6209 26.2707 25.2094 24.3026 25.2094C22.2916 25.2094 20.7941 23.6638 20.7513 21.7319ZM9.84083 26.7548C9.58411 30.8762 9.2846 35.0406 8.08659 39.0761C7.7443 40.2353 7.40201 41.3515 6.76021 42.5106C5.51941 40.8363 4.6209 39.0761 3.93632 37.2301C-1.83981 21.9037 7.57315 5.24647 23.6608 2.58475C31.6618 1.25389 38.8926 3.2716 45.0111 8.76678C51.4718 14.5625 54.2101 21.9037 53.5255 30.5328C52.627 41.3944 44.1126 50.9251 33.3304 53.2004C32.5175 53.3721 32.4319 53.0716 32.4319 52.4276C32.218 48.8644 33.5016 45.7734 35.2558 42.8111C37.3523 39.2478 40.1334 36.2856 43.0857 33.3663C44.3265 32.1642 45.7384 31.005 46.6797 29.5454C45.7812 30.0176 45.0111 30.7475 44.027 31.1339C40.6897 32.8941 37.224 34.139 33.416 34.0961C31.619 34.0961 29.9503 33.538 28.624 32.25C29.6936 32.6364 30.7633 33.0228 31.9185 33.1516C35.8548 33.538 39.5772 32.6365 43.1285 31.1339C43.3424 31.048 43.5563 30.9621 43.7703 30.8763C44.8827 30.3611 45.824 29.5024 47.022 29.1161C47.5355 28.515 47.8777 27.8711 48.1772 27.1413C49.1613 24.6942 48.4768 22.5905 46.0807 20.9592C44.5404 19.8859 42.7862 19.242 40.9892 18.7697C39.2349 18.2975 37.5663 17.5677 35.8548 16.9666C35.5125 16.8379 35.3414 16.5803 35.1275 16.3227C34.614 15.2065 33.7583 14.4766 32.6031 14.1332C31.2339 13.7038 29.8648 13.7897 28.4956 14.1332C27.7682 14.3049 27.0409 14.0473 26.3563 13.9185C23.2329 13.3175 20.409 14.219 17.5423 15.3781C12.408 17.5247 10.1403 21.3885 9.84083 26.7548ZM40.9892 26.5832C40.9892 25.9392 41.417 25.5529 42.0588 25.5529C42.7006 25.5529 43.0429 25.9392 43.1285 26.6261C43.0429 27.2272 42.7434 27.6994 42.0588 27.6994C41.3742 27.6994 40.9892 27.2701 40.9892 26.5832Z" fill="#7D7E81"/>
</svg>
